M48
INCH,LZ
;FILE_FORMAT=2:4
;TYPE=NON_PLATED
;Layer: NPTH_Through
;EasyEDA v6.5.22, 2022-11-17 17:56:15
;bd1838edf7794fe9965007c2dd97f0f2,c41f2f61388c4f97afb2f396c9cd50e1,10
;Gerber Generator version 0.2
;Holesize 1 = 0.1180 inch
T01C0.1180
;Holesize 2 = 0.1380 inch
T02C0.1380
;Holesize 3 = 0.1970 inch
T03C0.1970
;Holesize 4 = 0.2360 inch
T04C0.2360
%
G05
G90
T01
X005709Y011417
X015552Y003149
X025394Y011417
X005709Y050788
X015552Y042519
X025394Y050788
X005709Y090158
X015552Y081890
X025394Y090158
T02
X015551Y001929
X015551Y013819
X015551Y041299
X015551Y053189
X015551Y080669
X015551Y092559
T03
X023622Y027559
X023622Y066929
X005905Y066929
X005905Y027559
T04
X011811Y007874
X011811Y047244
X011811Y086614
M30
