M48
INCH,LZ
;FILE_FORMAT=2:4
;TYPE=PLATED
;Layer: PTH_Through
;EasyEDA v6.5.22, 2022-11-17 17:56:15
;bd1838edf7794fe9965007c2dd97f0f2,c41f2f61388c4f97afb2f396c9cd50e1,10
;Gerber Generator version 0.2
;Holesize 1 = 0.0320 inch
T01C0.0320
;Holesize 2 = 0.0350 inch
T02C0.0350
;Holesize 3 = 0.0390 inch
T03C0.0390
;Holesize 4 = 0.0410 inch
T04C0.0410
;Holesize 5 = 0.0430 inch
T05C0.0430
%
G05
G90
T01
X007921Y003374G85X007923Y003374
X010976Y003374G85X010978Y003374
X007921Y012374G85X007923Y012374
X010976Y012374G85X010978Y012374
X020125Y012374G85X020127Y012374
X023180Y012374G85X023182Y012374
X020125Y003374G85X020127Y003374
X023180Y003374G85X023182Y003374
X007921Y042744G85X007923Y042744
X010976Y042744G85X010978Y042744
X007921Y051744G85X007923Y051744
X010976Y051744G85X010978Y051744
X020125Y051744G85X020127Y051744
X023180Y051744G85X023182Y051744
X020125Y042744G85X020127Y042744
X023180Y042744G85X023182Y042744
X007921Y082114G85X007923Y082114
X010976Y082114G85X010978Y082114
X007921Y091114G85X007923Y091114
X010976Y091114G85X010978Y091114
X020125Y091114G85X020127Y091114
X023180Y091114G85X023182Y091114
X020125Y082114G85X020127Y082114
X023180Y082114G85X023182Y082114
T02
X006165Y078410
X006165Y077409
X006165Y076410
X006165Y075409
X025409Y075409
X025409Y076410
X025409Y077409
X025409Y078409
X014917Y064736G85X014917Y064736
X013917Y064736G85X013917Y064736
X012917Y064736G85X012917Y064736
X011917Y064736G85X011917Y064736
X010917Y064736G85X010917Y064736
X009917Y064736G85X009917Y064736
X008917Y064736G85X008917Y064736
X007917Y064736G85X007917Y064736
X007917Y055736G85X007917Y055736
X008917Y055736G85X008917Y055736
X009917Y055736G85X009917Y055736
X010917Y055736G85X010917Y055736
X011917Y055736G85X011917Y055736
X012917Y055736G85X012917Y055736
X013917Y055736G85X013917Y055736
X014917Y055736G85X014917Y055736
T03
X007012Y030992
X006012Y030992
X025012Y030992
X008012Y030992
X009012Y030992
X010012Y030992
X011012Y030992
X012012Y030992
X013012Y030992
X014012Y030992
X015012Y030992
X016012Y030992
X017012Y030992
X018012Y030992
X019012Y030992
X020012Y030992
X021012Y030992
X022012Y030992
X023012Y030992
X024012Y030992
X006012Y037992
X024012Y037992
X023012Y037992
X022012Y037992
X021012Y037992
X020012Y037992
X019012Y037992
X018012Y037992
X017012Y037992
X016012Y037992
X015012Y037992
X014012Y037992
X013012Y037992
X012012Y037992
X011012Y037992
X010012Y037992
X009012Y037992
X008012Y037992
X025012Y037992
X007012Y037992
X025394Y069866
X025394Y071866
X025197Y062559
X025197Y061559
X025197Y060559
X025197Y059559
X022480Y061575
X022480Y060575
X022480Y059575
X022909Y024760
X022909Y023760
X022909Y022760
X022909Y021760
X025909Y021760
X025909Y022760
X025909Y023760
X025909Y024760
T04
X007177Y033534G85X007335Y033534
X007177Y035443G85X007335Y035443
T05
X005925Y033416G85X006201Y033416
X005925Y035561G85X006201Y035561
M30
