M48
INCH,LZ
;FILE_FORMAT=2:4
;TYPE=PLATED
;Layer: PTH_Through_Via
;EasyEDA v6.5.22, 2022-11-17 17:56:15
;bd1838edf7794fe9965007c2dd97f0f2,c41f2f61388c4f97afb2f396c9cd50e1,10
;Gerber Generator version 0.2
;Holesize 1 = 0.0120 inch
T01C0.0120
%
G05
G90
T01
X016498Y022916
X011503Y028425
X012490Y024407
X021012Y010301
X012498Y020819
X011759Y056607
X022054Y073546
X012498Y072409
X019294Y022171
X018998Y073722
X007156Y027723
X012659Y022915
X021934Y048280
X022547Y047958
X011916Y072514
X013170Y072036
X024783Y085456
X017998Y071592
X011248Y073201
X011417Y074944
X017827Y028024
X010012Y028747
X018205Y026743
X013485Y044325
X023996Y085582
X017012Y065824
X013498Y071561
X018998Y022898
X014512Y029909
X018528Y022894
X024300Y086089
X014637Y008248
X014498Y015518
X014998Y022649
X020503Y023690
X017511Y047147
X014240Y023007
X023463Y020993
X015677Y020819
X015998Y021852
X008884Y029015
X016333Y024065
X009503Y050574
X009503Y028826
X016051Y024484
X015998Y018874
X016998Y015759
X015498Y075975
X014998Y078093
X014498Y085997
X016457Y085564
X017142Y075259
M30
