G04 Layer: TopPasteMaskLayer*
G04 EasyEDA v6.5.22, 2022-11-17 17:56:15*
G04 bd1838edf7794fe9965007c2dd97f0f2,c41f2f61388c4f97afb2f396c9cd50e1,10*
G04 Gerber Generator version 0.2*
G04 Scale: 100 percent, Rotated: No, Reflected: No *
G04 Dimensions in inches *
G04 leading zeros omitted , absolute positions ,3 integer and 6 decimal *
%FSLAX36Y36*%
%MOIN*%

%AMMACRO1*21,1,$1,$2,0,0,$3*%
%ADD10R,0.0630X0.0630*%
%ADD11O,0.023620000000000002X0.07087*%
%ADD12MACRO1,0.0709X0.0236X90.0000*%

%LPD*%
D10*
G01*
X701179Y3035850D03*
G01*
X701179Y3067550D03*
G01*
X601179Y3035850D03*
G01*
X601179Y3067550D03*
G01*
X2501180Y3035859D03*
G01*
X2501180Y3067550D03*
G01*
X801180Y3035850D03*
G01*
X801180Y3067550D03*
G01*
X901180Y3035850D03*
G01*
X901180Y3067550D03*
G01*
X1001180Y3035850D03*
G01*
X1001180Y3067550D03*
G01*
X1101180Y3035850D03*
G01*
X1101180Y3067550D03*
G01*
X1201180Y3035850D03*
G01*
X1201180Y3067550D03*
G01*
X1301180Y3035850D03*
G01*
X1301180Y3067550D03*
G01*
X1401180Y3035850D03*
G01*
X1401180Y3067550D03*
G01*
X1501180Y3035850D03*
G01*
X1501180Y3067550D03*
G01*
X1601180Y3035850D03*
G01*
X1601180Y3067550D03*
G01*
X1701180Y3035850D03*
G01*
X1701180Y3067550D03*
G01*
X1801180Y3035850D03*
G01*
X1801180Y3067550D03*
G01*
X1901180Y3035850D03*
G01*
X1901180Y3067550D03*
G01*
X2001180Y3035850D03*
G01*
X2001180Y3067550D03*
G01*
X2101180Y3035850D03*
G01*
X2101180Y3067550D03*
G01*
X2201180Y3035850D03*
G01*
X2201180Y3067550D03*
G01*
X2301180Y3035850D03*
G01*
X2301180Y3067550D03*
G01*
X2401180Y3035850D03*
G01*
X2401180Y3067550D03*
G01*
X2401180Y3862629D03*
G01*
X2301180Y3862629D03*
G01*
X2201180Y3862629D03*
G01*
X2101180Y3862629D03*
G01*
X2001180Y3862629D03*
G01*
X1901180Y3862629D03*
G01*
X1801180Y3862629D03*
G01*
X1701180Y3862629D03*
G01*
X1601180Y3862629D03*
G01*
X1501180Y3862629D03*
G01*
X1401180Y3862629D03*
G01*
X1301180Y3862629D03*
G01*
X1201180Y3862629D03*
G01*
X1101180Y3862629D03*
G01*
X1001180Y3862629D03*
G01*
X901180Y3862629D03*
G01*
X801180Y3862629D03*
G01*
X2501180Y3862629D03*
G01*
X601179Y3862629D03*
G01*
X701179Y3862629D03*
G01*
X2401180Y3830940D03*
G01*
X2301180Y3830940D03*
G01*
X2201180Y3830940D03*
G01*
X2101180Y3830940D03*
G01*
X2001180Y3830940D03*
G01*
X1901180Y3830940D03*
G01*
X1801180Y3830940D03*
G01*
X1701180Y3830940D03*
G01*
X1601180Y3830940D03*
G01*
X1501180Y3830940D03*
G01*
X1401180Y3830940D03*
G01*
X1301180Y3830940D03*
G01*
X1201180Y3830940D03*
G01*
X1101180Y3830940D03*
G01*
X1001180Y3830940D03*
G01*
X901180Y3830940D03*
G01*
X801180Y3830940D03*
G01*
X2501180Y3830940D03*
G01*
X601179Y3830940D03*
G01*
X701179Y3830940D03*
D11*
G01*
X1899799Y2350349D03*
G01*
X1849799Y2350349D03*
G01*
X1799799Y2350349D03*
G01*
X1749799Y2350349D03*
G01*
X1699799Y2350349D03*
G01*
X1649799Y2350349D03*
G01*
X1599799Y2350349D03*
G01*
X1549799Y2350349D03*
G01*
X1499799Y2350349D03*
G01*
X1449799Y2350349D03*
G01*
X1399799Y2350349D03*
G01*
X1349799Y2350349D03*
G01*
X1299799Y2350349D03*
G01*
X1249799Y2350349D03*
G01*
X1899799Y1980270D03*
G01*
X1849799Y1980270D03*
G01*
X1799799Y1980270D03*
G01*
X1749799Y1980270D03*
G01*
X1699799Y1980270D03*
G01*
X1649799Y1980270D03*
G01*
X1599799Y1980270D03*
G01*
X1549799Y1980270D03*
G01*
X1499799Y1980270D03*
G01*
X1449799Y1980270D03*
G01*
X1399799Y1980270D03*
G01*
X1349799Y1980270D03*
G01*
X1299799Y1980270D03*
D12*
G01*
X1249802Y1980303D03*
D11*
G01*
X1899799Y7468460D03*
G01*
X1849799Y7468460D03*
G01*
X1799799Y7468460D03*
G01*
X1749799Y7468460D03*
G01*
X1699799Y7468460D03*
G01*
X1649799Y7468460D03*
G01*
X1599799Y7468460D03*
G01*
X1549799Y7468460D03*
G01*
X1499799Y7468460D03*
G01*
X1449799Y7468460D03*
G01*
X1399799Y7468460D03*
G01*
X1349799Y7468460D03*
G01*
X1299799Y7468460D03*
G01*
X1249799Y7468460D03*
G01*
X1899799Y7098380D03*
G01*
X1849799Y7098380D03*
G01*
X1799799Y7098380D03*
G01*
X1749799Y7098380D03*
G01*
X1699799Y7098380D03*
G01*
X1649799Y7098380D03*
G01*
X1599799Y7098380D03*
G01*
X1549799Y7098380D03*
G01*
X1499799Y7098380D03*
G01*
X1449799Y7098380D03*
G01*
X1399799Y7098380D03*
G01*
X1349799Y7098380D03*
G01*
X1299799Y7098380D03*
D12*
G01*
X1249802Y7098414D03*
M02*
