G04 Layer: BottomLayer*
G04 EasyEDA v6.5.22, 2022-11-17 17:56:15*
G04 bd1838edf7794fe9965007c2dd97f0f2,c41f2f61388c4f97afb2f396c9cd50e1,10*
G04 Gerber Generator version 0.2*
G04 Scale: 100 percent, Rotated: No, Reflected: No *
G04 Dimensions in inches *
G04 leading zeros omitted , absolute positions ,3 integer and 6 decimal *
%FSLAX36Y36*%
%MOIN*%

%AMMACRO1*21,1,$1,$2,0,0,$3*%
%ADD10C,0.0150*%
%ADD11MACRO1,0.0276X0.0433X0.0000*%
%ADD12C,0.0630*%
%ADD13O,0.082677X0.051181000000000004*%
%ADD14O,0.064961X0.051181000000000004*%
%ADD15R,0.0800X0.0500*%
%ADD16O,0.08X0.05*%
%ADD17C,0.0515*%
%ADD18C,0.0669*%
%ADD19R,0.0669X0.0669*%
%ADD20O,0.06X0.12*%
%ADD21C,0.0240*%
%ADD22C,0.0129*%

%LPD*%
G36*
X407900Y10200D02*
G01*
X406380Y10500D01*
X405080Y11379D01*
X404200Y12660D01*
X403900Y14200D01*
X403900Y9434640D01*
X404200Y9436180D01*
X405080Y9437480D01*
X406360Y9438340D01*
X407900Y9438640D01*
X2749560Y9442540D01*
X2751100Y9442240D01*
X2752400Y9441360D01*
X2753260Y9440060D01*
X2753560Y9438540D01*
X2745720Y14200D01*
X2745419Y12660D01*
X2744540Y11379D01*
X2743240Y10500D01*
X2741720Y10200D01*
G37*

%LPC*%
G36*
X1557000Y113840D02*
G01*
X1564620Y114400D01*
X1572160Y115680D01*
X1579540Y117700D01*
X1586680Y120399D01*
X1593520Y123800D01*
X1600020Y127820D01*
X1606100Y132460D01*
X1611699Y137680D01*
X1616759Y143400D01*
X1621260Y149580D01*
X1625120Y156160D01*
X1628340Y163100D01*
X1630880Y170300D01*
X1632720Y177719D01*
X1633820Y185280D01*
X1634180Y192920D01*
X1633820Y200560D01*
X1632720Y208120D01*
X1630880Y215539D01*
X1628340Y222740D01*
X1625120Y229680D01*
X1621260Y236260D01*
X1616759Y242440D01*
X1611699Y248160D01*
X1606100Y253380D01*
X1601339Y257000D01*
X1600380Y258060D01*
X1599840Y259380D01*
X1599820Y260820D01*
X1600280Y262160D01*
X1601200Y263260D01*
X1602220Y264120D01*
X1607200Y269220D01*
X1611620Y274800D01*
X1615460Y280820D01*
X1618640Y287200D01*
X1621160Y293880D01*
X1622980Y300760D01*
X1624060Y307820D01*
X1624440Y314920D01*
X1624060Y322040D01*
X1622980Y329099D01*
X1621160Y335980D01*
X1618640Y342660D01*
X1615460Y349040D01*
X1611620Y355060D01*
X1607200Y360640D01*
X1602220Y365740D01*
X1596759Y370319D01*
X1590840Y374300D01*
X1584540Y377640D01*
X1577940Y380340D01*
X1571100Y382320D01*
X1564079Y383600D01*
X1556980Y384159D01*
X1549840Y383960D01*
X1542780Y383060D01*
X1535840Y381420D01*
X1529100Y379080D01*
X1522640Y376060D01*
X1516540Y372380D01*
X1510840Y368100D01*
X1505600Y363260D01*
X1500900Y357900D01*
X1496759Y352100D01*
X1493260Y345880D01*
X1490400Y339360D01*
X1488220Y332560D01*
X1486780Y325580D01*
X1486040Y318500D01*
X1486040Y311360D01*
X1486780Y304280D01*
X1488220Y297300D01*
X1490400Y290500D01*
X1493260Y283980D01*
X1496759Y277760D01*
X1500900Y271960D01*
X1505600Y266600D01*
X1509259Y263200D01*
X1510280Y261740D01*
X1510540Y259980D01*
X1510020Y258280D01*
X1508820Y256980D01*
X1507060Y255760D01*
X1501220Y250840D01*
X1495880Y245360D01*
X1491100Y239420D01*
X1486920Y233020D01*
X1483360Y226260D01*
X1480480Y219180D01*
X1478300Y211840D01*
X1476819Y204340D01*
X1476080Y196740D01*
X1476080Y189100D01*
X1476819Y181500D01*
X1478300Y174000D01*
X1480480Y166660D01*
X1483360Y159580D01*
X1486920Y152820D01*
X1491100Y146420D01*
X1495880Y140480D01*
X1501220Y135000D01*
X1507060Y130079D01*
X1513360Y125740D01*
X1520040Y122020D01*
X1527040Y118960D01*
X1534319Y116600D01*
X1541780Y114960D01*
X1549360Y114040D01*
G37*
G36*
X2013839Y301520D02*
G01*
X2018820Y302040D01*
X2023700Y303240D01*
X2028340Y305120D01*
X2032680Y307640D01*
X2036639Y310720D01*
X2040120Y314320D01*
X2043060Y318380D01*
X2045420Y322819D01*
X2047140Y327520D01*
X2048180Y332420D01*
X2048520Y337440D01*
X2048180Y342440D01*
X2047140Y347340D01*
X2045420Y352040D01*
X2043060Y356480D01*
X2040120Y360540D01*
X2036639Y364140D01*
X2032680Y367220D01*
X2028340Y369739D01*
X2023700Y371620D01*
X2018820Y372819D01*
X2013839Y373340D01*
X2008839Y373180D01*
X2003899Y372299D01*
X1999120Y370760D01*
X1994620Y368560D01*
X1990460Y365760D01*
X1986740Y362400D01*
X1983520Y358560D01*
X1980860Y354300D01*
X1978820Y349720D01*
X1977440Y344900D01*
X1976740Y339940D01*
X1976740Y334920D01*
X1977440Y329960D01*
X1978820Y325140D01*
X1980860Y320560D01*
X1983520Y316300D01*
X1986740Y312460D01*
X1990460Y309100D01*
X1994620Y306300D01*
X1999120Y304100D01*
X2003899Y302560D01*
X2008839Y301680D01*
G37*
G36*
X1098940Y301520D02*
G01*
X1103920Y302040D01*
X1108800Y303240D01*
X1113440Y305120D01*
X1117780Y307640D01*
X1121740Y310720D01*
X1125220Y314320D01*
X1128160Y318380D01*
X1130520Y322819D01*
X1132240Y327520D01*
X1133280Y332420D01*
X1133620Y337440D01*
X1133280Y342440D01*
X1132240Y347340D01*
X1130520Y352040D01*
X1128160Y356480D01*
X1125220Y360540D01*
X1121740Y364140D01*
X1117780Y367220D01*
X1113440Y369739D01*
X1108800Y371620D01*
X1103920Y372819D01*
X1098940Y373340D01*
X1093940Y373180D01*
X1089000Y372299D01*
X1084220Y370760D01*
X1079720Y368560D01*
X1075560Y365760D01*
X1071840Y362400D01*
X1068620Y358560D01*
X1065960Y354300D01*
X1063920Y349720D01*
X1062540Y344900D01*
X1061840Y339940D01*
X1061840Y334920D01*
X1062540Y329960D01*
X1063920Y325140D01*
X1065960Y320560D01*
X1068620Y316300D01*
X1071840Y312460D01*
X1075560Y309100D01*
X1079720Y306300D01*
X1084220Y304100D01*
X1089000Y302560D01*
X1093940Y301680D01*
G37*
G36*
X793439Y301520D02*
G01*
X798420Y302040D01*
X803300Y303240D01*
X807940Y305120D01*
X812280Y307640D01*
X816240Y310720D01*
X819720Y314320D01*
X822440Y318080D01*
X823340Y318960D01*
X824440Y319540D01*
X825680Y319740D01*
X977020Y319740D01*
X980380Y320220D01*
X983480Y321260D01*
X986340Y322840D01*
X988980Y325040D01*
X1465860Y801919D01*
X1466680Y802560D01*
X1467660Y802960D01*
X1471279Y803920D01*
X1474780Y805560D01*
X1477960Y807780D01*
X1480700Y810520D01*
X1482920Y813680D01*
X1484540Y817200D01*
X1485540Y820920D01*
X1485880Y824780D01*
X1485540Y828640D01*
X1484540Y832380D01*
X1482920Y835879D01*
X1480700Y839040D01*
X1477960Y841780D01*
X1474780Y844000D01*
X1471279Y845639D01*
X1467540Y846640D01*
X1463700Y846979D01*
X1459840Y846640D01*
X1456100Y845639D01*
X1452600Y844000D01*
X1449420Y841780D01*
X1446699Y839040D01*
X1444480Y835879D01*
X1442840Y832380D01*
X1441860Y828740D01*
X1441459Y827780D01*
X1440820Y826960D01*
X970180Y356300D01*
X968880Y355439D01*
X967360Y355140D01*
X825680Y355140D01*
X824440Y355319D01*
X823340Y355900D01*
X822440Y356780D01*
X819720Y360540D01*
X816240Y364140D01*
X812280Y367220D01*
X807940Y369739D01*
X803300Y371620D01*
X798420Y372819D01*
X793439Y373340D01*
X788439Y373180D01*
X783500Y372299D01*
X778720Y370760D01*
X774220Y368560D01*
X770060Y365760D01*
X766340Y362400D01*
X763120Y358560D01*
X760460Y354300D01*
X758420Y349720D01*
X757039Y344900D01*
X756340Y339940D01*
X756340Y334920D01*
X757039Y329960D01*
X758420Y325140D01*
X760460Y320560D01*
X763120Y316300D01*
X766340Y312460D01*
X770060Y309100D01*
X774220Y306300D01*
X778720Y304100D01*
X783500Y302560D01*
X788439Y301680D01*
G37*
G36*
X2319340Y301520D02*
G01*
X2324320Y302040D01*
X2329200Y303240D01*
X2333840Y305120D01*
X2338180Y307640D01*
X2342140Y310720D01*
X2345620Y314320D01*
X2348560Y318380D01*
X2350920Y322819D01*
X2352640Y327520D01*
X2353680Y332420D01*
X2354020Y337440D01*
X2353680Y342440D01*
X2352640Y347340D01*
X2350920Y352040D01*
X2348560Y356480D01*
X2345620Y360540D01*
X2342140Y364140D01*
X2338180Y367220D01*
X2333840Y369739D01*
X2329200Y371620D01*
X2324320Y372819D01*
X2319340Y373340D01*
X2314340Y373180D01*
X2309400Y372299D01*
X2304620Y370760D01*
X2300120Y368560D01*
X2295960Y365760D01*
X2292240Y362400D01*
X2289020Y358560D01*
X2288400Y357560D01*
X2287420Y356500D01*
X2286160Y355860D01*
X2284740Y355700D01*
X2283340Y356040D01*
X2282180Y356860D01*
X1956420Y682600D01*
X1955500Y684040D01*
X1955260Y685720D01*
X1955740Y687360D01*
X1956860Y688640D01*
X1958400Y689340D01*
X1960100Y689340D01*
X1961660Y688620D01*
X1962420Y688060D01*
X1965340Y686600D01*
X1968480Y685699D01*
X1971900Y685400D01*
X2625460Y685400D01*
X2628840Y685879D01*
X2631940Y686919D01*
X2634780Y688500D01*
X2637440Y690699D01*
X2646060Y699340D01*
X2648100Y702060D01*
X2649560Y704980D01*
X2650460Y708120D01*
X2650779Y711560D01*
X2650760Y2134540D01*
X2650280Y2137920D01*
X2649240Y2141020D01*
X2647660Y2143860D01*
X2645460Y2146520D01*
X2631840Y2160120D01*
X2631019Y2161340D01*
X2630680Y2162780D01*
X2630880Y2164240D01*
X2631220Y2165200D01*
X2632280Y2170540D01*
X2632640Y2175980D01*
X2632280Y2181420D01*
X2631220Y2186780D01*
X2629460Y2191940D01*
X2627040Y2196820D01*
X2624020Y2201360D01*
X2620419Y2205460D01*
X2616320Y2209060D01*
X2611780Y2212080D01*
X2606900Y2214500D01*
X2601740Y2216260D01*
X2596380Y2217320D01*
X2590940Y2217680D01*
X2585500Y2217320D01*
X2580160Y2216260D01*
X2575000Y2214500D01*
X2570100Y2212080D01*
X2565560Y2209060D01*
X2561460Y2205460D01*
X2557880Y2201360D01*
X2554840Y2196820D01*
X2552440Y2191940D01*
X2550680Y2186780D01*
X2549620Y2181420D01*
X2549260Y2175980D01*
X2549620Y2170540D01*
X2550680Y2165200D01*
X2552440Y2160040D01*
X2554840Y2155140D01*
X2557880Y2150600D01*
X2561460Y2146500D01*
X2565560Y2142920D01*
X2570100Y2139880D01*
X2575000Y2137460D01*
X2580160Y2135720D01*
X2585500Y2134660D01*
X2590940Y2134300D01*
X2596380Y2134660D01*
X2601740Y2135720D01*
X2602700Y2136040D01*
X2604160Y2136260D01*
X2605600Y2135920D01*
X2606820Y2135080D01*
X2614200Y2127720D01*
X2615059Y2126420D01*
X2615380Y2124880D01*
X2615380Y1154920D01*
X2615020Y1153280D01*
X2614000Y1151920D01*
X2612520Y1151100D01*
X2610820Y1150960D01*
X2609240Y1151540D01*
X2608020Y1152740D01*
X2607420Y1154320D01*
X2607180Y1155900D01*
X2605360Y1162800D01*
X2602840Y1169460D01*
X2599660Y1175840D01*
X2595820Y1181860D01*
X2591400Y1187460D01*
X2586420Y1192560D01*
X2580960Y1197120D01*
X2575040Y1201100D01*
X2568740Y1204460D01*
X2562140Y1207140D01*
X2555300Y1209140D01*
X2548280Y1210420D01*
X2541180Y1210960D01*
X2534040Y1210780D01*
X2526980Y1209860D01*
X2520040Y1208220D01*
X2513300Y1205880D01*
X2506840Y1202860D01*
X2500740Y1199200D01*
X2495040Y1194920D01*
X2489800Y1190060D01*
X2485100Y1184720D01*
X2480960Y1178900D01*
X2477460Y1172700D01*
X2474600Y1166160D01*
X2472420Y1159380D01*
X2470980Y1152400D01*
X2470240Y1145300D01*
X2470240Y1138180D01*
X2470980Y1131080D01*
X2472420Y1124100D01*
X2474600Y1117320D01*
X2477460Y1110780D01*
X2480960Y1104580D01*
X2485100Y1098760D01*
X2489800Y1093420D01*
X2495040Y1088560D01*
X2500740Y1084280D01*
X2506840Y1080620D01*
X2513300Y1077600D01*
X2520040Y1075260D01*
X2526980Y1073620D01*
X2534040Y1072700D01*
X2541180Y1072520D01*
X2548280Y1073060D01*
X2555300Y1074340D01*
X2562140Y1076340D01*
X2568740Y1079020D01*
X2575040Y1082380D01*
X2580960Y1086360D01*
X2586420Y1090920D01*
X2591400Y1096020D01*
X2595820Y1101620D01*
X2599660Y1107640D01*
X2602840Y1114020D01*
X2605360Y1120680D01*
X2607180Y1127580D01*
X2607420Y1129160D01*
X2608020Y1130740D01*
X2609240Y1131940D01*
X2610820Y1132520D01*
X2612520Y1132380D01*
X2614000Y1131560D01*
X2615020Y1130200D01*
X2615380Y1128560D01*
X2615380Y777880D01*
X2615020Y776260D01*
X2614040Y774900D01*
X2612580Y774080D01*
X2610920Y773920D01*
X2608639Y774180D01*
X2604460Y774180D01*
X2604460Y755639D01*
X2611380Y755639D01*
X2612900Y755340D01*
X2614200Y754479D01*
X2615059Y753180D01*
X2615380Y751640D01*
X2615380Y733000D01*
X2615059Y731460D01*
X2614200Y730160D01*
X2612900Y729300D01*
X2611380Y729000D01*
X2604460Y729000D01*
X2604460Y724800D01*
X2604160Y723259D01*
X2603300Y721960D01*
X2602000Y721100D01*
X2600460Y720800D01*
X2589700Y720800D01*
X2588159Y721100D01*
X2586860Y721960D01*
X2586000Y723259D01*
X2585700Y724800D01*
X2585700Y729000D01*
X2571100Y729000D01*
X2571100Y724800D01*
X2570800Y723259D01*
X2569920Y721960D01*
X2568639Y721100D01*
X2567100Y720800D01*
X2551020Y720800D01*
X2549480Y721100D01*
X2548200Y721960D01*
X2547320Y723259D01*
X2547020Y724800D01*
X2547020Y763760D01*
X2546740Y766240D01*
X2545980Y768400D01*
X2544780Y770320D01*
X2543160Y771940D01*
X2541240Y773139D01*
X2539080Y773900D01*
X2536600Y774180D01*
X2509480Y774180D01*
X2507000Y773900D01*
X2504840Y773139D01*
X2502920Y771940D01*
X2501300Y770320D01*
X2500100Y768400D01*
X2499340Y766240D01*
X2499060Y763760D01*
X2499060Y724800D01*
X2498760Y723259D01*
X2497880Y721960D01*
X2496600Y721100D01*
X2495060Y720800D01*
X2032500Y720800D01*
X2030980Y721100D01*
X2029680Y721960D01*
X2028820Y723259D01*
X2028500Y724800D01*
X2028500Y729000D01*
X2013920Y729000D01*
X2013920Y724800D01*
X2013620Y723259D01*
X2012740Y721960D01*
X2011459Y721100D01*
X2009920Y720800D01*
X1999139Y720800D01*
X1997600Y721100D01*
X1996320Y721960D01*
X1995440Y723259D01*
X1995140Y724800D01*
X1995140Y729000D01*
X1980560Y729000D01*
X1980240Y727420D01*
X1979379Y726120D01*
X1978080Y725260D01*
X1976560Y724940D01*
X1975020Y725260D01*
X1973720Y726120D01*
X1957640Y742200D01*
X1956780Y743500D01*
X1956459Y745040D01*
X1956459Y763760D01*
X1956180Y766240D01*
X1955440Y768400D01*
X1954220Y770320D01*
X1952620Y771940D01*
X1950680Y773139D01*
X1948540Y773900D01*
X1946040Y774180D01*
X1918940Y774180D01*
X1916440Y773900D01*
X1914300Y773139D01*
X1912360Y771940D01*
X1910760Y770320D01*
X1909540Y768400D01*
X1908800Y766240D01*
X1908520Y763760D01*
X1908520Y740160D01*
X1908200Y738640D01*
X1907340Y737340D01*
X1906040Y736480D01*
X1904520Y736160D01*
X1902980Y736480D01*
X1901680Y737340D01*
X1718680Y920360D01*
X1717800Y921640D01*
X1717500Y923180D01*
X1717500Y1561339D01*
X1717680Y1562540D01*
X1718220Y1563620D01*
X1719019Y1564760D01*
X1720660Y1568280D01*
X1721660Y1572000D01*
X1722000Y1575860D01*
X1721660Y1579720D01*
X1720660Y1583460D01*
X1719019Y1586960D01*
X1716800Y1590120D01*
X1714060Y1592860D01*
X1710900Y1595080D01*
X1707400Y1596720D01*
X1703660Y1597720D01*
X1699800Y1598060D01*
X1695940Y1597720D01*
X1692220Y1596720D01*
X1688700Y1595080D01*
X1685540Y1592860D01*
X1682800Y1590120D01*
X1680580Y1586960D01*
X1678940Y1583460D01*
X1677940Y1579720D01*
X1677600Y1575860D01*
X1677940Y1572000D01*
X1678940Y1568280D01*
X1680580Y1564760D01*
X1681380Y1563620D01*
X1681920Y1562540D01*
X1682100Y1561339D01*
X1682120Y913520D01*
X1682580Y910140D01*
X1683620Y907039D01*
X1685220Y904200D01*
X1687420Y901540D01*
X2264540Y324440D01*
X2267260Y322400D01*
X2270180Y320940D01*
X2273320Y320040D01*
X2276740Y319740D01*
X2284660Y319740D01*
X2285980Y319500D01*
X2287160Y318860D01*
X2288040Y317860D01*
X2289020Y316300D01*
X2292240Y312460D01*
X2295960Y309100D01*
X2300120Y306300D01*
X2304620Y304100D01*
X2309400Y302560D01*
X2314340Y301680D01*
G37*
G36*
X1183580Y659120D02*
G01*
X1193520Y659700D01*
X1203380Y661040D01*
X1213100Y663139D01*
X1222620Y666000D01*
X1231900Y669580D01*
X1240880Y673880D01*
X1249500Y678860D01*
X1257700Y684479D01*
X1265460Y690720D01*
X1272700Y697560D01*
X1279380Y704920D01*
X1285480Y712800D01*
X1290940Y721100D01*
X1295740Y729820D01*
X1299860Y738880D01*
X1303280Y748220D01*
X1305940Y757820D01*
X1307860Y767580D01*
X1309019Y777460D01*
X1309400Y787400D01*
X1309019Y797340D01*
X1307860Y807220D01*
X1305940Y816979D01*
X1303280Y826580D01*
X1299860Y835920D01*
X1295740Y844980D01*
X1290940Y853700D01*
X1285480Y862000D01*
X1279380Y869880D01*
X1272700Y877240D01*
X1265460Y884080D01*
X1257700Y890320D01*
X1249500Y895939D01*
X1240880Y900920D01*
X1231900Y905220D01*
X1222620Y908800D01*
X1213100Y911660D01*
X1203380Y913760D01*
X1193520Y915100D01*
X1183580Y915680D01*
X1173620Y915480D01*
X1163720Y914520D01*
X1153920Y912800D01*
X1144300Y910320D01*
X1134880Y907099D01*
X1125740Y903160D01*
X1116940Y898520D01*
X1108520Y893220D01*
X1100540Y887260D01*
X1093040Y880720D01*
X1086080Y873620D01*
X1079680Y866000D01*
X1073900Y857900D01*
X1068740Y849380D01*
X1064280Y840500D01*
X1060520Y831280D01*
X1057480Y821800D01*
X1055180Y812120D01*
X1053660Y802300D01*
X1052880Y792380D01*
X1052880Y782420D01*
X1053660Y772500D01*
X1055180Y762680D01*
X1057480Y753000D01*
X1060520Y743520D01*
X1064280Y734300D01*
X1068740Y725420D01*
X1073900Y716900D01*
X1079680Y708800D01*
X1086080Y701180D01*
X1093040Y694080D01*
X1100540Y687540D01*
X1108520Y681580D01*
X1116940Y676280D01*
X1125740Y671640D01*
X1134880Y667700D01*
X1144300Y664479D01*
X1153920Y662000D01*
X1163720Y660280D01*
X1173620Y659320D01*
G37*
G36*
X2571100Y755639D02*
G01*
X2585700Y755639D01*
X2585700Y774180D01*
X2581520Y774180D01*
X2579040Y773900D01*
X2576880Y773139D01*
X2574960Y771919D01*
X2573340Y770320D01*
X2572140Y768379D01*
X2571380Y766240D01*
X2571100Y763740D01*
G37*
G36*
X2013920Y755639D02*
G01*
X2028500Y755639D01*
X2028500Y763740D01*
X2028220Y766240D01*
X2027480Y768379D01*
X2026260Y770320D01*
X2024660Y771919D01*
X2022720Y773139D01*
X2020580Y773900D01*
X2018080Y774180D01*
X2013920Y774180D01*
G37*
G36*
X1980560Y755639D02*
G01*
X1995140Y755639D01*
X1995140Y774180D01*
X1990980Y774180D01*
X1988480Y773900D01*
X1986339Y773139D01*
X1984400Y771919D01*
X1982800Y770320D01*
X1981579Y768379D01*
X1980840Y766240D01*
X1980560Y763740D01*
G37*
G36*
X1954960Y800620D02*
G01*
X1982060Y800620D01*
X1984560Y800900D01*
X1986699Y801660D01*
X1988640Y802880D01*
X1990240Y804479D01*
X1991459Y806420D01*
X1992200Y808560D01*
X1992480Y811060D01*
X1992480Y853900D01*
X1992200Y856400D01*
X1991459Y858540D01*
X1990240Y860480D01*
X1988640Y862080D01*
X1987080Y863319D01*
X1986440Y864500D01*
X1986220Y865819D01*
X1986220Y888500D01*
X1986519Y890020D01*
X1987380Y891320D01*
X2103360Y1007280D01*
X2104180Y1007920D01*
X2105140Y1008319D01*
X2108780Y1009300D01*
X2112280Y1010939D01*
X2115440Y1013160D01*
X2118180Y1015879D01*
X2120400Y1019060D01*
X2122040Y1022560D01*
X2123040Y1026300D01*
X2123380Y1030160D01*
X2123040Y1034000D01*
X2122040Y1037740D01*
X2120400Y1041240D01*
X2118180Y1044419D01*
X2115440Y1047159D01*
X2112280Y1049380D01*
X2108780Y1051000D01*
X2105040Y1052000D01*
X2101180Y1052340D01*
X2097320Y1052000D01*
X2093600Y1051000D01*
X2090080Y1049380D01*
X2086920Y1047159D01*
X2084180Y1044419D01*
X2081960Y1041240D01*
X2080320Y1037740D01*
X2079360Y1034120D01*
X2078959Y1033139D01*
X2078320Y1032320D01*
X1955520Y909500D01*
X1953480Y906780D01*
X1952020Y903860D01*
X1951120Y900740D01*
X1950820Y897300D01*
X1950820Y865819D01*
X1950580Y864500D01*
X1949940Y863319D01*
X1948380Y862080D01*
X1946780Y860480D01*
X1945560Y858540D01*
X1944820Y856400D01*
X1944540Y853900D01*
X1944540Y811060D01*
X1944820Y808560D01*
X1945560Y806420D01*
X1946780Y804479D01*
X1948380Y802880D01*
X1950320Y801660D01*
X1952460Y800900D01*
G37*
G36*
X2545500Y800620D02*
G01*
X2572620Y800620D01*
X2575100Y800900D01*
X2577260Y801660D01*
X2579180Y802880D01*
X2580800Y804479D01*
X2582000Y806420D01*
X2582760Y808560D01*
X2583039Y811060D01*
X2583039Y853900D01*
X2582760Y856400D01*
X2582000Y858540D01*
X2580800Y860480D01*
X2579180Y862080D01*
X2577640Y863319D01*
X2576980Y864500D01*
X2576760Y865800D01*
X2576740Y872360D01*
X2576280Y875699D01*
X2575240Y878800D01*
X2573639Y881640D01*
X2571440Y884300D01*
X2397540Y1058220D01*
X2396660Y1059500D01*
X2396360Y1061040D01*
X2396340Y2533820D01*
X2395880Y2537200D01*
X2394840Y2540300D01*
X2393240Y2543140D01*
X2391040Y2545800D01*
X2220060Y2716800D01*
X2219180Y2718080D01*
X2218880Y2719620D01*
X2218880Y3059100D01*
X2219160Y3060560D01*
X2219940Y3061800D01*
X2221120Y3062679D01*
X2222020Y3063140D01*
X2226560Y3066180D01*
X2230660Y3069760D01*
X2234260Y3073860D01*
X2237280Y3078399D01*
X2239700Y3083279D01*
X2241460Y3088460D01*
X2242520Y3093800D01*
X2242880Y3099240D01*
X2242520Y3104680D01*
X2241460Y3110040D01*
X2239700Y3115200D01*
X2237280Y3120080D01*
X2234260Y3124620D01*
X2230660Y3128720D01*
X2226560Y3132320D01*
X2222020Y3135340D01*
X2217140Y3137760D01*
X2211980Y3139500D01*
X2206620Y3140580D01*
X2201180Y3140940D01*
X2195740Y3140580D01*
X2190400Y3139500D01*
X2185220Y3137760D01*
X2180340Y3135340D01*
X2175800Y3132320D01*
X2171700Y3128720D01*
X2168120Y3124620D01*
X2165080Y3120080D01*
X2162660Y3115200D01*
X2160920Y3110040D01*
X2159860Y3104680D01*
X2159500Y3099240D01*
X2159860Y3093800D01*
X2160920Y3088460D01*
X2162660Y3083279D01*
X2165080Y3078399D01*
X2168120Y3073860D01*
X2171700Y3069760D01*
X2175800Y3066180D01*
X2180340Y3063140D01*
X2181260Y3062700D01*
X2182440Y3061800D01*
X2183200Y3060560D01*
X2183480Y3059100D01*
X2183500Y2709960D01*
X2183960Y2706580D01*
X2185000Y2703480D01*
X2186600Y2700640D01*
X2188800Y2697980D01*
X2359780Y2527000D01*
X2360660Y2525700D01*
X2360960Y2524160D01*
X2360960Y2123140D01*
X2360640Y2121580D01*
X2359740Y2120260D01*
X2358400Y2119400D01*
X2356820Y2119140D01*
X2355280Y2119520D01*
X2353920Y2120140D01*
X2350180Y2121140D01*
X2346320Y2121480D01*
X2342460Y2121140D01*
X2338740Y2120140D01*
X2335220Y2118520D01*
X2332060Y2116300D01*
X2329320Y2113560D01*
X2327100Y2110380D01*
X2325460Y2106880D01*
X2324500Y2103260D01*
X2324100Y2102280D01*
X2322820Y2100820D01*
X2321520Y2099940D01*
X2319980Y2099640D01*
X1582260Y2099640D01*
X1581060Y2099820D01*
X1579980Y2100360D01*
X1578839Y2101160D01*
X1575340Y2102800D01*
X1571600Y2103800D01*
X1567740Y2104140D01*
X1563880Y2103800D01*
X1560160Y2102800D01*
X1556639Y2101160D01*
X1553480Y2098940D01*
X1550740Y2096200D01*
X1548520Y2093040D01*
X1546879Y2089540D01*
X1545880Y2085800D01*
X1545540Y2081940D01*
X1545880Y2078080D01*
X1546879Y2074360D01*
X1548520Y2070840D01*
X1550740Y2067680D01*
X1553480Y2064940D01*
X1556639Y2062720D01*
X1560160Y2061080D01*
X1563880Y2060080D01*
X1567740Y2059740D01*
X1571600Y2060080D01*
X1575340Y2061080D01*
X1578839Y2062720D01*
X1579980Y2063520D01*
X1581060Y2064060D01*
X1582260Y2064240D01*
X2329640Y2064259D01*
X2333020Y2064720D01*
X2336120Y2065760D01*
X2338960Y2067360D01*
X2341620Y2069560D01*
X2348500Y2076420D01*
X2349320Y2077060D01*
X2350280Y2077460D01*
X2353920Y2078440D01*
X2355280Y2079079D01*
X2356820Y2079440D01*
X2358400Y2079180D01*
X2359740Y2078320D01*
X2360640Y2077000D01*
X2360960Y2075440D01*
X2360960Y1246220D01*
X2360620Y1244600D01*
X2359640Y1243260D01*
X2358200Y1242420D01*
X2356540Y1242260D01*
X2354960Y1242760D01*
X2353720Y1243880D01*
X2353040Y1245400D01*
X2352640Y1247340D01*
X2350920Y1252040D01*
X2348560Y1256480D01*
X2345620Y1260540D01*
X2342140Y1264140D01*
X2338180Y1267220D01*
X2333840Y1269740D01*
X2329200Y1271620D01*
X2324320Y1272820D01*
X2319340Y1273340D01*
X2314340Y1273180D01*
X2310480Y1272500D01*
X2309200Y1272480D01*
X2307980Y1272860D01*
X2306940Y1273600D01*
X1680180Y1900360D01*
X1677460Y1902400D01*
X1674540Y1903860D01*
X1671399Y1904760D01*
X1667960Y1905080D01*
X1614319Y1905080D01*
X1613120Y1905260D01*
X1612040Y1905800D01*
X1610900Y1906600D01*
X1607400Y1908220D01*
X1603660Y1909220D01*
X1599800Y1909560D01*
X1595940Y1909220D01*
X1592220Y1908220D01*
X1588700Y1906600D01*
X1585540Y1904379D01*
X1582800Y1901639D01*
X1580580Y1898460D01*
X1578940Y1894960D01*
X1577940Y1891220D01*
X1577600Y1887380D01*
X1577940Y1883520D01*
X1578940Y1879780D01*
X1580580Y1876279D01*
X1582800Y1873100D01*
X1585540Y1870380D01*
X1588700Y1868160D01*
X1592220Y1866519D01*
X1595940Y1865520D01*
X1599800Y1865180D01*
X1603660Y1865520D01*
X1607400Y1866519D01*
X1610900Y1868160D01*
X1612040Y1868940D01*
X1613120Y1869480D01*
X1614319Y1869680D01*
X1659160Y1869680D01*
X1660700Y1869360D01*
X1662000Y1868500D01*
X2281860Y1248640D01*
X2282580Y1247640D01*
X2282980Y1246480D01*
X2283000Y1245240D01*
X2282240Y1239940D01*
X2282240Y1234920D01*
X2282940Y1229960D01*
X2284320Y1225140D01*
X2286360Y1220560D01*
X2289020Y1216300D01*
X2292240Y1212460D01*
X2295960Y1209100D01*
X2300120Y1206300D01*
X2304620Y1204100D01*
X2309400Y1202560D01*
X2314340Y1201680D01*
X2319340Y1201520D01*
X2324320Y1202040D01*
X2329200Y1203240D01*
X2333840Y1205120D01*
X2338180Y1207640D01*
X2342140Y1210720D01*
X2345620Y1214320D01*
X2348560Y1218380D01*
X2350920Y1222820D01*
X2352640Y1227520D01*
X2353040Y1229460D01*
X2353720Y1230980D01*
X2354960Y1232100D01*
X2356540Y1232620D01*
X2358200Y1232440D01*
X2359640Y1231600D01*
X2360620Y1230260D01*
X2360960Y1228640D01*
X2360980Y1051380D01*
X2361440Y1048000D01*
X2362480Y1044900D01*
X2364080Y1042060D01*
X2366280Y1039400D01*
X2538440Y867240D01*
X2539300Y865939D01*
X2539600Y864419D01*
X2539300Y862880D01*
X2538440Y861580D01*
X2537320Y860480D01*
X2536120Y858540D01*
X2535360Y856400D01*
X2535080Y853900D01*
X2535080Y811060D01*
X2535360Y808560D01*
X2536120Y806420D01*
X2537320Y804479D01*
X2538940Y802880D01*
X2540860Y801660D01*
X2543020Y800900D01*
G37*
G36*
X572680Y1072520D02*
G01*
X579780Y1073060D01*
X586800Y1074340D01*
X593640Y1076340D01*
X600240Y1079020D01*
X606540Y1082380D01*
X612460Y1086360D01*
X617920Y1090920D01*
X622900Y1096020D01*
X627320Y1101620D01*
X631160Y1107640D01*
X634340Y1114020D01*
X636860Y1120680D01*
X638680Y1127580D01*
X639760Y1134620D01*
X640140Y1141740D01*
X639760Y1148860D01*
X638680Y1155900D01*
X636860Y1162800D01*
X634340Y1169460D01*
X631160Y1175840D01*
X627320Y1181860D01*
X622900Y1187460D01*
X617920Y1192560D01*
X612460Y1197120D01*
X606540Y1201100D01*
X600240Y1204460D01*
X593640Y1207140D01*
X586800Y1209140D01*
X579780Y1210420D01*
X572680Y1210960D01*
X565540Y1210780D01*
X558480Y1209860D01*
X551540Y1208220D01*
X544800Y1205880D01*
X538340Y1202860D01*
X532240Y1199200D01*
X526540Y1194920D01*
X521300Y1190060D01*
X516599Y1184720D01*
X512460Y1178900D01*
X508960Y1172700D01*
X506100Y1166160D01*
X503920Y1159380D01*
X502480Y1152400D01*
X501740Y1145300D01*
X501740Y1138180D01*
X502480Y1131080D01*
X503920Y1124100D01*
X506100Y1117320D01*
X508960Y1110780D01*
X512460Y1104580D01*
X516599Y1098760D01*
X521300Y1093420D01*
X526540Y1088560D01*
X532240Y1084280D01*
X538340Y1080620D01*
X544800Y1077600D01*
X551540Y1075260D01*
X558480Y1073620D01*
X565540Y1072700D01*
G37*
G36*
X1098940Y1201520D02*
G01*
X1103920Y1202040D01*
X1108800Y1203240D01*
X1113440Y1205120D01*
X1117780Y1207640D01*
X1121740Y1210720D01*
X1125220Y1214320D01*
X1128160Y1218380D01*
X1130520Y1222820D01*
X1132240Y1227520D01*
X1133280Y1232420D01*
X1133620Y1237440D01*
X1133280Y1242440D01*
X1132240Y1247340D01*
X1130520Y1252040D01*
X1128160Y1256480D01*
X1125220Y1260540D01*
X1121740Y1264140D01*
X1117780Y1267220D01*
X1113440Y1269740D01*
X1108800Y1271620D01*
X1103920Y1272820D01*
X1098940Y1273340D01*
X1093940Y1273180D01*
X1089000Y1272300D01*
X1084220Y1270760D01*
X1079720Y1268560D01*
X1075560Y1265760D01*
X1071840Y1262400D01*
X1068620Y1258560D01*
X1065960Y1254300D01*
X1063920Y1249720D01*
X1062540Y1244900D01*
X1061840Y1239940D01*
X1061840Y1234920D01*
X1062540Y1229960D01*
X1063920Y1225140D01*
X1065960Y1220560D01*
X1068620Y1216300D01*
X1071840Y1212460D01*
X1075560Y1209100D01*
X1079720Y1206300D01*
X1084220Y1204100D01*
X1089000Y1202560D01*
X1093940Y1201680D01*
G37*
G36*
X2013839Y1201520D02*
G01*
X2018820Y1202040D01*
X2023700Y1203240D01*
X2028340Y1205120D01*
X2032680Y1207640D01*
X2036639Y1210720D01*
X2040120Y1214320D01*
X2043060Y1218380D01*
X2045420Y1222820D01*
X2047140Y1227520D01*
X2048180Y1232420D01*
X2048520Y1237440D01*
X2048180Y1242440D01*
X2047140Y1247340D01*
X2045420Y1252040D01*
X2043060Y1256480D01*
X2040120Y1260540D01*
X2036639Y1264140D01*
X2032680Y1267220D01*
X2028340Y1269740D01*
X2023700Y1271620D01*
X2018820Y1272820D01*
X2013839Y1273340D01*
X2008839Y1273180D01*
X2003899Y1272300D01*
X1999120Y1270760D01*
X1994620Y1268560D01*
X1990460Y1265760D01*
X1986740Y1262400D01*
X1983520Y1258560D01*
X1980860Y1254300D01*
X1978820Y1249720D01*
X1977440Y1244900D01*
X1976740Y1239940D01*
X1976740Y1234920D01*
X1977440Y1229960D01*
X1978820Y1225140D01*
X1980860Y1220560D01*
X1983520Y1216300D01*
X1986740Y1212460D01*
X1990460Y1209100D01*
X1994620Y1206300D01*
X1999120Y1204100D01*
X2003899Y1202560D01*
X2008839Y1201680D01*
G37*
G36*
X793439Y1201520D02*
G01*
X798420Y1202040D01*
X803300Y1203240D01*
X807940Y1205120D01*
X812280Y1207640D01*
X816240Y1210720D01*
X819720Y1214320D01*
X822660Y1218380D01*
X825020Y1222820D01*
X826740Y1227520D01*
X827780Y1232420D01*
X828120Y1237440D01*
X827780Y1242440D01*
X827260Y1244880D01*
X827200Y1246200D01*
X827580Y1247480D01*
X828340Y1248540D01*
X1112760Y1532960D01*
X1114060Y1533839D01*
X1115580Y1534139D01*
X1435280Y1534139D01*
X1436480Y1533959D01*
X1437560Y1533420D01*
X1438700Y1532620D01*
X1442220Y1530980D01*
X1445940Y1529980D01*
X1449800Y1529640D01*
X1453660Y1529980D01*
X1457400Y1530980D01*
X1460900Y1532620D01*
X1464060Y1534840D01*
X1466800Y1537580D01*
X1469019Y1540740D01*
X1470660Y1544259D01*
X1471660Y1547980D01*
X1472000Y1551840D01*
X1471660Y1555700D01*
X1470660Y1559440D01*
X1469019Y1562940D01*
X1466800Y1566100D01*
X1464060Y1568839D01*
X1460900Y1571060D01*
X1457400Y1572700D01*
X1453660Y1573700D01*
X1449800Y1574040D01*
X1445940Y1573700D01*
X1442220Y1572700D01*
X1438700Y1571060D01*
X1437560Y1570260D01*
X1436480Y1569720D01*
X1435280Y1569540D01*
X1105920Y1569520D01*
X1102560Y1569060D01*
X1099460Y1568020D01*
X1096600Y1566420D01*
X1093960Y1564220D01*
X803340Y1273600D01*
X802220Y1272820D01*
X800900Y1272460D01*
X799539Y1272540D01*
X798420Y1272820D01*
X793439Y1273340D01*
X788439Y1273180D01*
X783500Y1272300D01*
X778720Y1270760D01*
X774220Y1268560D01*
X770060Y1265760D01*
X766340Y1262400D01*
X763120Y1258560D01*
X760460Y1254300D01*
X758420Y1249720D01*
X757039Y1244900D01*
X756340Y1239940D01*
X756340Y1234920D01*
X757039Y1229960D01*
X758420Y1225140D01*
X760460Y1220560D01*
X763120Y1216300D01*
X766340Y1212460D01*
X770060Y1209100D01*
X774220Y1206300D01*
X778720Y1204100D01*
X783500Y1202560D01*
X788439Y1201680D01*
G37*
G36*
X1557000Y1302860D02*
G01*
X1564620Y1303420D01*
X1572160Y1304700D01*
X1579540Y1306699D01*
X1586680Y1309420D01*
X1593520Y1312800D01*
X1600020Y1316840D01*
X1606100Y1321480D01*
X1611699Y1326680D01*
X1616759Y1332400D01*
X1621260Y1338580D01*
X1625120Y1345180D01*
X1628340Y1352100D01*
X1630880Y1359319D01*
X1632720Y1366740D01*
X1633820Y1374300D01*
X1634180Y1381920D01*
X1633820Y1389560D01*
X1632720Y1397120D01*
X1630880Y1404540D01*
X1628340Y1411759D01*
X1625120Y1418680D01*
X1621260Y1425280D01*
X1616759Y1431459D01*
X1611699Y1437180D01*
X1606100Y1442380D01*
X1600020Y1447020D01*
X1593520Y1451060D01*
X1586680Y1454440D01*
X1579540Y1457160D01*
X1572160Y1459160D01*
X1564620Y1460440D01*
X1557000Y1461000D01*
X1549360Y1460820D01*
X1541780Y1459900D01*
X1534319Y1458240D01*
X1527040Y1455880D01*
X1520040Y1452840D01*
X1513360Y1449120D01*
X1507060Y1444780D01*
X1501220Y1439840D01*
X1495880Y1434379D01*
X1491100Y1428420D01*
X1486920Y1422020D01*
X1483360Y1415260D01*
X1480480Y1408180D01*
X1478300Y1400860D01*
X1476819Y1393360D01*
X1476080Y1385760D01*
X1476080Y1378100D01*
X1476819Y1370500D01*
X1478300Y1363000D01*
X1480480Y1355680D01*
X1483360Y1348600D01*
X1486920Y1341840D01*
X1491100Y1335440D01*
X1495880Y1329480D01*
X1501220Y1324019D01*
X1507060Y1319079D01*
X1513360Y1314740D01*
X1520040Y1311020D01*
X1527040Y1307980D01*
X1534319Y1305620D01*
X1541780Y1303959D01*
X1549360Y1303040D01*
G37*
G36*
X2290940Y2134300D02*
G01*
X2296380Y2134660D01*
X2301740Y2135720D01*
X2306900Y2137460D01*
X2311780Y2139880D01*
X2316320Y2142920D01*
X2320420Y2146500D01*
X2324020Y2150600D01*
X2327040Y2155140D01*
X2329460Y2160040D01*
X2331220Y2165200D01*
X2332280Y2170540D01*
X2332640Y2175980D01*
X2332280Y2181420D01*
X2331220Y2186780D01*
X2329460Y2191940D01*
X2327040Y2196820D01*
X2324020Y2201360D01*
X2320420Y2205460D01*
X2316320Y2209060D01*
X2311780Y2212080D01*
X2306900Y2214500D01*
X2301740Y2216260D01*
X2296380Y2217320D01*
X2290940Y2217680D01*
X2285500Y2217320D01*
X2280160Y2216260D01*
X2279200Y2215920D01*
X2277740Y2215720D01*
X2276300Y2216060D01*
X2275080Y2216880D01*
X1970980Y2521000D01*
X1970100Y2522300D01*
X1969800Y2523820D01*
X1969800Y3062700D01*
X1970160Y3064380D01*
X1971200Y3065740D01*
X1972720Y3066540D01*
X1974420Y3066640D01*
X1976020Y3066019D01*
X1980340Y3063140D01*
X1985220Y3060720D01*
X1990400Y3058980D01*
X1995740Y3057919D01*
X2001180Y3057559D01*
X2006620Y3057919D01*
X2011980Y3058980D01*
X2017140Y3060720D01*
X2022020Y3063140D01*
X2026560Y3066180D01*
X2027760Y3067220D01*
X2029079Y3068000D01*
X2030580Y3068220D01*
X2032060Y3067860D01*
X2033300Y3066980D01*
X2034120Y3065700D01*
X2034400Y3064220D01*
X2034420Y2514160D01*
X2034880Y2510800D01*
X2035920Y2507700D01*
X2037520Y2504840D01*
X2039720Y2502200D01*
X2250040Y2291860D01*
X2250880Y2290640D01*
X2251220Y2289200D01*
X2251000Y2287740D01*
X2250680Y2286780D01*
X2249620Y2281420D01*
X2249260Y2275980D01*
X2249620Y2270540D01*
X2250680Y2265200D01*
X2252440Y2260040D01*
X2254840Y2255140D01*
X2257880Y2250600D01*
X2261460Y2246500D01*
X2265560Y2242920D01*
X2270100Y2239880D01*
X2275000Y2237460D01*
X2280160Y2235720D01*
X2285500Y2234660D01*
X2290940Y2234300D01*
X2296380Y2234660D01*
X2301740Y2235720D01*
X2306900Y2237460D01*
X2311780Y2239880D01*
X2316320Y2242920D01*
X2320420Y2246500D01*
X2324020Y2250600D01*
X2327040Y2255140D01*
X2329460Y2260040D01*
X2331220Y2265200D01*
X2332280Y2270540D01*
X2332640Y2275980D01*
X2332280Y2281420D01*
X2331220Y2286780D01*
X2329460Y2291940D01*
X2327040Y2296820D01*
X2324020Y2301360D01*
X2320420Y2305460D01*
X2316320Y2309060D01*
X2311780Y2312080D01*
X2306900Y2314500D01*
X2301740Y2316260D01*
X2296380Y2317320D01*
X2290940Y2317680D01*
X2285500Y2317320D01*
X2280160Y2316260D01*
X2279200Y2315920D01*
X2277740Y2315720D01*
X2276300Y2316060D01*
X2275080Y2316880D01*
X2070980Y2521000D01*
X2070100Y2522300D01*
X2069800Y2523820D01*
X2069800Y3062700D01*
X2070160Y3064380D01*
X2071200Y3065740D01*
X2072720Y3066540D01*
X2074420Y3066640D01*
X2076020Y3066019D01*
X2080340Y3063140D01*
X2085220Y3060720D01*
X2090400Y3058980D01*
X2095740Y3057919D01*
X2101180Y3057559D01*
X2106620Y3057919D01*
X2111980Y3058980D01*
X2117140Y3060720D01*
X2122020Y3063140D01*
X2126560Y3066180D01*
X2130660Y3069760D01*
X2134260Y3073860D01*
X2137280Y3078399D01*
X2139700Y3083279D01*
X2141460Y3088460D01*
X2142520Y3093800D01*
X2142880Y3099240D01*
X2142520Y3104680D01*
X2141460Y3110040D01*
X2139700Y3115200D01*
X2137280Y3120080D01*
X2134260Y3124620D01*
X2130660Y3128720D01*
X2126560Y3132320D01*
X2122020Y3135340D01*
X2117140Y3137760D01*
X2111980Y3139500D01*
X2106620Y3140580D01*
X2101180Y3140940D01*
X2095740Y3140580D01*
X2090400Y3139500D01*
X2085220Y3137760D01*
X2080340Y3135340D01*
X2076020Y3132460D01*
X2074420Y3131840D01*
X2072720Y3131940D01*
X2071200Y3132740D01*
X2070160Y3134120D01*
X2069800Y3135779D01*
X2069780Y3749000D01*
X2069319Y3752360D01*
X2068280Y3755460D01*
X2066680Y3758320D01*
X2064480Y3760960D01*
X2042080Y3783380D01*
X2041240Y3784580D01*
X2040920Y3786019D01*
X2041120Y3787480D01*
X2041459Y3788460D01*
X2042520Y3793800D01*
X2042880Y3799240D01*
X2042520Y3804680D01*
X2041459Y3810040D01*
X2039700Y3815200D01*
X2037280Y3820080D01*
X2034259Y3824620D01*
X2032140Y3827040D01*
X2031360Y3828360D01*
X2031140Y3829860D01*
X2031500Y3831340D01*
X2032380Y3832580D01*
X2033640Y3833399D01*
X2035140Y3833680D01*
X2067220Y3833680D01*
X2068720Y3833399D01*
X2070000Y3832580D01*
X2070880Y3831340D01*
X2071220Y3829860D01*
X2071000Y3828360D01*
X2070240Y3827040D01*
X2068120Y3824620D01*
X2065080Y3820080D01*
X2062660Y3815200D01*
X2060920Y3810040D01*
X2059860Y3804680D01*
X2059500Y3799240D01*
X2059860Y3793800D01*
X2060920Y3788460D01*
X2062660Y3783279D01*
X2065080Y3778399D01*
X2068120Y3773860D01*
X2071699Y3769760D01*
X2075800Y3766180D01*
X2080340Y3763140D01*
X2085220Y3760720D01*
X2090400Y3758980D01*
X2095740Y3757919D01*
X2101180Y3757559D01*
X2106620Y3757919D01*
X2111980Y3758980D01*
X2117140Y3760720D01*
X2122020Y3763140D01*
X2126560Y3766180D01*
X2130660Y3769760D01*
X2134260Y3773860D01*
X2137280Y3778399D01*
X2139700Y3783279D01*
X2141460Y3788460D01*
X2142520Y3793800D01*
X2142880Y3799240D01*
X2142520Y3804680D01*
X2141460Y3810040D01*
X2139700Y3815200D01*
X2137280Y3820080D01*
X2134260Y3824620D01*
X2132140Y3827040D01*
X2131360Y3828360D01*
X2131140Y3829860D01*
X2131500Y3831340D01*
X2132380Y3832580D01*
X2133640Y3833399D01*
X2135140Y3833680D01*
X2167220Y3833680D01*
X2168720Y3833399D01*
X2170000Y3832580D01*
X2170880Y3831340D01*
X2171220Y3829860D01*
X2171000Y3828360D01*
X2170240Y3827040D01*
X2168120Y3824620D01*
X2165080Y3820080D01*
X2162660Y3815200D01*
X2160920Y3810040D01*
X2159860Y3804680D01*
X2159500Y3799240D01*
X2159860Y3793800D01*
X2160920Y3788460D01*
X2162660Y3783279D01*
X2165080Y3778399D01*
X2168120Y3773860D01*
X2171700Y3769760D01*
X2175800Y3766180D01*
X2180340Y3763140D01*
X2185220Y3760720D01*
X2190400Y3758980D01*
X2195740Y3757919D01*
X2201180Y3757559D01*
X2206620Y3757919D01*
X2211980Y3758980D01*
X2217140Y3760720D01*
X2222020Y3763140D01*
X2226560Y3766180D01*
X2230660Y3769760D01*
X2234260Y3773860D01*
X2237280Y3778399D01*
X2239700Y3783279D01*
X2241460Y3788460D01*
X2242520Y3793800D01*
X2242880Y3799240D01*
X2242520Y3804680D01*
X2241460Y3810040D01*
X2239700Y3815200D01*
X2237280Y3820080D01*
X2234260Y3824620D01*
X2232140Y3827040D01*
X2231360Y3828360D01*
X2231140Y3829860D01*
X2231500Y3831340D01*
X2232380Y3832580D01*
X2233640Y3833399D01*
X2235140Y3833680D01*
X2240060Y3833680D01*
X2241580Y3833380D01*
X2242880Y3832500D01*
X2260280Y3815100D01*
X2261120Y3813900D01*
X2261460Y3812460D01*
X2261240Y3811000D01*
X2260920Y3810040D01*
X2259860Y3804680D01*
X2259500Y3799240D01*
X2259860Y3793800D01*
X2260920Y3788460D01*
X2262660Y3783279D01*
X2265080Y3778399D01*
X2268120Y3773860D01*
X2271700Y3769760D01*
X2275800Y3766180D01*
X2280340Y3763140D01*
X2285220Y3760720D01*
X2290400Y3758980D01*
X2295740Y3757919D01*
X2301180Y3757559D01*
X2306620Y3757919D01*
X2311980Y3758980D01*
X2317140Y3760720D01*
X2322020Y3763140D01*
X2326560Y3766180D01*
X2330660Y3769760D01*
X2334260Y3773860D01*
X2337280Y3778399D01*
X2339700Y3783279D01*
X2341460Y3788460D01*
X2342520Y3793800D01*
X2342880Y3799240D01*
X2342520Y3804680D01*
X2341460Y3810040D01*
X2339700Y3815200D01*
X2337280Y3820080D01*
X2334260Y3824620D01*
X2330660Y3828720D01*
X2326560Y3832320D01*
X2322020Y3835340D01*
X2317140Y3837760D01*
X2311980Y3839500D01*
X2306620Y3840580D01*
X2301180Y3840940D01*
X2295740Y3840580D01*
X2290400Y3839500D01*
X2289420Y3839180D01*
X2287960Y3838980D01*
X2286540Y3839300D01*
X2285320Y3840140D01*
X2276900Y3848560D01*
X2276040Y3849860D01*
X2275720Y3851380D01*
X2276040Y3852919D01*
X2276900Y3854200D01*
X2534540Y4111840D01*
X2535840Y4112700D01*
X2537360Y4113020D01*
X2538900Y4112700D01*
X2540180Y4111840D01*
X2541060Y4110539D01*
X2541360Y4109020D01*
X2541360Y3827140D01*
X2541040Y3825580D01*
X2540120Y3824260D01*
X2538780Y3823399D01*
X2537180Y3823159D01*
X2535640Y3823540D01*
X2534360Y3824500D01*
X2530660Y3828720D01*
X2526560Y3832320D01*
X2522020Y3835340D01*
X2517140Y3837760D01*
X2511980Y3839500D01*
X2506620Y3840580D01*
X2501180Y3840940D01*
X2495740Y3840580D01*
X2490400Y3839500D01*
X2485220Y3837760D01*
X2480340Y3835340D01*
X2475800Y3832320D01*
X2471700Y3828720D01*
X2468120Y3824620D01*
X2465080Y3820080D01*
X2462660Y3815200D01*
X2460920Y3810040D01*
X2459860Y3804680D01*
X2459500Y3799240D01*
X2459860Y3793800D01*
X2460920Y3788460D01*
X2462660Y3783279D01*
X2465080Y3778399D01*
X2468120Y3773860D01*
X2471700Y3769760D01*
X2475800Y3766180D01*
X2480340Y3763140D01*
X2485220Y3760720D01*
X2490400Y3758980D01*
X2495740Y3757919D01*
X2501180Y3757559D01*
X2506620Y3757919D01*
X2511980Y3758980D01*
X2517140Y3760720D01*
X2522020Y3763140D01*
X2526560Y3766180D01*
X2530660Y3769760D01*
X2534360Y3773980D01*
X2535640Y3774940D01*
X2537180Y3775340D01*
X2538780Y3775080D01*
X2540120Y3774220D01*
X2541040Y3772919D01*
X2541360Y3771340D01*
X2541360Y3166100D01*
X2541060Y3164580D01*
X2540180Y3163279D01*
X2517060Y3140140D01*
X2515840Y3139300D01*
X2514400Y3138980D01*
X2512940Y3139180D01*
X2511980Y3139500D01*
X2506620Y3140580D01*
X2501180Y3140940D01*
X2495740Y3140580D01*
X2490400Y3139500D01*
X2485220Y3137760D01*
X2480340Y3135340D01*
X2475800Y3132320D01*
X2471700Y3128720D01*
X2468120Y3124620D01*
X2465080Y3120080D01*
X2462660Y3115200D01*
X2460920Y3110040D01*
X2459860Y3104680D01*
X2459500Y3099240D01*
X2459860Y3093800D01*
X2460920Y3088460D01*
X2462660Y3083279D01*
X2465080Y3078399D01*
X2468120Y3073860D01*
X2470260Y3071420D01*
X2471020Y3070100D01*
X2471240Y3068600D01*
X2470900Y3067140D01*
X2470020Y3065899D01*
X2468740Y3065059D01*
X2467240Y3064780D01*
X2462320Y3064780D01*
X2460800Y3065080D01*
X2459500Y3065960D01*
X2442080Y3083380D01*
X2441240Y3084580D01*
X2440920Y3086019D01*
X2441120Y3087480D01*
X2441460Y3088460D01*
X2442520Y3093800D01*
X2442880Y3099240D01*
X2442520Y3104680D01*
X2441460Y3110040D01*
X2439700Y3115200D01*
X2437280Y3120080D01*
X2434260Y3124620D01*
X2430660Y3128720D01*
X2426560Y3132320D01*
X2422020Y3135340D01*
X2417140Y3137760D01*
X2411980Y3139500D01*
X2406620Y3140580D01*
X2401180Y3140940D01*
X2395740Y3140580D01*
X2390400Y3139500D01*
X2385220Y3137760D01*
X2380340Y3135340D01*
X2375800Y3132320D01*
X2371700Y3128720D01*
X2368120Y3124620D01*
X2365080Y3120080D01*
X2362660Y3115200D01*
X2360920Y3110040D01*
X2359860Y3104680D01*
X2359500Y3099240D01*
X2359860Y3093800D01*
X2360920Y3088460D01*
X2362660Y3083279D01*
X2365080Y3078399D01*
X2368120Y3073860D01*
X2371700Y3069760D01*
X2375800Y3066180D01*
X2380340Y3063140D01*
X2385220Y3060720D01*
X2390400Y3058980D01*
X2395740Y3057919D01*
X2401180Y3057559D01*
X2406620Y3057919D01*
X2411980Y3058980D01*
X2412940Y3059300D01*
X2414400Y3059520D01*
X2415840Y3059180D01*
X2417040Y3058340D01*
X2441320Y3034100D01*
X2444040Y3032040D01*
X2446960Y3030600D01*
X2450100Y3029700D01*
X2453520Y3029380D01*
X2522820Y3029400D01*
X2526180Y3029860D01*
X2529280Y3030899D01*
X2532140Y3032500D01*
X2534780Y3034700D01*
X2642980Y3142900D01*
X2645020Y3145620D01*
X2646480Y3148540D01*
X2647380Y3151680D01*
X2647700Y3155120D01*
X2647679Y4801300D01*
X2647200Y4804680D01*
X2646160Y4807780D01*
X2644580Y4810620D01*
X2642380Y4813280D01*
X2585100Y4870540D01*
X2582380Y4872580D01*
X2579460Y4874040D01*
X2576320Y4874940D01*
X2572880Y4875260D01*
X2016720Y4875240D01*
X2013360Y4874760D01*
X2010260Y4873720D01*
X2007400Y4872140D01*
X2004760Y4869940D01*
X1955520Y4820680D01*
X1953460Y4817960D01*
X1952020Y4815040D01*
X1951120Y4811900D01*
X1950800Y4808460D01*
X1950800Y4802820D01*
X1950580Y4801500D01*
X1949920Y4800340D01*
X1948380Y4799100D01*
X1946780Y4797480D01*
X1945560Y4795560D01*
X1944800Y4793400D01*
X1944520Y4790920D01*
X1944520Y4751560D01*
X1944280Y4750160D01*
X1943540Y4748940D01*
X1942440Y4748040D01*
X1941080Y4747600D01*
X1940200Y4747480D01*
X1937100Y4746440D01*
X1934240Y4744840D01*
X1931600Y4742640D01*
X1919500Y4730520D01*
X1917440Y4727800D01*
X1916000Y4724880D01*
X1915100Y4721760D01*
X1914780Y4718320D01*
X1914780Y4712680D01*
X1914560Y4711360D01*
X1913899Y4710180D01*
X1912360Y4708940D01*
X1910760Y4707340D01*
X1909540Y4705400D01*
X1908779Y4703260D01*
X1908500Y4700760D01*
X1908500Y4657900D01*
X1908779Y4655420D01*
X1909540Y4653260D01*
X1910760Y4651340D01*
X1912360Y4649720D01*
X1914300Y4648520D01*
X1916440Y4647760D01*
X1918940Y4647480D01*
X1946040Y4647480D01*
X1948540Y4647760D01*
X1950680Y4648520D01*
X1952620Y4649720D01*
X1954220Y4651340D01*
X1955440Y4653260D01*
X1956180Y4655420D01*
X1956459Y4657900D01*
X1956459Y4700760D01*
X1956180Y4703260D01*
X1955440Y4705400D01*
X1954780Y4706440D01*
X1954220Y4708020D01*
X1954340Y4709720D01*
X1955160Y4711200D01*
X1956519Y4712200D01*
X1958180Y4712560D01*
X1978839Y4712560D01*
X1980500Y4712200D01*
X1981860Y4711200D01*
X1982680Y4709720D01*
X1982820Y4708020D01*
X1982240Y4706440D01*
X1981579Y4705400D01*
X1980820Y4703240D01*
X1980540Y4700760D01*
X1980540Y4692660D01*
X1995140Y4692660D01*
X1995140Y4708560D01*
X1995440Y4710100D01*
X1996320Y4711380D01*
X1997600Y4712260D01*
X1999139Y4712560D01*
X2009920Y4712560D01*
X2011440Y4712260D01*
X2012740Y4711380D01*
X2013620Y4710100D01*
X2013920Y4708560D01*
X2013920Y4692660D01*
X2028500Y4692660D01*
X2028500Y4700760D01*
X2028220Y4703240D01*
X2027480Y4705400D01*
X2026819Y4706440D01*
X2026240Y4708020D01*
X2026380Y4709720D01*
X2027200Y4711200D01*
X2028560Y4712200D01*
X2030220Y4712560D01*
X2096399Y4712580D01*
X2099780Y4713040D01*
X2102880Y4714080D01*
X2105720Y4715680D01*
X2108380Y4717880D01*
X2195620Y4805100D01*
X2196440Y4805740D01*
X2197400Y4806140D01*
X2201040Y4807120D01*
X2204540Y4808760D01*
X2207700Y4810980D01*
X2210440Y4813700D01*
X2212660Y4816880D01*
X2214300Y4820380D01*
X2215300Y4824120D01*
X2215640Y4827980D01*
X2215300Y4831820D01*
X2214500Y4834820D01*
X2214380Y4836260D01*
X2214800Y4837660D01*
X2215680Y4838820D01*
X2216920Y4839580D01*
X2218360Y4839860D01*
X2564080Y4839860D01*
X2565620Y4839540D01*
X2566920Y4838680D01*
X2611120Y4794480D01*
X2611980Y4793180D01*
X2612300Y4791640D01*
X2612300Y4715180D01*
X2611980Y4713640D01*
X2611120Y4712360D01*
X2609820Y4711480D01*
X2608300Y4711180D01*
X2604460Y4711180D01*
X2604460Y4692660D01*
X2608300Y4692660D01*
X2609820Y4692340D01*
X2611120Y4691480D01*
X2611980Y4690180D01*
X2612300Y4688660D01*
X2612300Y4670000D01*
X2611980Y4668460D01*
X2611120Y4667180D01*
X2609820Y4666300D01*
X2608300Y4666000D01*
X2604460Y4666000D01*
X2604460Y4647480D01*
X2608300Y4647480D01*
X2609820Y4647160D01*
X2611120Y4646300D01*
X2611980Y4645000D01*
X2612300Y4643480D01*
X2612300Y3163920D01*
X2611980Y3162380D01*
X2611120Y3161100D01*
X2549500Y3099480D01*
X2548240Y3098620D01*
X2546760Y3098300D01*
X2545260Y3098560D01*
X2543980Y3099360D01*
X2543080Y3100580D01*
X2542680Y3102040D01*
X2542520Y3104680D01*
X2541460Y3110040D01*
X2541120Y3111000D01*
X2540920Y3112460D01*
X2541240Y3113900D01*
X2542080Y3115120D01*
X2572040Y3145100D01*
X2574100Y3147820D01*
X2575539Y3150740D01*
X2576440Y3153880D01*
X2576760Y3157300D01*
X2576760Y4643540D01*
X2577100Y4645160D01*
X2578100Y4646520D01*
X2579540Y4647340D01*
X2581520Y4647480D01*
X2585700Y4647480D01*
X2585700Y4666000D01*
X2580760Y4666000D01*
X2579240Y4666300D01*
X2577940Y4667180D01*
X2577060Y4668460D01*
X2576760Y4670000D01*
X2576760Y4688660D01*
X2577060Y4690180D01*
X2577940Y4691480D01*
X2579240Y4692340D01*
X2580760Y4692660D01*
X2585700Y4692660D01*
X2585700Y4711180D01*
X2581200Y4711140D01*
X2579540Y4711300D01*
X2578100Y4712140D01*
X2577100Y4713480D01*
X2576760Y4715120D01*
X2576760Y4736140D01*
X2576980Y4737460D01*
X2577640Y4738640D01*
X2579180Y4739880D01*
X2580800Y4741500D01*
X2582000Y4743420D01*
X2582760Y4745580D01*
X2583039Y4748060D01*
X2583039Y4790920D01*
X2582760Y4793400D01*
X2582000Y4795560D01*
X2580800Y4797480D01*
X2579180Y4799100D01*
X2577260Y4800300D01*
X2575100Y4801060D01*
X2572620Y4801340D01*
X2545500Y4801340D01*
X2543020Y4801060D01*
X2540860Y4800300D01*
X2538940Y4799100D01*
X2537320Y4797480D01*
X2536120Y4795560D01*
X2535360Y4793400D01*
X2535080Y4790920D01*
X2535080Y4748060D01*
X2535360Y4745580D01*
X2536120Y4743420D01*
X2537320Y4741500D01*
X2538940Y4739880D01*
X2540480Y4738640D01*
X2541140Y4737460D01*
X2541360Y4736140D01*
X2541360Y4715120D01*
X2541020Y4713500D01*
X2540020Y4712140D01*
X2538580Y4711320D01*
X2536600Y4711180D01*
X2509480Y4711180D01*
X2507000Y4710900D01*
X2504840Y4710160D01*
X2502920Y4708940D01*
X2501300Y4707340D01*
X2500100Y4705400D01*
X2499340Y4703260D01*
X2499060Y4700760D01*
X2499060Y4661880D01*
X2498760Y4660340D01*
X2497880Y4659040D01*
X2496600Y4658180D01*
X2495060Y4657880D01*
X2419360Y4657880D01*
X2417820Y4658180D01*
X2416540Y4659040D01*
X2277600Y4797980D01*
X2276960Y4798800D01*
X2276560Y4799760D01*
X2275600Y4803400D01*
X2273960Y4806900D01*
X2271740Y4810060D01*
X2269000Y4812800D01*
X2265840Y4815020D01*
X2262340Y4816660D01*
X2258600Y4817660D01*
X2254740Y4818000D01*
X2250880Y4817660D01*
X2247160Y4816660D01*
X2243640Y4815020D01*
X2240480Y4812800D01*
X2237740Y4810060D01*
X2235520Y4806900D01*
X2233880Y4803400D01*
X2232880Y4799660D01*
X2232540Y4795800D01*
X2232880Y4791940D01*
X2233880Y4788220D01*
X2235520Y4784700D01*
X2237740Y4781540D01*
X2240480Y4778800D01*
X2243640Y4776580D01*
X2247160Y4774940D01*
X2250780Y4773980D01*
X2251740Y4773580D01*
X2252580Y4772940D01*
X2398340Y4627180D01*
X2401060Y4625140D01*
X2403980Y4623680D01*
X2407120Y4622780D01*
X2410560Y4622480D01*
X2501340Y4622480D01*
X2502880Y4622160D01*
X2504160Y4621300D01*
X2505040Y4620000D01*
X2505340Y4618480D01*
X2505340Y4134360D01*
X2505040Y4132840D01*
X2504160Y4131540D01*
X2242880Y3870260D01*
X2241580Y3869380D01*
X2240060Y3869080D01*
X1852640Y3869060D01*
X1849280Y3868600D01*
X1846180Y3867559D01*
X1843320Y3865960D01*
X1840680Y3863759D01*
X1817060Y3840140D01*
X1815840Y3839300D01*
X1814400Y3838980D01*
X1812940Y3839180D01*
X1811980Y3839500D01*
X1806620Y3840580D01*
X1801180Y3840940D01*
X1795740Y3840580D01*
X1790400Y3839500D01*
X1785220Y3837760D01*
X1780340Y3835340D01*
X1775800Y3832320D01*
X1771699Y3828720D01*
X1768120Y3824620D01*
X1765080Y3820080D01*
X1762660Y3815200D01*
X1760920Y3810040D01*
X1759860Y3804680D01*
X1759500Y3799240D01*
X1759860Y3793800D01*
X1760920Y3788460D01*
X1762660Y3783279D01*
X1765080Y3778399D01*
X1768120Y3773860D01*
X1771699Y3769760D01*
X1775800Y3766180D01*
X1780340Y3763140D01*
X1785220Y3760720D01*
X1790400Y3758980D01*
X1795740Y3757919D01*
X1801180Y3757559D01*
X1806620Y3757919D01*
X1811980Y3758980D01*
X1817140Y3760720D01*
X1822020Y3763140D01*
X1826560Y3766180D01*
X1830660Y3769760D01*
X1834259Y3773860D01*
X1837280Y3778399D01*
X1839700Y3783279D01*
X1841459Y3788460D01*
X1842520Y3793800D01*
X1842880Y3799240D01*
X1842520Y3804680D01*
X1841459Y3810040D01*
X1841120Y3811000D01*
X1840920Y3812460D01*
X1841240Y3813900D01*
X1842080Y3815120D01*
X1859480Y3832500D01*
X1860780Y3833380D01*
X1862300Y3833680D01*
X1867220Y3833680D01*
X1868720Y3833399D01*
X1870000Y3832580D01*
X1870880Y3831340D01*
X1871220Y3829860D01*
X1871000Y3828360D01*
X1870240Y3827040D01*
X1868120Y3824620D01*
X1865080Y3820080D01*
X1862660Y3815200D01*
X1860920Y3810040D01*
X1859860Y3804680D01*
X1859500Y3799240D01*
X1859860Y3793800D01*
X1860920Y3788460D01*
X1862660Y3783279D01*
X1865080Y3778399D01*
X1868120Y3773860D01*
X1871699Y3769760D01*
X1875800Y3766180D01*
X1880340Y3763140D01*
X1885220Y3760720D01*
X1890400Y3758980D01*
X1895740Y3757919D01*
X1901180Y3757559D01*
X1906620Y3757919D01*
X1911980Y3758980D01*
X1912940Y3759300D01*
X1914400Y3759520D01*
X1915840Y3759180D01*
X1917040Y3758340D01*
X1933220Y3742160D01*
X1934100Y3740860D01*
X1934400Y3739340D01*
X1934400Y3134260D01*
X1934120Y3132780D01*
X1933300Y3131500D01*
X1932060Y3130620D01*
X1930580Y3130280D01*
X1929079Y3130500D01*
X1927760Y3131259D01*
X1926560Y3132320D01*
X1922020Y3135340D01*
X1917140Y3137760D01*
X1911980Y3139500D01*
X1906620Y3140580D01*
X1901180Y3140940D01*
X1895740Y3140580D01*
X1890400Y3139500D01*
X1885220Y3137760D01*
X1880340Y3135340D01*
X1875800Y3132320D01*
X1875240Y3131820D01*
X1873940Y3131060D01*
X1872440Y3130840D01*
X1870960Y3131200D01*
X1869720Y3132060D01*
X1868899Y3133340D01*
X1868620Y3134840D01*
X1868600Y3450179D01*
X1868120Y3453560D01*
X1867080Y3456660D01*
X1865500Y3459500D01*
X1863300Y3462160D01*
X1542080Y3783380D01*
X1541240Y3784580D01*
X1540920Y3786019D01*
X1541120Y3787480D01*
X1541459Y3788460D01*
X1542520Y3793800D01*
X1542880Y3799240D01*
X1542520Y3804680D01*
X1541459Y3810040D01*
X1539700Y3815200D01*
X1537280Y3820080D01*
X1534259Y3824620D01*
X1530660Y3828720D01*
X1526560Y3832320D01*
X1522020Y3835340D01*
X1517140Y3837760D01*
X1511980Y3839500D01*
X1506620Y3840580D01*
X1501180Y3840940D01*
X1495740Y3840580D01*
X1490400Y3839500D01*
X1485220Y3837760D01*
X1480340Y3835340D01*
X1474199Y3831300D01*
X1472700Y3831080D01*
X1471240Y3831420D01*
X1470000Y3832300D01*
X1469160Y3833580D01*
X1468880Y3835080D01*
X1468880Y4117820D01*
X1469240Y4119460D01*
X1470220Y4120820D01*
X1471680Y4121640D01*
X1473340Y4121800D01*
X1474920Y4121259D01*
X1476140Y4120140D01*
X1476800Y4118600D01*
X1478300Y4111000D01*
X1480480Y4103680D01*
X1483360Y4096600D01*
X1486920Y4089840D01*
X1491100Y4083440D01*
X1495880Y4077480D01*
X1501220Y4072020D01*
X1507060Y4067080D01*
X1513360Y4062740D01*
X1520040Y4059020D01*
X1527040Y4055980D01*
X1534319Y4053620D01*
X1541780Y4051960D01*
X1549360Y4051040D01*
X1557000Y4050860D01*
X1564620Y4051420D01*
X1572160Y4052700D01*
X1579540Y4054700D01*
X1586680Y4057420D01*
X1593520Y4060800D01*
X1600020Y4064840D01*
X1606100Y4069480D01*
X1611699Y4074680D01*
X1616759Y4080400D01*
X1621260Y4086580D01*
X1625120Y4093180D01*
X1628340Y4100100D01*
X1630880Y4107320D01*
X1632720Y4114740D01*
X1633820Y4122300D01*
X1634180Y4129920D01*
X1633820Y4137559D01*
X1632720Y4145120D01*
X1630880Y4152540D01*
X1628340Y4159760D01*
X1625120Y4166680D01*
X1621260Y4173279D01*
X1616759Y4179460D01*
X1611699Y4185179D01*
X1606100Y4190380D01*
X1601339Y4194020D01*
X1600380Y4195080D01*
X1599840Y4196400D01*
X1599820Y4197820D01*
X1600280Y4199180D01*
X1601200Y4200260D01*
X1602220Y4201120D01*
X1607200Y4206220D01*
X1611620Y4211820D01*
X1615460Y4217840D01*
X1618640Y4224220D01*
X1621160Y4230880D01*
X1622980Y4237780D01*
X1624060Y4244820D01*
X1624440Y4251940D01*
X1624060Y4259060D01*
X1622980Y4266100D01*
X1621160Y4273000D01*
X1618640Y4279660D01*
X1615460Y4286040D01*
X1611620Y4292060D01*
X1607200Y4297660D01*
X1602220Y4302760D01*
X1596759Y4307320D01*
X1590840Y4311300D01*
X1584540Y4314660D01*
X1577940Y4317340D01*
X1571100Y4319340D01*
X1564079Y4320620D01*
X1556980Y4321160D01*
X1549840Y4320980D01*
X1542780Y4320060D01*
X1535840Y4318420D01*
X1529100Y4316080D01*
X1522640Y4313060D01*
X1516540Y4309400D01*
X1510840Y4305120D01*
X1505600Y4300260D01*
X1500900Y4294920D01*
X1496759Y4289100D01*
X1493260Y4282900D01*
X1490400Y4276360D01*
X1488220Y4269580D01*
X1486780Y4262600D01*
X1486040Y4255500D01*
X1486040Y4248380D01*
X1486780Y4241280D01*
X1488220Y4234300D01*
X1490400Y4227520D01*
X1493260Y4220980D01*
X1496759Y4214780D01*
X1500900Y4208960D01*
X1505600Y4203620D01*
X1509259Y4200220D01*
X1510280Y4198760D01*
X1510540Y4197000D01*
X1510020Y4195300D01*
X1508820Y4193980D01*
X1507060Y4192780D01*
X1501220Y4187840D01*
X1495880Y4182380D01*
X1491100Y4176420D01*
X1486920Y4170020D01*
X1483360Y4163260D01*
X1480480Y4156180D01*
X1478300Y4148860D01*
X1476800Y4141259D01*
X1476140Y4139720D01*
X1474920Y4138600D01*
X1473340Y4138060D01*
X1471680Y4138220D01*
X1470220Y4139040D01*
X1469240Y4140400D01*
X1468880Y4142040D01*
X1468860Y4330580D01*
X1468400Y4333940D01*
X1467360Y4337040D01*
X1465760Y4339900D01*
X1463560Y4342540D01*
X1371399Y4434720D01*
X1370760Y4435540D01*
X1370360Y4436500D01*
X1369600Y4439400D01*
X1369480Y4440840D01*
X1369900Y4442240D01*
X1370780Y4443400D01*
X1372020Y4444160D01*
X1373460Y4444440D01*
X1815920Y4444440D01*
X1817440Y4444120D01*
X1818740Y4443260D01*
X1976360Y4285640D01*
X1977080Y4284640D01*
X1977480Y4283480D01*
X1977500Y4282240D01*
X1976740Y4276940D01*
X1976740Y4271940D01*
X1977440Y4266960D01*
X1978820Y4262140D01*
X1980860Y4257560D01*
X1983520Y4253320D01*
X1986740Y4249480D01*
X1990460Y4246120D01*
X1994620Y4243320D01*
X1999120Y4241120D01*
X2003899Y4239560D01*
X2008839Y4238700D01*
X2013839Y4238520D01*
X2018820Y4239040D01*
X2023700Y4240260D01*
X2028340Y4242140D01*
X2032680Y4244640D01*
X2036639Y4247740D01*
X2040120Y4251340D01*
X2043060Y4255400D01*
X2045420Y4259820D01*
X2047140Y4264540D01*
X2048180Y4269440D01*
X2048520Y4274440D01*
X2048180Y4279440D01*
X2047140Y4284340D01*
X2045420Y4289060D01*
X2043060Y4293480D01*
X2040120Y4297540D01*
X2036639Y4301140D01*
X2032680Y4304240D01*
X2028340Y4306740D01*
X2023700Y4308620D01*
X2018820Y4309840D01*
X2013839Y4310360D01*
X2008839Y4310180D01*
X2004980Y4309500D01*
X2003700Y4309480D01*
X2002480Y4309860D01*
X2001440Y4310620D01*
X1836920Y4475120D01*
X1834199Y4477160D01*
X1831279Y4478620D01*
X1828160Y4479520D01*
X1824720Y4479840D01*
X1332580Y4479820D01*
X1329199Y4479340D01*
X1326100Y4478300D01*
X1323260Y4476720D01*
X1320600Y4474520D01*
X1135940Y4289860D01*
X1134720Y4289020D01*
X1133280Y4288700D01*
X1131800Y4288920D01*
X1130520Y4289660D01*
X1129580Y4290820D01*
X1128160Y4293480D01*
X1125220Y4297540D01*
X1121740Y4301140D01*
X1117780Y4304240D01*
X1113440Y4306740D01*
X1108800Y4308620D01*
X1103920Y4309840D01*
X1098940Y4310360D01*
X1093940Y4310180D01*
X1089000Y4309320D01*
X1084220Y4307760D01*
X1079720Y4305560D01*
X1075560Y4302760D01*
X1071840Y4299400D01*
X1068620Y4295560D01*
X1065960Y4291320D01*
X1063920Y4286740D01*
X1062540Y4281920D01*
X1061840Y4276940D01*
X1061840Y4271940D01*
X1062540Y4266960D01*
X1063920Y4262140D01*
X1065960Y4257560D01*
X1068620Y4253320D01*
X1071840Y4249480D01*
X1075560Y4246120D01*
X1079720Y4243320D01*
X1084220Y4241120D01*
X1089000Y4239560D01*
X1093940Y4238700D01*
X1098940Y4238520D01*
X1103920Y4239040D01*
X1108800Y4240260D01*
X1113440Y4242140D01*
X1117320Y4244380D01*
X1118900Y4244880D01*
X1120560Y4244720D01*
X1122000Y4243880D01*
X1122980Y4242540D01*
X1123320Y4240920D01*
X1123320Y3955179D01*
X1123020Y3953660D01*
X1122140Y3952360D01*
X1038199Y3868399D01*
X1036160Y3865680D01*
X1034700Y3862760D01*
X1033800Y3859620D01*
X1033500Y3856180D01*
X1033500Y3835059D01*
X1033199Y3833580D01*
X1032380Y3832300D01*
X1031140Y3831420D01*
X1029659Y3831080D01*
X1028160Y3831300D01*
X1022020Y3835340D01*
X1017140Y3837760D01*
X1011979Y3839500D01*
X1006620Y3840580D01*
X1001180Y3840940D01*
X995740Y3840580D01*
X990400Y3839500D01*
X985220Y3837760D01*
X980340Y3835340D01*
X975800Y3832320D01*
X971700Y3828720D01*
X968120Y3824620D01*
X965080Y3820080D01*
X962660Y3815200D01*
X960920Y3810040D01*
X959860Y3804680D01*
X959500Y3799240D01*
X959860Y3793800D01*
X960920Y3788460D01*
X962660Y3783279D01*
X965080Y3778399D01*
X968120Y3773860D01*
X971700Y3769760D01*
X975800Y3766180D01*
X980340Y3763140D01*
X985220Y3760720D01*
X990400Y3758980D01*
X995740Y3757919D01*
X1001180Y3757559D01*
X1006620Y3757919D01*
X1011979Y3758980D01*
X1017140Y3760720D01*
X1022020Y3763140D01*
X1028160Y3767200D01*
X1029659Y3767420D01*
X1031140Y3767060D01*
X1032380Y3766180D01*
X1033199Y3764900D01*
X1033500Y3763420D01*
X1033500Y3565360D01*
X1033180Y3563820D01*
X1032320Y3562540D01*
X638200Y3168380D01*
X636140Y3165659D01*
X634700Y3162740D01*
X633800Y3159620D01*
X633480Y3156180D01*
X633480Y3135080D01*
X633200Y3133580D01*
X632380Y3132300D01*
X631140Y3131440D01*
X629660Y3131080D01*
X628160Y3131300D01*
X622020Y3135340D01*
X617140Y3137760D01*
X611980Y3139500D01*
X606620Y3140580D01*
X601180Y3140940D01*
X595740Y3140580D01*
X590400Y3139500D01*
X585220Y3137760D01*
X580340Y3135340D01*
X575800Y3132320D01*
X571700Y3128720D01*
X568120Y3124620D01*
X565080Y3120080D01*
X562660Y3115200D01*
X560920Y3110040D01*
X559860Y3104680D01*
X559500Y3099240D01*
X559860Y3093800D01*
X560920Y3088460D01*
X562660Y3083279D01*
X565080Y3078399D01*
X568120Y3073860D01*
X571700Y3069760D01*
X575800Y3066180D01*
X580340Y3063140D01*
X585220Y3060720D01*
X590400Y3058980D01*
X595740Y3057919D01*
X601180Y3057559D01*
X604920Y3057799D01*
X606580Y3057559D01*
X608000Y3056640D01*
X1226100Y2438540D01*
X1226740Y2437720D01*
X1227140Y2436740D01*
X1228100Y2433120D01*
X1229740Y2429620D01*
X1231960Y2426440D01*
X1234700Y2423720D01*
X1237860Y2421500D01*
X1241380Y2419860D01*
X1245100Y2418860D01*
X1248960Y2418520D01*
X1252820Y2418860D01*
X1256560Y2419860D01*
X1260060Y2421500D01*
X1263220Y2423720D01*
X1265960Y2426440D01*
X1268180Y2429620D01*
X1269820Y2433120D01*
X1270040Y2433980D01*
X1270800Y2435460D01*
X1272100Y2436500D01*
X1273700Y2436940D01*
X1275340Y2436680D01*
X1276740Y2435760D01*
X1401699Y2310820D01*
X1402480Y2309680D01*
X1402840Y2308340D01*
X1402720Y2306940D01*
X1402100Y2304600D01*
X1401759Y2300740D01*
X1402100Y2296880D01*
X1403100Y2293160D01*
X1404740Y2289640D01*
X1406960Y2286480D01*
X1409680Y2283740D01*
X1412860Y2281520D01*
X1416360Y2279880D01*
X1420100Y2278880D01*
X1423959Y2278540D01*
X1427800Y2278880D01*
X1431540Y2279880D01*
X1435040Y2281520D01*
X1438220Y2283740D01*
X1440960Y2286480D01*
X1443180Y2289640D01*
X1444800Y2293160D01*
X1445800Y2296880D01*
X1446140Y2300740D01*
X1445800Y2304600D01*
X1444800Y2308340D01*
X1443180Y2311840D01*
X1441780Y2314020D01*
X1441540Y2314920D01*
X1441160Y2317620D01*
X1440120Y2320720D01*
X1438540Y2323580D01*
X1436339Y2326220D01*
X1380640Y2381940D01*
X1379760Y2383240D01*
X1379460Y2384760D01*
X1379760Y2386300D01*
X1380640Y2387580D01*
X1381920Y2388460D01*
X1383460Y2388760D01*
X1618820Y2388760D01*
X1620020Y2388580D01*
X1621100Y2388040D01*
X1622240Y2387240D01*
X1625760Y2385600D01*
X1629480Y2384600D01*
X1633340Y2384260D01*
X1637200Y2384600D01*
X1640940Y2385600D01*
X1643700Y2386900D01*
X1645240Y2387260D01*
X1646819Y2387000D01*
X1648160Y2386140D01*
X1649060Y2384840D01*
X1649379Y2383260D01*
X1649379Y2317880D01*
X1649079Y2316340D01*
X1648200Y2315060D01*
X1646800Y2313840D01*
X1645840Y2313440D01*
X1642220Y2312460D01*
X1638700Y2310840D01*
X1635540Y2308620D01*
X1632800Y2305880D01*
X1630580Y2302700D01*
X1628940Y2299200D01*
X1627940Y2295460D01*
X1627600Y2291620D01*
X1627940Y2287760D01*
X1628940Y2284020D01*
X1629960Y2281840D01*
X1630340Y2280280D01*
X1630080Y2278700D01*
X1629220Y2277360D01*
X1627900Y2276460D01*
X1626339Y2276140D01*
X1521020Y2276140D01*
X1519760Y2276340D01*
X1518620Y2276940D01*
X1517740Y2277840D01*
X1516800Y2279180D01*
X1514060Y2281920D01*
X1510900Y2284140D01*
X1507400Y2285780D01*
X1503660Y2286780D01*
X1499800Y2287120D01*
X1495940Y2286780D01*
X1492220Y2285780D01*
X1488700Y2284140D01*
X1485540Y2281920D01*
X1482800Y2279180D01*
X1480580Y2276020D01*
X1478940Y2272520D01*
X1477940Y2268780D01*
X1477600Y2264920D01*
X1477940Y2261060D01*
X1478940Y2257340D01*
X1480580Y2253820D01*
X1482800Y2250660D01*
X1485540Y2247920D01*
X1488700Y2245700D01*
X1492220Y2244060D01*
X1495940Y2243060D01*
X1497180Y2242960D01*
X1498540Y2242580D01*
X1499860Y2241960D01*
X1503040Y2241060D01*
X1506459Y2240740D01*
X1940420Y2240760D01*
X1943800Y2241220D01*
X1946900Y2242260D01*
X1949740Y2243860D01*
X1952400Y2246060D01*
X2052440Y2346080D01*
X2053260Y2346720D01*
X2054220Y2347120D01*
X2057860Y2348100D01*
X2061360Y2349740D01*
X2064520Y2351960D01*
X2067260Y2354680D01*
X2069480Y2357860D01*
X2071120Y2361360D01*
X2071320Y2362100D01*
X2072080Y2363600D01*
X2073360Y2364640D01*
X2074980Y2365060D01*
X2076620Y2364800D01*
X2078000Y2363900D01*
X2250040Y2191860D01*
X2250880Y2190640D01*
X2251220Y2189200D01*
X2251000Y2187740D01*
X2250680Y2186780D01*
X2249620Y2181420D01*
X2249260Y2175980D01*
X2249620Y2170540D01*
X2250680Y2165200D01*
X2252440Y2160040D01*
X2254840Y2155140D01*
X2257880Y2150600D01*
X2261460Y2146500D01*
X2265560Y2142920D01*
X2270100Y2139880D01*
X2275000Y2137460D01*
X2280160Y2135720D01*
X2285500Y2134660D01*
G37*
G36*
X1599800Y2163000D02*
G01*
X1603660Y2163340D01*
X1607400Y2164340D01*
X1610900Y2165980D01*
X1614060Y2168200D01*
X1616800Y2170920D01*
X1619019Y2174100D01*
X1620660Y2177600D01*
X1621660Y2181340D01*
X1622000Y2185200D01*
X1621660Y2189040D01*
X1620660Y2192780D01*
X1619019Y2196280D01*
X1616800Y2199460D01*
X1614060Y2202200D01*
X1610900Y2204420D01*
X1607400Y2206040D01*
X1603660Y2207040D01*
X1599800Y2207380D01*
X1595940Y2207040D01*
X1592220Y2206040D01*
X1588700Y2204420D01*
X1587560Y2203620D01*
X1586480Y2203080D01*
X1585280Y2202900D01*
X1423000Y2202900D01*
X1421459Y2203200D01*
X1420180Y2204060D01*
X1290160Y2334040D01*
X1287440Y2336100D01*
X1284520Y2337540D01*
X1281339Y2338460D01*
X1278900Y2338740D01*
X1273820Y2338760D01*
X1272300Y2339060D01*
X1271000Y2339940D01*
X539840Y3071100D01*
X538960Y3072400D01*
X538660Y3073920D01*
X538660Y3994220D01*
X538960Y3995760D01*
X539840Y3997060D01*
X781040Y4238260D01*
X782080Y4239020D01*
X783300Y4239400D01*
X784580Y4239380D01*
X788439Y4238700D01*
X793439Y4238520D01*
X798420Y4239040D01*
X803300Y4240260D01*
X807940Y4242140D01*
X812280Y4244640D01*
X816240Y4247740D01*
X819720Y4251340D01*
X822660Y4255400D01*
X825020Y4259820D01*
X826740Y4264540D01*
X827780Y4269440D01*
X828120Y4274440D01*
X827780Y4279440D01*
X826740Y4284340D01*
X825020Y4289060D01*
X822660Y4293480D01*
X819720Y4297540D01*
X816240Y4301140D01*
X812280Y4304240D01*
X807940Y4306740D01*
X803300Y4308620D01*
X798420Y4309840D01*
X793439Y4310360D01*
X788439Y4310180D01*
X783500Y4309320D01*
X778720Y4307760D01*
X774220Y4305560D01*
X770060Y4302760D01*
X766340Y4299400D01*
X763120Y4295560D01*
X760460Y4291320D01*
X758420Y4286740D01*
X757039Y4281920D01*
X756340Y4276940D01*
X756340Y4271940D01*
X757099Y4266640D01*
X757080Y4265400D01*
X756680Y4264240D01*
X755960Y4263240D01*
X507980Y4015240D01*
X505920Y4012520D01*
X504480Y4009600D01*
X503579Y4006460D01*
X503260Y4003020D01*
X503280Y3064260D01*
X503740Y3060899D01*
X504780Y3057799D01*
X506380Y3054940D01*
X508579Y3052300D01*
X1244860Y2316000D01*
X1245720Y2314720D01*
X1246040Y2313180D01*
X1245720Y2311660D01*
X1244860Y2310360D01*
X1243560Y2309480D01*
X1242040Y2309180D01*
X1205420Y2309180D01*
X1203900Y2309480D01*
X1202600Y2310360D01*
X738480Y2774480D01*
X737840Y2775299D01*
X737440Y2776280D01*
X736460Y2779900D01*
X734840Y2783399D01*
X732620Y2786580D01*
X729880Y2789320D01*
X726700Y2791540D01*
X723199Y2793159D01*
X719460Y2794160D01*
X715620Y2794500D01*
X711760Y2794160D01*
X708020Y2793159D01*
X704520Y2791540D01*
X701340Y2789320D01*
X700300Y2788260D01*
X698920Y2787360D01*
X697320Y2787100D01*
X695720Y2787500D01*
X694419Y2788500D01*
X693640Y2789940D01*
X693120Y2791640D01*
X689780Y2800100D01*
X685740Y2808240D01*
X681020Y2816019D01*
X675680Y2823380D01*
X669740Y2830260D01*
X663240Y2836640D01*
X656220Y2842440D01*
X648760Y2847620D01*
X640879Y2852180D01*
X632640Y2856040D01*
X624120Y2859220D01*
X615360Y2861660D01*
X606420Y2863360D01*
X597380Y2864320D01*
X588280Y2864500D01*
X579200Y2863940D01*
X570200Y2862600D01*
X561340Y2860539D01*
X552680Y2857720D01*
X544300Y2854200D01*
X536240Y2849980D01*
X528560Y2845100D01*
X521320Y2839600D01*
X514560Y2833519D01*
X508320Y2826880D01*
X502680Y2819760D01*
X497640Y2812180D01*
X493260Y2804200D01*
X489560Y2795899D01*
X486560Y2787300D01*
X484300Y2778500D01*
X482780Y2769520D01*
X482020Y2760460D01*
X482020Y2751360D01*
X482780Y2742300D01*
X484300Y2733320D01*
X486560Y2724520D01*
X489560Y2715920D01*
X493260Y2707620D01*
X497640Y2699640D01*
X502680Y2692060D01*
X508320Y2684940D01*
X514560Y2678300D01*
X521320Y2672220D01*
X528560Y2666720D01*
X536240Y2661840D01*
X544300Y2657620D01*
X552680Y2654100D01*
X561340Y2651280D01*
X570200Y2649220D01*
X579200Y2647880D01*
X588280Y2647320D01*
X597380Y2647500D01*
X606420Y2648460D01*
X615360Y2650160D01*
X624120Y2652600D01*
X632640Y2655779D01*
X640879Y2659640D01*
X648760Y2664200D01*
X656220Y2669380D01*
X663240Y2675179D01*
X669740Y2681560D01*
X675680Y2688440D01*
X681020Y2695800D01*
X685740Y2703580D01*
X689780Y2711720D01*
X693120Y2720179D01*
X695759Y2728900D01*
X697660Y2737799D01*
X698800Y2746820D01*
X698900Y2749600D01*
X699280Y2751120D01*
X700200Y2752380D01*
X701540Y2753180D01*
X703080Y2753420D01*
X704599Y2753060D01*
X708020Y2751460D01*
X711640Y2750480D01*
X712620Y2750080D01*
X713439Y2749440D01*
X1184420Y2278500D01*
X1187140Y2276440D01*
X1190060Y2275000D01*
X1193200Y2274100D01*
X1196620Y2273780D01*
X1251360Y2273780D01*
X1252560Y2273600D01*
X1253640Y2273060D01*
X1254780Y2272260D01*
X1258300Y2270620D01*
X1262020Y2269620D01*
X1265880Y2269280D01*
X1269740Y2269620D01*
X1273480Y2270620D01*
X1276980Y2272260D01*
X1280140Y2274480D01*
X1282880Y2277220D01*
X1285100Y2280380D01*
X1285440Y2281140D01*
X1286339Y2282360D01*
X1287640Y2283180D01*
X1289139Y2283440D01*
X1290640Y2283120D01*
X1291900Y2282260D01*
X1401980Y2172200D01*
X1404700Y2170160D01*
X1407620Y2168700D01*
X1410760Y2167800D01*
X1414199Y2167500D01*
X1585280Y2167500D01*
X1586480Y2167300D01*
X1587560Y2166760D01*
X1588700Y2165980D01*
X1592220Y2164340D01*
X1595940Y2163340D01*
G37*
G36*
X2590940Y2234300D02*
G01*
X2596380Y2234660D01*
X2601740Y2235720D01*
X2606900Y2237460D01*
X2611780Y2239880D01*
X2616320Y2242920D01*
X2620419Y2246500D01*
X2624020Y2250600D01*
X2627040Y2255140D01*
X2629460Y2260040D01*
X2631220Y2265200D01*
X2632280Y2270540D01*
X2632640Y2275980D01*
X2632280Y2281420D01*
X2631220Y2286780D01*
X2629460Y2291940D01*
X2627040Y2296820D01*
X2624020Y2301360D01*
X2620419Y2305460D01*
X2616320Y2309060D01*
X2611780Y2312080D01*
X2606900Y2314500D01*
X2601740Y2316260D01*
X2596380Y2317320D01*
X2590940Y2317680D01*
X2585500Y2317320D01*
X2580160Y2316260D01*
X2575000Y2314500D01*
X2570100Y2312080D01*
X2565560Y2309060D01*
X2561460Y2305460D01*
X2557880Y2301360D01*
X2554840Y2296820D01*
X2552440Y2291940D01*
X2550680Y2286780D01*
X2549620Y2281420D01*
X2549260Y2275980D01*
X2549620Y2270540D01*
X2550680Y2265200D01*
X2552440Y2260040D01*
X2554840Y2255140D01*
X2557880Y2250600D01*
X2561460Y2246500D01*
X2565560Y2242920D01*
X2570100Y2239880D01*
X2575000Y2237460D01*
X2580160Y2235720D01*
X2585500Y2234660D01*
G37*
G36*
X2290940Y2334300D02*
G01*
X2296380Y2334660D01*
X2301740Y2335720D01*
X2306900Y2337460D01*
X2311780Y2339880D01*
X2316320Y2342920D01*
X2320420Y2346500D01*
X2324020Y2350600D01*
X2327040Y2355140D01*
X2329460Y2360040D01*
X2331220Y2365200D01*
X2332280Y2370540D01*
X2332640Y2375980D01*
X2332280Y2381420D01*
X2331220Y2386780D01*
X2329460Y2391940D01*
X2327040Y2396820D01*
X2324020Y2401360D01*
X2320420Y2405460D01*
X2316320Y2409060D01*
X2311780Y2412080D01*
X2306900Y2414500D01*
X2301740Y2416260D01*
X2296380Y2417320D01*
X2290940Y2417680D01*
X2285500Y2417320D01*
X2280160Y2416260D01*
X2275000Y2414500D01*
X2270100Y2412080D01*
X2265560Y2409060D01*
X2261460Y2405460D01*
X2257880Y2401360D01*
X2254840Y2396820D01*
X2252440Y2391940D01*
X2250680Y2386780D01*
X2249620Y2381420D01*
X2249260Y2375980D01*
X2249620Y2370540D01*
X2250680Y2365200D01*
X2252440Y2360040D01*
X2254840Y2355140D01*
X2257880Y2350600D01*
X2261460Y2346500D01*
X2265560Y2342920D01*
X2270100Y2339880D01*
X2275000Y2337460D01*
X2280160Y2335720D01*
X2285500Y2334660D01*
G37*
G36*
X2590940Y2334300D02*
G01*
X2596380Y2334660D01*
X2601740Y2335720D01*
X2606900Y2337460D01*
X2611780Y2339880D01*
X2616320Y2342920D01*
X2620419Y2346500D01*
X2624020Y2350600D01*
X2627040Y2355140D01*
X2629460Y2360040D01*
X2631220Y2365200D01*
X2632280Y2370540D01*
X2632640Y2375980D01*
X2632280Y2381420D01*
X2631220Y2386780D01*
X2629460Y2391940D01*
X2627040Y2396820D01*
X2624020Y2401360D01*
X2620419Y2405460D01*
X2616320Y2409060D01*
X2611780Y2412080D01*
X2606900Y2414500D01*
X2601740Y2416260D01*
X2596380Y2417320D01*
X2590940Y2417680D01*
X2585500Y2417320D01*
X2580160Y2416260D01*
X2575000Y2414500D01*
X2570100Y2412080D01*
X2565560Y2409060D01*
X2561460Y2405460D01*
X2557880Y2401360D01*
X2554840Y2396820D01*
X2552440Y2391940D01*
X2550680Y2386780D01*
X2549620Y2381420D01*
X2549260Y2375980D01*
X2549620Y2370540D01*
X2550680Y2365200D01*
X2552440Y2360040D01*
X2554840Y2355140D01*
X2557880Y2350600D01*
X2561460Y2346500D01*
X2565560Y2342920D01*
X2570100Y2339880D01*
X2575000Y2337460D01*
X2580160Y2335720D01*
X2585500Y2334660D01*
G37*
G36*
X2290940Y2434300D02*
G01*
X2296380Y2434660D01*
X2301740Y2435720D01*
X2306900Y2437460D01*
X2311780Y2439880D01*
X2316320Y2442920D01*
X2320420Y2446500D01*
X2324020Y2450600D01*
X2327040Y2455140D01*
X2329460Y2460040D01*
X2331220Y2465200D01*
X2332280Y2470540D01*
X2332640Y2475980D01*
X2332280Y2481420D01*
X2331220Y2486780D01*
X2329460Y2491940D01*
X2327040Y2496820D01*
X2324020Y2501360D01*
X2320420Y2505460D01*
X2316320Y2509060D01*
X2311780Y2512080D01*
X2306900Y2514500D01*
X2301740Y2516260D01*
X2296380Y2517320D01*
X2290940Y2517680D01*
X2285500Y2517320D01*
X2280160Y2516260D01*
X2275000Y2514500D01*
X2270100Y2512080D01*
X2265560Y2509060D01*
X2261460Y2505460D01*
X2257880Y2501360D01*
X2254840Y2496820D01*
X2252440Y2491940D01*
X2250680Y2486780D01*
X2249620Y2481420D01*
X2249260Y2475980D01*
X2249620Y2470540D01*
X2250680Y2465200D01*
X2252440Y2460040D01*
X2254840Y2455140D01*
X2257880Y2450600D01*
X2261460Y2446500D01*
X2265560Y2442920D01*
X2270100Y2439880D01*
X2275000Y2437460D01*
X2280160Y2435720D01*
X2285500Y2434660D01*
G37*
G36*
X2590940Y2434300D02*
G01*
X2596380Y2434660D01*
X2601740Y2435720D01*
X2606900Y2437460D01*
X2611780Y2439880D01*
X2616320Y2442920D01*
X2620419Y2446500D01*
X2624020Y2450600D01*
X2627040Y2455140D01*
X2629460Y2460040D01*
X2631220Y2465200D01*
X2632280Y2470540D01*
X2632640Y2475980D01*
X2632280Y2481420D01*
X2631220Y2486780D01*
X2629460Y2491940D01*
X2627040Y2496820D01*
X2624020Y2501360D01*
X2620419Y2505460D01*
X2616320Y2509060D01*
X2611780Y2512080D01*
X2610880Y2512540D01*
X2609700Y2513420D01*
X2608920Y2514680D01*
X2608660Y2516120D01*
X2608639Y2810140D01*
X2608159Y2813519D01*
X2607120Y2816620D01*
X2605539Y2819460D01*
X2603340Y2822120D01*
X2342080Y3083380D01*
X2341240Y3084580D01*
X2340920Y3086019D01*
X2341120Y3087480D01*
X2341460Y3088460D01*
X2342520Y3093800D01*
X2342880Y3099240D01*
X2342520Y3104680D01*
X2341460Y3110040D01*
X2339700Y3115200D01*
X2337280Y3120080D01*
X2334260Y3124620D01*
X2330660Y3128720D01*
X2326560Y3132320D01*
X2322020Y3135340D01*
X2317140Y3137760D01*
X2311980Y3139500D01*
X2306620Y3140580D01*
X2301180Y3140940D01*
X2295740Y3140580D01*
X2290400Y3139500D01*
X2285220Y3137760D01*
X2280340Y3135340D01*
X2275800Y3132320D01*
X2271700Y3128720D01*
X2268120Y3124620D01*
X2265080Y3120080D01*
X2262660Y3115200D01*
X2260920Y3110040D01*
X2259860Y3104680D01*
X2259500Y3099240D01*
X2259860Y3093800D01*
X2260920Y3088460D01*
X2262660Y3083279D01*
X2265080Y3078399D01*
X2268120Y3073860D01*
X2271700Y3069760D01*
X2275800Y3066180D01*
X2280340Y3063140D01*
X2285220Y3060720D01*
X2290400Y3058980D01*
X2295740Y3057919D01*
X2301180Y3057559D01*
X2306620Y3057919D01*
X2311980Y3058980D01*
X2312940Y3059300D01*
X2314400Y3059520D01*
X2315840Y3059180D01*
X2317040Y3058340D01*
X2572080Y2803320D01*
X2572940Y2802020D01*
X2573260Y2800480D01*
X2573260Y2516120D01*
X2572980Y2514680D01*
X2572200Y2513420D01*
X2571019Y2512540D01*
X2570100Y2512080D01*
X2565560Y2509060D01*
X2561460Y2505460D01*
X2557880Y2501360D01*
X2554840Y2496820D01*
X2552440Y2491940D01*
X2550680Y2486780D01*
X2549620Y2481420D01*
X2549260Y2475980D01*
X2549620Y2470540D01*
X2550680Y2465200D01*
X2552440Y2460040D01*
X2554840Y2455140D01*
X2557880Y2450600D01*
X2561460Y2446500D01*
X2565560Y2442920D01*
X2570100Y2439880D01*
X2575000Y2437460D01*
X2580160Y2435720D01*
X2585500Y2434660D01*
G37*
G36*
X2359940Y2647320D02*
G01*
X2369040Y2647500D01*
X2378080Y2648460D01*
X2387020Y2650160D01*
X2395780Y2652600D01*
X2404300Y2655779D01*
X2412540Y2659640D01*
X2420420Y2664200D01*
X2427880Y2669380D01*
X2434900Y2675179D01*
X2441400Y2681560D01*
X2447340Y2688440D01*
X2452680Y2695800D01*
X2457400Y2703580D01*
X2461440Y2711720D01*
X2464780Y2720179D01*
X2467420Y2728900D01*
X2469320Y2737799D01*
X2470460Y2746820D01*
X2470840Y2755899D01*
X2470460Y2765000D01*
X2469320Y2774020D01*
X2467420Y2782919D01*
X2464780Y2791640D01*
X2461440Y2800100D01*
X2457400Y2808240D01*
X2452680Y2816019D01*
X2447340Y2823380D01*
X2441400Y2830260D01*
X2434900Y2836640D01*
X2427880Y2842440D01*
X2420420Y2847620D01*
X2412540Y2852180D01*
X2404300Y2856040D01*
X2395780Y2859220D01*
X2387020Y2861660D01*
X2378080Y2863360D01*
X2369040Y2864320D01*
X2359940Y2864500D01*
X2350860Y2863940D01*
X2341860Y2862600D01*
X2333000Y2860539D01*
X2324340Y2857720D01*
X2315960Y2854200D01*
X2307900Y2849980D01*
X2300220Y2845100D01*
X2292980Y2839600D01*
X2286220Y2833519D01*
X2279980Y2826880D01*
X2274340Y2819760D01*
X2269300Y2812180D01*
X2264920Y2804200D01*
X2261220Y2795899D01*
X2258220Y2787300D01*
X2255960Y2778500D01*
X2254440Y2769520D01*
X2253680Y2760460D01*
X2253680Y2751360D01*
X2254440Y2742300D01*
X2255960Y2733320D01*
X2258220Y2724520D01*
X2261220Y2715920D01*
X2264920Y2707620D01*
X2269300Y2699640D01*
X2274340Y2692060D01*
X2279980Y2684940D01*
X2286220Y2678300D01*
X2292980Y2672220D01*
X2300220Y2666720D01*
X2307900Y2661840D01*
X2315960Y2657620D01*
X2324340Y2654100D01*
X2333000Y2651280D01*
X2341860Y2649220D01*
X2350860Y2647880D01*
G37*
G36*
X590680Y3305779D02*
G01*
X621920Y3305779D01*
X626920Y3306120D01*
X631700Y3307120D01*
X636300Y3308740D01*
X640639Y3311000D01*
X644640Y3313800D01*
X648199Y3317140D01*
X651280Y3320940D01*
X653820Y3325100D01*
X655759Y3329580D01*
X657080Y3334280D01*
X657740Y3339120D01*
X657740Y3344000D01*
X657080Y3348840D01*
X655759Y3353540D01*
X653820Y3358020D01*
X651280Y3362200D01*
X648199Y3365980D01*
X644640Y3369320D01*
X640639Y3372140D01*
X636300Y3374380D01*
X631700Y3376019D01*
X626920Y3377020D01*
X621920Y3377360D01*
X590680Y3377360D01*
X585680Y3377020D01*
X580900Y3376019D01*
X576300Y3374380D01*
X571960Y3372140D01*
X567980Y3369320D01*
X564400Y3365980D01*
X561320Y3362200D01*
X558780Y3358020D01*
X556840Y3353540D01*
X555520Y3348840D01*
X554860Y3344000D01*
X554860Y3339120D01*
X555520Y3334280D01*
X556840Y3329580D01*
X558780Y3325100D01*
X561320Y3320940D01*
X564400Y3317140D01*
X567980Y3313800D01*
X571960Y3311000D01*
X576300Y3308740D01*
X580900Y3307120D01*
X585680Y3306120D01*
G37*
G36*
X718840Y3317580D02*
G01*
X732340Y3317580D01*
X737360Y3317919D01*
X742140Y3318920D01*
X746740Y3320560D01*
X751080Y3322799D01*
X755060Y3325620D01*
X758640Y3328960D01*
X761720Y3332740D01*
X764260Y3336920D01*
X766200Y3341400D01*
X767520Y3346100D01*
X768180Y3350940D01*
X768180Y3355820D01*
X767520Y3360659D01*
X766200Y3365360D01*
X764260Y3369840D01*
X761720Y3374020D01*
X758640Y3377799D01*
X755060Y3381139D01*
X751080Y3383940D01*
X746740Y3386200D01*
X742140Y3387840D01*
X737360Y3388820D01*
X732340Y3389160D01*
X718840Y3389160D01*
X713820Y3388820D01*
X709040Y3387840D01*
X704440Y3386200D01*
X700120Y3383940D01*
X696120Y3381139D01*
X692560Y3377799D01*
X689460Y3374020D01*
X686940Y3369840D01*
X684980Y3365360D01*
X683660Y3360659D01*
X683000Y3355820D01*
X683000Y3350940D01*
X683660Y3346100D01*
X684980Y3341400D01*
X686940Y3336920D01*
X689460Y3332740D01*
X692560Y3328960D01*
X696120Y3325620D01*
X700120Y3322799D01*
X704440Y3320560D01*
X709040Y3318920D01*
X713820Y3317919D01*
G37*
G36*
X718840Y3508540D02*
G01*
X732340Y3508540D01*
X737360Y3508880D01*
X742140Y3509860D01*
X746740Y3511500D01*
X751080Y3513740D01*
X755060Y3516560D01*
X758640Y3519900D01*
X761720Y3523680D01*
X764260Y3527860D01*
X766200Y3532340D01*
X767520Y3537040D01*
X768180Y3541880D01*
X768180Y3546760D01*
X767520Y3551600D01*
X766200Y3556300D01*
X764260Y3560779D01*
X761720Y3564960D01*
X758640Y3568740D01*
X755060Y3572080D01*
X751080Y3574900D01*
X746740Y3577140D01*
X742140Y3578780D01*
X737360Y3579760D01*
X732340Y3580120D01*
X718840Y3580120D01*
X713820Y3579760D01*
X709040Y3578780D01*
X704440Y3577140D01*
X700120Y3574900D01*
X696120Y3572080D01*
X692560Y3568740D01*
X689460Y3564960D01*
X686940Y3560779D01*
X684980Y3556300D01*
X683660Y3551600D01*
X683000Y3546760D01*
X683000Y3541880D01*
X683660Y3537040D01*
X684980Y3532340D01*
X686940Y3527860D01*
X689460Y3523680D01*
X692560Y3519900D01*
X696120Y3516560D01*
X700120Y3513740D01*
X704440Y3511500D01*
X709040Y3509860D01*
X713820Y3508880D01*
G37*
G36*
X590680Y3520340D02*
G01*
X621920Y3520340D01*
X626920Y3520680D01*
X631700Y3521680D01*
X636300Y3523320D01*
X640639Y3525560D01*
X644640Y3528380D01*
X648199Y3531700D01*
X651280Y3535500D01*
X653820Y3539680D01*
X655759Y3544140D01*
X657080Y3548860D01*
X657740Y3553700D01*
X657740Y3558580D01*
X657080Y3563420D01*
X655759Y3568120D01*
X653820Y3572600D01*
X651280Y3576760D01*
X648199Y3580560D01*
X644640Y3583880D01*
X640639Y3586700D01*
X636300Y3588960D01*
X631700Y3590580D01*
X626920Y3591580D01*
X621920Y3591920D01*
X590680Y3591920D01*
X585680Y3591580D01*
X580900Y3590580D01*
X576300Y3588960D01*
X571960Y3586700D01*
X567980Y3583880D01*
X564400Y3580560D01*
X561320Y3576760D01*
X558780Y3572600D01*
X556840Y3568120D01*
X555520Y3563420D01*
X554860Y3558580D01*
X554860Y3553700D01*
X555520Y3548860D01*
X556840Y3544140D01*
X558780Y3539680D01*
X561320Y3535500D01*
X564400Y3531700D01*
X567980Y3528380D01*
X571960Y3525560D01*
X576300Y3523320D01*
X580900Y3521680D01*
X585680Y3520680D01*
G37*
G36*
X601180Y3757559D02*
G01*
X606620Y3757919D01*
X611980Y3758980D01*
X617140Y3760720D01*
X622020Y3763140D01*
X626560Y3766180D01*
X630660Y3769760D01*
X634260Y3773860D01*
X637280Y3778399D01*
X639700Y3783279D01*
X641460Y3788460D01*
X642520Y3793800D01*
X642880Y3799240D01*
X642520Y3804680D01*
X641460Y3810040D01*
X639700Y3815200D01*
X637280Y3820080D01*
X634260Y3824620D01*
X630660Y3828720D01*
X626560Y3832320D01*
X622020Y3835340D01*
X617140Y3837760D01*
X611980Y3839500D01*
X606620Y3840580D01*
X601180Y3840940D01*
X595740Y3840580D01*
X590400Y3839500D01*
X585220Y3837760D01*
X580340Y3835340D01*
X575800Y3832320D01*
X571700Y3828720D01*
X568120Y3824620D01*
X565080Y3820080D01*
X562660Y3815200D01*
X560920Y3810040D01*
X559860Y3804680D01*
X559500Y3799240D01*
X559860Y3793800D01*
X560920Y3788460D01*
X562660Y3783279D01*
X565080Y3778399D01*
X568120Y3773860D01*
X571700Y3769760D01*
X575800Y3766180D01*
X580340Y3763140D01*
X585220Y3760720D01*
X590400Y3758980D01*
X595740Y3757919D01*
G37*
G36*
X801180Y3757559D02*
G01*
X806620Y3757919D01*
X811979Y3758980D01*
X817140Y3760720D01*
X822020Y3763140D01*
X826560Y3766180D01*
X830660Y3769760D01*
X834260Y3773860D01*
X837280Y3778399D01*
X839700Y3783279D01*
X841460Y3788460D01*
X842520Y3793800D01*
X842880Y3799240D01*
X842520Y3804680D01*
X841460Y3810040D01*
X839700Y3815200D01*
X837280Y3820080D01*
X834260Y3824620D01*
X830660Y3828720D01*
X826560Y3832320D01*
X822020Y3835340D01*
X817140Y3837760D01*
X811979Y3839500D01*
X806620Y3840580D01*
X801180Y3840940D01*
X795740Y3840580D01*
X790400Y3839500D01*
X785220Y3837760D01*
X780340Y3835340D01*
X775800Y3832320D01*
X771700Y3828720D01*
X768120Y3824620D01*
X765080Y3820080D01*
X762660Y3815200D01*
X760920Y3810040D01*
X759860Y3804680D01*
X759500Y3799240D01*
X759860Y3793800D01*
X760920Y3788460D01*
X762660Y3783279D01*
X765080Y3778399D01*
X768120Y3773860D01*
X771700Y3769760D01*
X775800Y3766180D01*
X780340Y3763140D01*
X785220Y3760720D01*
X790400Y3758980D01*
X795740Y3757919D01*
G37*
G36*
X901180Y3757559D02*
G01*
X906620Y3757919D01*
X911979Y3758980D01*
X917140Y3760720D01*
X922020Y3763140D01*
X926560Y3766180D01*
X930660Y3769760D01*
X934260Y3773860D01*
X937280Y3778399D01*
X939700Y3783279D01*
X941460Y3788460D01*
X942520Y3793800D01*
X942880Y3799240D01*
X942520Y3804680D01*
X941460Y3810040D01*
X939700Y3815200D01*
X937280Y3820080D01*
X934260Y3824620D01*
X930660Y3828720D01*
X926560Y3832320D01*
X922020Y3835340D01*
X917140Y3837760D01*
X911979Y3839500D01*
X906620Y3840580D01*
X901180Y3840940D01*
X895740Y3840580D01*
X890400Y3839500D01*
X885220Y3837760D01*
X880340Y3835340D01*
X875800Y3832320D01*
X871700Y3828720D01*
X868120Y3824620D01*
X865080Y3820080D01*
X862660Y3815200D01*
X860920Y3810040D01*
X859860Y3804680D01*
X859500Y3799240D01*
X859860Y3793800D01*
X860920Y3788460D01*
X862660Y3783279D01*
X865080Y3778399D01*
X868120Y3773860D01*
X871700Y3769760D01*
X875800Y3766180D01*
X880340Y3763140D01*
X885220Y3760720D01*
X890400Y3758980D01*
X895740Y3757919D01*
G37*
G36*
X1701180Y3757559D02*
G01*
X1706620Y3757919D01*
X1711980Y3758980D01*
X1717140Y3760720D01*
X1722020Y3763140D01*
X1726560Y3766180D01*
X1730660Y3769760D01*
X1734259Y3773860D01*
X1737280Y3778399D01*
X1739700Y3783279D01*
X1741459Y3788460D01*
X1742520Y3793800D01*
X1742880Y3799240D01*
X1742520Y3804680D01*
X1741459Y3810040D01*
X1739700Y3815200D01*
X1737280Y3820080D01*
X1734259Y3824620D01*
X1730660Y3828720D01*
X1726560Y3832320D01*
X1722020Y3835340D01*
X1717140Y3837760D01*
X1711980Y3839500D01*
X1706620Y3840580D01*
X1701180Y3840940D01*
X1695740Y3840580D01*
X1690400Y3839500D01*
X1685220Y3837760D01*
X1680340Y3835340D01*
X1675800Y3832320D01*
X1671699Y3828720D01*
X1668120Y3824620D01*
X1665080Y3820080D01*
X1662660Y3815200D01*
X1660920Y3810040D01*
X1659860Y3804680D01*
X1659500Y3799240D01*
X1659860Y3793800D01*
X1660920Y3788460D01*
X1662660Y3783279D01*
X1665080Y3778399D01*
X1668120Y3773860D01*
X1671699Y3769760D01*
X1675800Y3766180D01*
X1680340Y3763140D01*
X1685220Y3760720D01*
X1690400Y3758980D01*
X1695740Y3757919D01*
G37*
G36*
X1601180Y3757559D02*
G01*
X1606620Y3757919D01*
X1611980Y3758980D01*
X1617140Y3760720D01*
X1622020Y3763140D01*
X1626560Y3766180D01*
X1630660Y3769760D01*
X1634259Y3773860D01*
X1637280Y3778399D01*
X1639700Y3783279D01*
X1641459Y3788460D01*
X1642520Y3793800D01*
X1642880Y3799240D01*
X1642520Y3804680D01*
X1641459Y3810040D01*
X1639700Y3815200D01*
X1637280Y3820080D01*
X1634259Y3824620D01*
X1630660Y3828720D01*
X1626560Y3832320D01*
X1622020Y3835340D01*
X1617140Y3837760D01*
X1611980Y3839500D01*
X1606620Y3840580D01*
X1601180Y3840940D01*
X1595740Y3840580D01*
X1590400Y3839500D01*
X1585220Y3837760D01*
X1580340Y3835340D01*
X1575800Y3832320D01*
X1571699Y3828720D01*
X1568120Y3824620D01*
X1565080Y3820080D01*
X1562660Y3815200D01*
X1560920Y3810040D01*
X1559860Y3804680D01*
X1559500Y3799240D01*
X1559860Y3793800D01*
X1560920Y3788460D01*
X1562660Y3783279D01*
X1565080Y3778399D01*
X1568120Y3773860D01*
X1571699Y3769760D01*
X1575800Y3766180D01*
X1580340Y3763140D01*
X1585220Y3760720D01*
X1590400Y3758980D01*
X1595740Y3757919D01*
G37*
G36*
X2401180Y3757559D02*
G01*
X2406620Y3757919D01*
X2411980Y3758980D01*
X2417140Y3760720D01*
X2422020Y3763140D01*
X2426560Y3766180D01*
X2430660Y3769760D01*
X2434260Y3773860D01*
X2437280Y3778399D01*
X2439700Y3783279D01*
X2441460Y3788460D01*
X2442520Y3793800D01*
X2442880Y3799240D01*
X2442520Y3804680D01*
X2441460Y3810040D01*
X2439700Y3815200D01*
X2437280Y3820080D01*
X2434260Y3824620D01*
X2430660Y3828720D01*
X2426560Y3832320D01*
X2422020Y3835340D01*
X2417140Y3837760D01*
X2411980Y3839500D01*
X2406620Y3840580D01*
X2401180Y3840940D01*
X2395740Y3840580D01*
X2390400Y3839500D01*
X2385220Y3837760D01*
X2380340Y3835340D01*
X2375800Y3832320D01*
X2371700Y3828720D01*
X2368120Y3824620D01*
X2365080Y3820080D01*
X2362660Y3815200D01*
X2360920Y3810040D01*
X2359860Y3804680D01*
X2359500Y3799240D01*
X2359860Y3793800D01*
X2360920Y3788460D01*
X2362660Y3783279D01*
X2365080Y3778399D01*
X2368120Y3773860D01*
X2371700Y3769760D01*
X2375800Y3766180D01*
X2380340Y3763140D01*
X2385220Y3760720D01*
X2390400Y3758980D01*
X2395740Y3757919D01*
G37*
G36*
X682940Y3761860D02*
G01*
X682940Y3781000D01*
X663800Y3781000D01*
X665080Y3778399D01*
X668120Y3773860D01*
X671700Y3769760D01*
X675800Y3766180D01*
X680340Y3763140D01*
G37*
G36*
X719440Y3761860D02*
G01*
X722020Y3763140D01*
X726560Y3766180D01*
X730660Y3769760D01*
X734260Y3773860D01*
X737280Y3778399D01*
X738560Y3781000D01*
X719440Y3781000D01*
G37*
G36*
X663800Y3817500D02*
G01*
X682940Y3817500D01*
X682940Y3836620D01*
X680340Y3835340D01*
X675800Y3832320D01*
X671700Y3828720D01*
X668120Y3824620D01*
X665080Y3820080D01*
G37*
G36*
X719440Y3817500D02*
G01*
X738560Y3817500D01*
X737280Y3820080D01*
X734260Y3824620D01*
X730660Y3828720D01*
X726560Y3832320D01*
X722020Y3835340D01*
X719440Y3836620D01*
G37*
G36*
X2319340Y4238520D02*
G01*
X2324320Y4239040D01*
X2329200Y4240260D01*
X2333840Y4242140D01*
X2338180Y4244640D01*
X2342140Y4247740D01*
X2345620Y4251340D01*
X2348560Y4255400D01*
X2350920Y4259820D01*
X2352640Y4264540D01*
X2353680Y4269440D01*
X2354020Y4274440D01*
X2353680Y4279440D01*
X2352640Y4284340D01*
X2350920Y4289060D01*
X2348560Y4293480D01*
X2345620Y4297540D01*
X2342140Y4301140D01*
X2338180Y4304240D01*
X2333840Y4306740D01*
X2329200Y4308620D01*
X2324320Y4309840D01*
X2319340Y4310360D01*
X2314340Y4310180D01*
X2309400Y4309320D01*
X2304620Y4307760D01*
X2300120Y4305560D01*
X2295960Y4302760D01*
X2292240Y4299400D01*
X2289020Y4295560D01*
X2286360Y4291320D01*
X2284320Y4286740D01*
X2282940Y4281920D01*
X2282240Y4276940D01*
X2282240Y4271940D01*
X2282940Y4266960D01*
X2284320Y4262140D01*
X2286360Y4257560D01*
X2289020Y4253320D01*
X2292240Y4249480D01*
X2295960Y4246120D01*
X2300120Y4243320D01*
X2304620Y4241120D01*
X2309400Y4239560D01*
X2314340Y4238700D01*
G37*
G36*
X1183580Y4596120D02*
G01*
X1193520Y4596700D01*
X1203380Y4598060D01*
X1213100Y4600160D01*
X1222620Y4603020D01*
X1231900Y4606600D01*
X1240880Y4610880D01*
X1249500Y4615860D01*
X1257700Y4621500D01*
X1265460Y4627740D01*
X1272700Y4634560D01*
X1279380Y4641940D01*
X1285480Y4649800D01*
X1290940Y4658120D01*
X1295740Y4666820D01*
X1299860Y4675880D01*
X1303280Y4685240D01*
X1305940Y4694820D01*
X1307860Y4704580D01*
X1309019Y4714460D01*
X1309400Y4724400D01*
X1309019Y4734360D01*
X1307860Y4744240D01*
X1305940Y4754000D01*
X1303280Y4763580D01*
X1299860Y4772940D01*
X1295740Y4782000D01*
X1290940Y4790700D01*
X1285480Y4799020D01*
X1279380Y4806880D01*
X1272700Y4814260D01*
X1265460Y4821080D01*
X1257700Y4827320D01*
X1249500Y4832960D01*
X1240880Y4837940D01*
X1231900Y4842220D01*
X1222620Y4845800D01*
X1213100Y4848660D01*
X1203380Y4850760D01*
X1193520Y4852120D01*
X1183580Y4852700D01*
X1173620Y4852500D01*
X1163720Y4851540D01*
X1153920Y4849800D01*
X1144300Y4847320D01*
X1134880Y4844100D01*
X1125740Y4840160D01*
X1116940Y4835520D01*
X1108520Y4830220D01*
X1100540Y4824280D01*
X1093040Y4817740D01*
X1086080Y4810640D01*
X1079680Y4803020D01*
X1073900Y4794920D01*
X1068740Y4786400D01*
X1064280Y4777500D01*
X1060520Y4768300D01*
X1057480Y4758820D01*
X1055180Y4749140D01*
X1053660Y4739300D01*
X1052880Y4729380D01*
X1052880Y4719440D01*
X1053660Y4709520D01*
X1055180Y4699680D01*
X1057480Y4690000D01*
X1060520Y4680520D01*
X1064280Y4671320D01*
X1068740Y4662420D01*
X1073900Y4653900D01*
X1079680Y4645800D01*
X1086080Y4638180D01*
X1093040Y4631080D01*
X1100540Y4624540D01*
X1108520Y4618600D01*
X1116940Y4613300D01*
X1125740Y4608660D01*
X1134880Y4604720D01*
X1144300Y4601500D01*
X1153920Y4599020D01*
X1163720Y4597280D01*
X1173620Y4596320D01*
G37*
G36*
X1990980Y4647480D02*
G01*
X1995140Y4647480D01*
X1995140Y4666000D01*
X1980540Y4666000D01*
X1980540Y4657900D01*
X1980820Y4655400D01*
X1981579Y4653260D01*
X1982800Y4651320D01*
X1984400Y4649720D01*
X1986339Y4648500D01*
X1988480Y4647760D01*
G37*
G36*
X2013920Y4647480D02*
G01*
X2018080Y4647480D01*
X2020580Y4647760D01*
X2022720Y4648500D01*
X2024660Y4649720D01*
X2026260Y4651320D01*
X2027480Y4653260D01*
X2028220Y4655400D01*
X2028500Y4657900D01*
X2028500Y4666000D01*
X2013920Y4666000D01*
G37*
G36*
X1751080Y4692460D02*
G01*
X1754920Y4692800D01*
X1758660Y4693800D01*
X1762160Y4695440D01*
X1765340Y4697660D01*
X1768080Y4700400D01*
X1770300Y4703560D01*
X1771920Y4707080D01*
X1772900Y4710700D01*
X1773300Y4711660D01*
X1773940Y4712500D01*
X2217020Y5155560D01*
X2218300Y5156440D01*
X2219840Y5156740D01*
X2284660Y5156740D01*
X2285980Y5156520D01*
X2287160Y5155860D01*
X2288040Y5154860D01*
X2289020Y5153320D01*
X2292240Y5149480D01*
X2295960Y5146120D01*
X2300120Y5143320D01*
X2304620Y5141120D01*
X2309400Y5139560D01*
X2314340Y5138700D01*
X2319340Y5138520D01*
X2324320Y5139040D01*
X2329200Y5140260D01*
X2333840Y5142140D01*
X2338180Y5144640D01*
X2342140Y5147740D01*
X2345620Y5151340D01*
X2348560Y5155400D01*
X2350920Y5159820D01*
X2352640Y5164539D01*
X2353680Y5169440D01*
X2354020Y5174440D01*
X2353680Y5179440D01*
X2352640Y5184340D01*
X2350920Y5189059D01*
X2348560Y5193480D01*
X2345620Y5197540D01*
X2342140Y5201140D01*
X2338180Y5204240D01*
X2333840Y5206740D01*
X2329200Y5208620D01*
X2324320Y5209840D01*
X2319340Y5210359D01*
X2314340Y5210180D01*
X2309400Y5209320D01*
X2304620Y5207760D01*
X2300120Y5205560D01*
X2295960Y5202760D01*
X2292240Y5199400D01*
X2289020Y5195560D01*
X2288040Y5194020D01*
X2287160Y5193020D01*
X2285980Y5192360D01*
X2284660Y5192140D01*
X2210180Y5192120D01*
X2206800Y5191660D01*
X2203700Y5190620D01*
X2200860Y5189020D01*
X2198200Y5186820D01*
X1748899Y4737520D01*
X1748080Y4736880D01*
X1747100Y4736480D01*
X1743480Y4735520D01*
X1739980Y4733880D01*
X1736800Y4731660D01*
X1734079Y4728920D01*
X1731860Y4725760D01*
X1730220Y4722260D01*
X1729220Y4718520D01*
X1728880Y4714660D01*
X1729220Y4710800D01*
X1730220Y4707080D01*
X1731860Y4703560D01*
X1734079Y4700400D01*
X1736800Y4697660D01*
X1739980Y4695440D01*
X1743480Y4693800D01*
X1747220Y4692800D01*
G37*
G36*
X572680Y5009520D02*
G01*
X579780Y5010080D01*
X586800Y5011360D01*
X593640Y5013340D01*
X600240Y5016040D01*
X606540Y5019380D01*
X612460Y5023360D01*
X617920Y5027940D01*
X622900Y5033040D01*
X627320Y5038620D01*
X631160Y5044640D01*
X634340Y5051020D01*
X636860Y5057700D01*
X638680Y5064580D01*
X639760Y5071640D01*
X640140Y5078740D01*
X639760Y5085860D01*
X638680Y5092920D01*
X636860Y5099800D01*
X634340Y5106480D01*
X631160Y5112860D01*
X627320Y5118880D01*
X622900Y5124460D01*
X617920Y5129560D01*
X612460Y5134140D01*
X606540Y5138120D01*
X600240Y5141460D01*
X593640Y5144160D01*
X586800Y5146140D01*
X579780Y5147420D01*
X572680Y5147980D01*
X565540Y5147780D01*
X558480Y5146880D01*
X551540Y5145240D01*
X544800Y5142900D01*
X538340Y5139880D01*
X532240Y5136200D01*
X526540Y5131920D01*
X521300Y5127080D01*
X516599Y5121720D01*
X512460Y5115920D01*
X508960Y5109700D01*
X506100Y5103180D01*
X503920Y5096380D01*
X502480Y5089400D01*
X501740Y5082320D01*
X501740Y5075180D01*
X502480Y5068100D01*
X503920Y5061120D01*
X506100Y5054320D01*
X508960Y5047800D01*
X512460Y5041580D01*
X516599Y5035780D01*
X521300Y5030420D01*
X526540Y5025580D01*
X532240Y5021300D01*
X538340Y5017620D01*
X544800Y5014600D01*
X551540Y5012260D01*
X558480Y5010620D01*
X565540Y5009720D01*
G37*
G36*
X2541180Y5009520D02*
G01*
X2548280Y5010080D01*
X2555300Y5011360D01*
X2562140Y5013340D01*
X2568740Y5016040D01*
X2575040Y5019380D01*
X2580960Y5023360D01*
X2586420Y5027940D01*
X2591400Y5033040D01*
X2595820Y5038620D01*
X2599660Y5044640D01*
X2602840Y5051020D01*
X2605360Y5057700D01*
X2607180Y5064580D01*
X2608260Y5071640D01*
X2608639Y5078740D01*
X2608260Y5085860D01*
X2607180Y5092920D01*
X2605360Y5099800D01*
X2602840Y5106480D01*
X2599660Y5112860D01*
X2595820Y5118880D01*
X2591400Y5124460D01*
X2586420Y5129560D01*
X2580960Y5134140D01*
X2575040Y5138120D01*
X2568740Y5141460D01*
X2562140Y5144160D01*
X2555300Y5146140D01*
X2548280Y5147420D01*
X2541180Y5147980D01*
X2534040Y5147780D01*
X2526980Y5146880D01*
X2520040Y5145240D01*
X2513300Y5142900D01*
X2506840Y5139880D01*
X2500740Y5136200D01*
X2495040Y5131920D01*
X2489800Y5127080D01*
X2485100Y5121720D01*
X2480960Y5115920D01*
X2477460Y5109700D01*
X2474600Y5103180D01*
X2472420Y5096380D01*
X2470980Y5089400D01*
X2470240Y5082320D01*
X2470240Y5075180D01*
X2470980Y5068100D01*
X2472420Y5061120D01*
X2474600Y5054320D01*
X2477460Y5047800D01*
X2480960Y5041580D01*
X2485100Y5035780D01*
X2489800Y5030420D01*
X2495040Y5025580D01*
X2500740Y5021300D01*
X2506840Y5017620D01*
X2513300Y5014600D01*
X2520040Y5012260D01*
X2526980Y5010620D01*
X2534040Y5009720D01*
G37*
G36*
X950260Y5035240D02*
G01*
X954120Y5035580D01*
X957860Y5036580D01*
X961360Y5038220D01*
X962500Y5039000D01*
X963580Y5039540D01*
X964780Y5039740D01*
X981360Y5039740D01*
X984720Y5040220D01*
X987820Y5041260D01*
X990680Y5042840D01*
X993319Y5045040D01*
X1086540Y5138260D01*
X1087580Y5139020D01*
X1088800Y5139400D01*
X1090080Y5139380D01*
X1093940Y5138700D01*
X1098940Y5138520D01*
X1103920Y5139040D01*
X1108800Y5140260D01*
X1113440Y5142140D01*
X1117780Y5144640D01*
X1121740Y5147740D01*
X1125220Y5151340D01*
X1128160Y5155400D01*
X1130520Y5159820D01*
X1132240Y5164539D01*
X1133280Y5169440D01*
X1133620Y5174440D01*
X1133280Y5179440D01*
X1132240Y5184340D01*
X1130520Y5189059D01*
X1128160Y5193480D01*
X1125220Y5197540D01*
X1121740Y5201140D01*
X1117780Y5204240D01*
X1113440Y5206740D01*
X1108800Y5208620D01*
X1103920Y5209840D01*
X1098940Y5210359D01*
X1093940Y5210180D01*
X1089000Y5209320D01*
X1084220Y5207760D01*
X1079720Y5205560D01*
X1075560Y5202760D01*
X1071840Y5199400D01*
X1068620Y5195560D01*
X1065960Y5191319D01*
X1063920Y5186740D01*
X1062540Y5181920D01*
X1061840Y5176940D01*
X1061840Y5171940D01*
X1062600Y5166640D01*
X1062580Y5165400D01*
X1062180Y5164240D01*
X1061460Y5163240D01*
X974520Y5076300D01*
X973220Y5075440D01*
X971700Y5075140D01*
X964780Y5075140D01*
X963580Y5075320D01*
X962500Y5075860D01*
X961360Y5076660D01*
X957860Y5078280D01*
X954120Y5079280D01*
X950260Y5079620D01*
X946400Y5079280D01*
X942680Y5078280D01*
X939160Y5076660D01*
X936000Y5074440D01*
X933259Y5071700D01*
X931040Y5068520D01*
X929400Y5065020D01*
X928400Y5061280D01*
X928060Y5057440D01*
X928400Y5053580D01*
X929400Y5049840D01*
X931040Y5046340D01*
X933259Y5043160D01*
X936000Y5040440D01*
X939160Y5038220D01*
X942680Y5036580D01*
X946400Y5035580D01*
G37*
G36*
X2013839Y5138520D02*
G01*
X2018820Y5139040D01*
X2023700Y5140260D01*
X2028340Y5142140D01*
X2032680Y5144640D01*
X2036639Y5147740D01*
X2040120Y5151340D01*
X2043060Y5155400D01*
X2045420Y5159820D01*
X2047140Y5164539D01*
X2048180Y5169440D01*
X2048520Y5174440D01*
X2048180Y5179440D01*
X2047140Y5184340D01*
X2045420Y5189059D01*
X2043060Y5193480D01*
X2040120Y5197540D01*
X2036639Y5201140D01*
X2032680Y5204240D01*
X2028340Y5206740D01*
X2023700Y5208620D01*
X2018820Y5209840D01*
X2013839Y5210359D01*
X2008839Y5210180D01*
X2003899Y5209320D01*
X1999120Y5207760D01*
X1994620Y5205560D01*
X1990460Y5202760D01*
X1986740Y5199400D01*
X1983520Y5195560D01*
X1980860Y5191319D01*
X1978820Y5186740D01*
X1977440Y5181920D01*
X1976740Y5176940D01*
X1976740Y5171940D01*
X1977440Y5166960D01*
X1978820Y5162140D01*
X1980860Y5157560D01*
X1983520Y5153320D01*
X1986740Y5149480D01*
X1990460Y5146120D01*
X1994620Y5143320D01*
X1999120Y5141120D01*
X2003899Y5139560D01*
X2008839Y5138700D01*
G37*
G36*
X793439Y5138520D02*
G01*
X798420Y5139040D01*
X803300Y5140260D01*
X807940Y5142140D01*
X812280Y5144640D01*
X816240Y5147740D01*
X819720Y5151340D01*
X822660Y5155400D01*
X825020Y5159820D01*
X826740Y5164539D01*
X827780Y5169440D01*
X828120Y5174440D01*
X827780Y5179440D01*
X826740Y5184340D01*
X825020Y5189059D01*
X822660Y5193480D01*
X819720Y5197540D01*
X816240Y5201140D01*
X812280Y5204240D01*
X807940Y5206740D01*
X803300Y5208620D01*
X798420Y5209840D01*
X793439Y5210359D01*
X788439Y5210180D01*
X783500Y5209320D01*
X778720Y5207760D01*
X774220Y5205560D01*
X770060Y5202760D01*
X766340Y5199400D01*
X763120Y5195560D01*
X760460Y5191319D01*
X758420Y5186740D01*
X757039Y5181920D01*
X756340Y5176940D01*
X756340Y5171940D01*
X757039Y5166960D01*
X758420Y5162140D01*
X760460Y5157560D01*
X763120Y5153320D01*
X766340Y5149480D01*
X770060Y5146120D01*
X774220Y5143320D01*
X778720Y5141120D01*
X783500Y5139560D01*
X788439Y5138700D01*
G37*
G36*
X1557000Y5239860D02*
G01*
X1564620Y5240420D01*
X1572160Y5241700D01*
X1579540Y5243720D01*
X1586680Y5246420D01*
X1593520Y5249820D01*
X1600020Y5253840D01*
X1606100Y5258480D01*
X1611699Y5263700D01*
X1616759Y5269420D01*
X1621260Y5275599D01*
X1625120Y5282180D01*
X1628340Y5289120D01*
X1630880Y5296319D01*
X1632720Y5303740D01*
X1633820Y5311300D01*
X1634180Y5318940D01*
X1633820Y5326580D01*
X1632720Y5334140D01*
X1630880Y5341559D01*
X1628340Y5348760D01*
X1625120Y5355700D01*
X1621260Y5362279D01*
X1616759Y5368460D01*
X1611699Y5374180D01*
X1606100Y5379400D01*
X1600020Y5384040D01*
X1593520Y5388060D01*
X1586680Y5391460D01*
X1579540Y5394160D01*
X1572160Y5396180D01*
X1564620Y5397460D01*
X1557000Y5398020D01*
X1549360Y5397820D01*
X1541780Y5396900D01*
X1534319Y5395260D01*
X1527040Y5392900D01*
X1520040Y5389840D01*
X1513360Y5386120D01*
X1507060Y5381780D01*
X1501220Y5376860D01*
X1495880Y5371380D01*
X1491100Y5365440D01*
X1486920Y5359040D01*
X1483360Y5352279D01*
X1480480Y5345200D01*
X1478300Y5337859D01*
X1476819Y5330359D01*
X1476080Y5322760D01*
X1476080Y5315119D01*
X1476819Y5307519D01*
X1478300Y5300019D01*
X1480480Y5292680D01*
X1483360Y5285599D01*
X1486920Y5278840D01*
X1491100Y5272440D01*
X1495880Y5266500D01*
X1501220Y5261020D01*
X1507060Y5256100D01*
X1513360Y5251760D01*
X1520040Y5248040D01*
X1527040Y5244980D01*
X1534319Y5242619D01*
X1541780Y5240980D01*
X1549360Y5240060D01*
G37*
G36*
X972080Y5475760D02*
G01*
X1727180Y5475780D01*
X1730540Y5476240D01*
X1733640Y5477279D01*
X1736500Y5478880D01*
X1739139Y5481079D01*
X2191240Y5933180D01*
X2192480Y5934020D01*
X2193920Y5934340D01*
X2195400Y5934120D01*
X2196680Y5933380D01*
X2197620Y5932220D01*
X2198120Y5930220D01*
X2198860Y5928060D01*
X2200080Y5926140D01*
X2201680Y5924520D01*
X2203620Y5923320D01*
X2205760Y5922560D01*
X2208260Y5922279D01*
X2287800Y5922279D01*
X2290300Y5922560D01*
X2292440Y5923320D01*
X2294380Y5924520D01*
X2295980Y5926140D01*
X2297200Y5928060D01*
X2297960Y5930220D01*
X2298460Y5932220D01*
X2299380Y5933380D01*
X2300680Y5934120D01*
X2302140Y5934340D01*
X2303600Y5934000D01*
X2304820Y5933180D01*
X2338400Y5899600D01*
X2341120Y5897560D01*
X2344040Y5896100D01*
X2347180Y5895200D01*
X2350620Y5894900D01*
X2553020Y5894900D01*
X2556400Y5895380D01*
X2559500Y5896420D01*
X2562340Y5898000D01*
X2565000Y5900200D01*
X2594660Y5929900D01*
X2596720Y5932619D01*
X2598159Y5935540D01*
X2599060Y5938680D01*
X2599380Y5942100D01*
X2599360Y6052100D01*
X2598900Y6055480D01*
X2597860Y6058579D01*
X2596259Y6061420D01*
X2594060Y6064080D01*
X2590680Y6067460D01*
X2589820Y6068740D01*
X2589520Y6070240D01*
X2589800Y6071760D01*
X2590620Y6073060D01*
X2591139Y6073600D01*
X2593200Y6076319D01*
X2594640Y6079240D01*
X2595539Y6082380D01*
X2595860Y6085800D01*
X2595840Y6255620D01*
X2595380Y6259000D01*
X2594340Y6262100D01*
X2592720Y6264980D01*
X2591200Y6266900D01*
X2589180Y6268920D01*
X2586500Y6270940D01*
X2583580Y6272400D01*
X2580400Y6273300D01*
X2577960Y6273579D01*
X2573860Y6273620D01*
X2572340Y6273920D01*
X2571060Y6274800D01*
X2570179Y6276079D01*
X2569880Y6277619D01*
X2569880Y6280680D01*
X2569600Y6283180D01*
X2568860Y6285320D01*
X2567640Y6287260D01*
X2566019Y6288860D01*
X2564100Y6290080D01*
X2561960Y6290820D01*
X2559460Y6291100D01*
X2479920Y6291100D01*
X2477420Y6290820D01*
X2475280Y6290080D01*
X2473340Y6288860D01*
X2471740Y6287260D01*
X2470520Y6285320D01*
X2469760Y6283180D01*
X2469480Y6280680D01*
X2469480Y6234740D01*
X2469140Y6233120D01*
X2468180Y6231780D01*
X2466760Y6230940D01*
X2465120Y6230760D01*
X2462080Y6231040D01*
X1661000Y6231040D01*
X1659480Y6231340D01*
X1658180Y6232200D01*
X1493480Y6396900D01*
X1492640Y6398160D01*
X1492320Y6399640D01*
X1492580Y6401140D01*
X1493360Y6402420D01*
X1494580Y6403320D01*
X1496060Y6403720D01*
X1496980Y6403780D01*
X1502140Y6404800D01*
X1507120Y6406480D01*
X1511819Y6408819D01*
X1516200Y6411740D01*
X1520160Y6415200D01*
X1523620Y6419160D01*
X1526540Y6423520D01*
X1528860Y6428240D01*
X1530560Y6433220D01*
X1531579Y6438380D01*
X1531940Y6443760D01*
X1531940Y6503500D01*
X1531579Y6508860D01*
X1530560Y6514020D01*
X1528860Y6519000D01*
X1526540Y6523720D01*
X1523620Y6528080D01*
X1520160Y6532039D01*
X1516200Y6535500D01*
X1511819Y6538420D01*
X1507120Y6540760D01*
X1502140Y6542440D01*
X1496980Y6543460D01*
X1491740Y6543819D01*
X1486480Y6543460D01*
X1481320Y6542440D01*
X1476360Y6540760D01*
X1471639Y6538420D01*
X1467260Y6535500D01*
X1463320Y6532039D01*
X1459840Y6528080D01*
X1456920Y6523720D01*
X1454600Y6519000D01*
X1452920Y6514020D01*
X1451879Y6508860D01*
X1451540Y6503500D01*
X1451540Y6448500D01*
X1451220Y6446980D01*
X1450360Y6445680D01*
X1449060Y6444820D01*
X1447540Y6444500D01*
X1446000Y6444820D01*
X1444700Y6445680D01*
X1433100Y6457279D01*
X1432240Y6458579D01*
X1431940Y6460100D01*
X1431940Y6503500D01*
X1431579Y6508860D01*
X1430560Y6514020D01*
X1428860Y6519000D01*
X1426540Y6523720D01*
X1423620Y6528080D01*
X1420160Y6532039D01*
X1416200Y6535500D01*
X1411819Y6538420D01*
X1407120Y6540760D01*
X1402140Y6542440D01*
X1396980Y6543460D01*
X1391740Y6543819D01*
X1386480Y6543460D01*
X1381320Y6542440D01*
X1376360Y6540760D01*
X1371639Y6538420D01*
X1367260Y6535500D01*
X1363320Y6532039D01*
X1359840Y6528080D01*
X1356920Y6523720D01*
X1354600Y6519000D01*
X1352920Y6514020D01*
X1351879Y6508860D01*
X1351540Y6503500D01*
X1351540Y6448500D01*
X1351220Y6446980D01*
X1350360Y6445680D01*
X1349060Y6444820D01*
X1347540Y6444500D01*
X1346000Y6444820D01*
X1344700Y6445680D01*
X1333100Y6457279D01*
X1332240Y6458579D01*
X1331940Y6460100D01*
X1331940Y6503500D01*
X1331579Y6508860D01*
X1330560Y6514020D01*
X1328860Y6519000D01*
X1326540Y6523720D01*
X1323620Y6528080D01*
X1320160Y6532039D01*
X1316200Y6535500D01*
X1311819Y6538420D01*
X1307120Y6540760D01*
X1302140Y6542440D01*
X1296980Y6543460D01*
X1291740Y6543819D01*
X1286480Y6543460D01*
X1281320Y6542440D01*
X1276360Y6540760D01*
X1271640Y6538420D01*
X1267260Y6535500D01*
X1263320Y6532039D01*
X1259840Y6528080D01*
X1256920Y6523720D01*
X1254600Y6519000D01*
X1252920Y6514020D01*
X1251880Y6508860D01*
X1251540Y6503500D01*
X1251540Y6448500D01*
X1251220Y6446980D01*
X1250360Y6445680D01*
X1249060Y6444820D01*
X1247540Y6444500D01*
X1246000Y6444820D01*
X1244700Y6445680D01*
X1233100Y6457279D01*
X1232240Y6458579D01*
X1231940Y6460100D01*
X1231940Y6503500D01*
X1231580Y6508860D01*
X1230560Y6514020D01*
X1228860Y6519000D01*
X1226540Y6523720D01*
X1223620Y6528080D01*
X1220160Y6532039D01*
X1216200Y6535500D01*
X1211820Y6538420D01*
X1207120Y6540760D01*
X1202140Y6542440D01*
X1196980Y6543460D01*
X1191740Y6543819D01*
X1186480Y6543460D01*
X1181320Y6542440D01*
X1176360Y6540760D01*
X1171640Y6538420D01*
X1167260Y6535500D01*
X1163320Y6532039D01*
X1159840Y6528080D01*
X1156920Y6523720D01*
X1154600Y6519000D01*
X1152920Y6514020D01*
X1151880Y6508860D01*
X1151540Y6503500D01*
X1151540Y6443760D01*
X1151880Y6438380D01*
X1152920Y6433220D01*
X1154600Y6428240D01*
X1156920Y6423520D01*
X1159840Y6419160D01*
X1163320Y6415200D01*
X1167260Y6411740D01*
X1171640Y6408819D01*
X1176360Y6406480D01*
X1181320Y6404800D01*
X1186480Y6403780D01*
X1191740Y6403440D01*
X1196980Y6403780D01*
X1202140Y6404800D01*
X1207120Y6406480D01*
X1211820Y6408819D01*
X1216200Y6411740D01*
X1219980Y6415060D01*
X1221280Y6415820D01*
X1222740Y6416040D01*
X1224200Y6415720D01*
X1225440Y6414880D01*
X1653260Y5987080D01*
X1655980Y5985019D01*
X1658899Y5983579D01*
X1662040Y5982680D01*
X1665480Y5982360D01*
X2184820Y5982360D01*
X2186400Y5982039D01*
X2187700Y5981140D01*
X2188560Y5979779D01*
X2188820Y5978200D01*
X2188440Y5976640D01*
X2187480Y5975359D01*
X2186100Y5974560D01*
X2183380Y5973660D01*
X2180520Y5972060D01*
X2177880Y5969860D01*
X1720340Y5512340D01*
X1719040Y5511460D01*
X1717520Y5511160D01*
X1525440Y5511160D01*
X1523940Y5511440D01*
X1522660Y5512279D01*
X1521800Y5513520D01*
X1521440Y5514980D01*
X1521660Y5516480D01*
X1522420Y5517800D01*
X1523620Y5519160D01*
X1526540Y5523520D01*
X1528860Y5528240D01*
X1530560Y5533220D01*
X1531579Y5538380D01*
X1531940Y5543760D01*
X1531940Y5603500D01*
X1531579Y5608860D01*
X1530560Y5614020D01*
X1528860Y5619000D01*
X1526540Y5623720D01*
X1523620Y5628080D01*
X1520160Y5632039D01*
X1516200Y5635500D01*
X1511819Y5638420D01*
X1507120Y5640760D01*
X1502140Y5642440D01*
X1496980Y5643460D01*
X1491740Y5643819D01*
X1486480Y5643460D01*
X1481320Y5642440D01*
X1476360Y5640760D01*
X1471639Y5638420D01*
X1467260Y5635500D01*
X1463320Y5632039D01*
X1459840Y5628080D01*
X1456920Y5623720D01*
X1454600Y5619000D01*
X1452920Y5614020D01*
X1451879Y5608860D01*
X1451540Y5603500D01*
X1451540Y5543760D01*
X1451879Y5538380D01*
X1452920Y5533220D01*
X1454600Y5528240D01*
X1456920Y5523520D01*
X1459840Y5519160D01*
X1461040Y5517800D01*
X1461800Y5516480D01*
X1462020Y5514980D01*
X1461680Y5513520D01*
X1460800Y5512279D01*
X1459520Y5511440D01*
X1458020Y5511160D01*
X1425440Y5511160D01*
X1423940Y5511440D01*
X1422660Y5512279D01*
X1421800Y5513520D01*
X1421440Y5514980D01*
X1421660Y5516480D01*
X1422420Y5517800D01*
X1423620Y5519160D01*
X1426540Y5523520D01*
X1428860Y5528240D01*
X1430560Y5533220D01*
X1431579Y5538380D01*
X1431940Y5543760D01*
X1431940Y5603500D01*
X1431579Y5608860D01*
X1430560Y5614020D01*
X1428860Y5619000D01*
X1426540Y5623720D01*
X1423620Y5628080D01*
X1420160Y5632039D01*
X1416200Y5635500D01*
X1411819Y5638420D01*
X1407120Y5640760D01*
X1402140Y5642440D01*
X1396980Y5643460D01*
X1391740Y5643819D01*
X1386480Y5643460D01*
X1381320Y5642440D01*
X1376360Y5640760D01*
X1371639Y5638420D01*
X1367260Y5635500D01*
X1363320Y5632039D01*
X1359840Y5628080D01*
X1356920Y5623720D01*
X1354600Y5619000D01*
X1352920Y5614020D01*
X1351879Y5608860D01*
X1351540Y5603500D01*
X1351540Y5543760D01*
X1351879Y5538380D01*
X1352920Y5533220D01*
X1354600Y5528240D01*
X1356920Y5523520D01*
X1359840Y5519160D01*
X1361040Y5517800D01*
X1361800Y5516480D01*
X1362020Y5514980D01*
X1361680Y5513520D01*
X1360800Y5512279D01*
X1359520Y5511440D01*
X1358020Y5511160D01*
X1325440Y5511160D01*
X1323940Y5511440D01*
X1322660Y5512279D01*
X1321800Y5513520D01*
X1321440Y5514980D01*
X1321660Y5516480D01*
X1322420Y5517800D01*
X1323620Y5519160D01*
X1326540Y5523520D01*
X1328860Y5528240D01*
X1330560Y5533220D01*
X1331579Y5538380D01*
X1331940Y5543760D01*
X1331940Y5603500D01*
X1331579Y5608860D01*
X1330560Y5614020D01*
X1328860Y5619000D01*
X1326540Y5623720D01*
X1323620Y5628080D01*
X1320160Y5632039D01*
X1316200Y5635500D01*
X1311819Y5638420D01*
X1307120Y5640760D01*
X1302140Y5642440D01*
X1296980Y5643460D01*
X1291740Y5643819D01*
X1286480Y5643460D01*
X1281320Y5642440D01*
X1276360Y5640760D01*
X1271640Y5638420D01*
X1267260Y5635500D01*
X1263480Y5632180D01*
X1262200Y5631440D01*
X1260720Y5631200D01*
X1259260Y5631520D01*
X1258020Y5632360D01*
X1224320Y5666060D01*
X1223460Y5667360D01*
X1223160Y5668880D01*
X1223120Y5673660D01*
X1222660Y5676980D01*
X1221620Y5680080D01*
X1220040Y5682940D01*
X1217840Y5685580D01*
X960600Y5942820D01*
X959740Y5944120D01*
X959440Y5945640D01*
X959440Y6409779D01*
X959720Y6411260D01*
X960540Y6412540D01*
X961780Y6413420D01*
X963259Y6413780D01*
X964760Y6413560D01*
X966060Y6412780D01*
X967260Y6411740D01*
X971640Y6408819D01*
X976360Y6406480D01*
X981320Y6404800D01*
X986480Y6403780D01*
X991740Y6403440D01*
X996979Y6403780D01*
X1002140Y6404800D01*
X1007120Y6406480D01*
X1011820Y6408819D01*
X1016200Y6411740D01*
X1020160Y6415200D01*
X1023620Y6419160D01*
X1026540Y6423520D01*
X1028860Y6428240D01*
X1030560Y6433220D01*
X1031580Y6438380D01*
X1031940Y6443760D01*
X1031940Y6503500D01*
X1031580Y6508860D01*
X1030560Y6514020D01*
X1028860Y6519000D01*
X1026540Y6523720D01*
X1023620Y6528080D01*
X1020160Y6532039D01*
X1016200Y6535500D01*
X1011820Y6538420D01*
X1007120Y6540760D01*
X1002140Y6542440D01*
X996979Y6543460D01*
X991740Y6543819D01*
X986480Y6543460D01*
X981320Y6542440D01*
X976360Y6540760D01*
X971640Y6538420D01*
X967260Y6535500D01*
X966060Y6534460D01*
X964760Y6533700D01*
X963259Y6533460D01*
X961780Y6533819D01*
X960540Y6534700D01*
X959720Y6535980D01*
X959440Y6537460D01*
X959440Y6982840D01*
X959740Y6984360D01*
X960600Y6985660D01*
X1047920Y7072960D01*
X1049200Y7073840D01*
X1050740Y7074140D01*
X1149120Y7074160D01*
X1152480Y7074620D01*
X1155580Y7075660D01*
X1158440Y7077260D01*
X1161080Y7079460D01*
X1287980Y7206360D01*
X1289220Y7207200D01*
X1290700Y7207519D01*
X1292180Y7207279D01*
X1293480Y7206520D01*
X1294379Y7205320D01*
X1294800Y7203880D01*
X1295160Y7199760D01*
X1296160Y7196040D01*
X1297800Y7192519D01*
X1300020Y7189360D01*
X1302740Y7186620D01*
X1305920Y7184400D01*
X1309420Y7182760D01*
X1313040Y7181799D01*
X1314000Y7181400D01*
X1314840Y7180760D01*
X1320240Y7175400D01*
X1322920Y7173360D01*
X1325840Y7171920D01*
X1327480Y7171440D01*
X1328980Y7170640D01*
X1330020Y7169260D01*
X1330380Y7167580D01*
X1330000Y7165920D01*
X1328940Y7163660D01*
X1327940Y7159920D01*
X1327600Y7156060D01*
X1327940Y7152200D01*
X1328940Y7148480D01*
X1330580Y7144960D01*
X1331380Y7143819D01*
X1331920Y7142740D01*
X1332100Y7141540D01*
X1332120Y6933099D01*
X1332580Y6929720D01*
X1333620Y6926620D01*
X1335220Y6923780D01*
X1337420Y6921120D01*
X1678320Y6580220D01*
X1678959Y6579400D01*
X1679360Y6578420D01*
X1680320Y6574800D01*
X1681960Y6571300D01*
X1684180Y6568120D01*
X1686920Y6565400D01*
X1690080Y6563180D01*
X1693600Y6561540D01*
X1697320Y6560540D01*
X1701180Y6560200D01*
X1705040Y6560540D01*
X1708779Y6561540D01*
X1712280Y6563180D01*
X1715440Y6565400D01*
X1718180Y6568120D01*
X1720400Y6571300D01*
X1722040Y6574800D01*
X1723040Y6578540D01*
X1723380Y6582400D01*
X1723040Y6586240D01*
X1722040Y6589980D01*
X1720400Y6593480D01*
X1718180Y6596660D01*
X1715440Y6599400D01*
X1712280Y6601620D01*
X1708779Y6603240D01*
X1705140Y6604220D01*
X1704180Y6604620D01*
X1703360Y6605260D01*
X1368680Y6939940D01*
X1367800Y6941220D01*
X1367500Y6942760D01*
X1367500Y7141540D01*
X1367680Y7142740D01*
X1368220Y7143819D01*
X1369019Y7144960D01*
X1370660Y7148480D01*
X1371660Y7152200D01*
X1372000Y7156060D01*
X1371660Y7159920D01*
X1370660Y7163660D01*
X1370020Y7165019D01*
X1369640Y7166559D01*
X1369920Y7168140D01*
X1370760Y7169480D01*
X1372080Y7170380D01*
X1373640Y7170700D01*
X1774780Y7170700D01*
X1776220Y7170440D01*
X1777460Y7169680D01*
X1778340Y7168520D01*
X1778760Y7167120D01*
X1778640Y7165660D01*
X1777940Y7163060D01*
X1777600Y7159220D01*
X1777940Y7155359D01*
X1778940Y7151620D01*
X1780580Y7148120D01*
X1782800Y7144940D01*
X1785540Y7142220D01*
X1788700Y7140000D01*
X1792220Y7138360D01*
X1795940Y7137360D01*
X1799800Y7137020D01*
X1803660Y7137360D01*
X1807400Y7138360D01*
X1810900Y7140000D01*
X1814060Y7142220D01*
X1816800Y7144940D01*
X1819019Y7148120D01*
X1820660Y7151620D01*
X1821660Y7155359D01*
X1822000Y7159220D01*
X1821660Y7163060D01*
X1820660Y7166799D01*
X1819019Y7170300D01*
X1818220Y7171440D01*
X1817680Y7172540D01*
X1817500Y7173740D01*
X1817500Y7179420D01*
X1817800Y7180940D01*
X1818680Y7182240D01*
X1917980Y7281540D01*
X1919280Y7282400D01*
X1920800Y7282720D01*
X1922340Y7282400D01*
X1923620Y7281540D01*
X2231560Y6973620D01*
X2234280Y6971559D01*
X2237200Y6970119D01*
X2240340Y6969220D01*
X2243780Y6968900D01*
X2485200Y6968900D01*
X2486740Y6968600D01*
X2488020Y6967720D01*
X2488900Y6966440D01*
X2489200Y6964900D01*
X2489200Y6961820D01*
X2489480Y6959340D01*
X2490240Y6957180D01*
X2491440Y6955260D01*
X2493060Y6953640D01*
X2494980Y6952440D01*
X2497140Y6951680D01*
X2499620Y6951400D01*
X2579180Y6951400D01*
X2581660Y6951680D01*
X2583820Y6952440D01*
X2585740Y6953640D01*
X2587360Y6955260D01*
X2588560Y6957180D01*
X2589320Y6959340D01*
X2589600Y6961820D01*
X2589600Y7011380D01*
X2589320Y7013860D01*
X2588560Y7016020D01*
X2587360Y7017940D01*
X2585740Y7019560D01*
X2583820Y7020760D01*
X2581660Y7021520D01*
X2579180Y7021799D01*
X2499620Y7021799D01*
X2497140Y7021520D01*
X2494980Y7020760D01*
X2493060Y7019560D01*
X2491440Y7017940D01*
X2490240Y7016020D01*
X2489480Y7013860D01*
X2489200Y7011380D01*
X2489200Y7008300D01*
X2488900Y7006780D01*
X2488020Y7005480D01*
X2486740Y7004600D01*
X2485200Y7004299D01*
X2252580Y7004299D01*
X2251040Y7004600D01*
X2249760Y7005480D01*
X1885600Y7369640D01*
X1884720Y7370920D01*
X1884420Y7372460D01*
X1884420Y7378840D01*
X1884720Y7380359D01*
X1885600Y7381660D01*
X1897220Y7393280D01*
X1898520Y7394160D01*
X1900040Y7394460D01*
X2361860Y7394480D01*
X2365220Y7394940D01*
X2368320Y7395980D01*
X2371180Y7397580D01*
X2373820Y7399779D01*
X2490460Y7516400D01*
X2491740Y7517260D01*
X2493280Y7517580D01*
X2494820Y7517260D01*
X2496100Y7516400D01*
X2496980Y7515100D01*
X2497280Y7513579D01*
X2497280Y7507700D01*
X2497560Y7505220D01*
X2498320Y7503060D01*
X2499520Y7501140D01*
X2501140Y7499520D01*
X2503060Y7498320D01*
X2505220Y7497560D01*
X2507700Y7497279D01*
X2574180Y7497279D01*
X2576680Y7497560D01*
X2578820Y7498320D01*
X2580760Y7499520D01*
X2582360Y7501140D01*
X2583580Y7503060D01*
X2584320Y7505220D01*
X2584600Y7507700D01*
X2584600Y7574180D01*
X2584320Y7576680D01*
X2583580Y7578819D01*
X2582360Y7580760D01*
X2580760Y7582360D01*
X2578820Y7583579D01*
X2576680Y7584340D01*
X2574180Y7584620D01*
X2519300Y7584620D01*
X2517780Y7584920D01*
X2516480Y7585780D01*
X2515600Y7587080D01*
X2515300Y7588620D01*
X2515600Y7590140D01*
X2516480Y7591440D01*
X2523520Y7598500D01*
X2524700Y7599299D01*
X2526080Y7599660D01*
X2527500Y7599500D01*
X2531240Y7598380D01*
X2536760Y7597500D01*
X2542340Y7597320D01*
X2547920Y7597859D01*
X2553360Y7599100D01*
X2558620Y7601040D01*
X2563580Y7603620D01*
X2568159Y7606820D01*
X2572300Y7610580D01*
X2575940Y7614840D01*
X2578980Y7619520D01*
X2581420Y7624560D01*
X2583180Y7629880D01*
X2584240Y7635359D01*
X2584600Y7640960D01*
X2584240Y7646540D01*
X2583180Y7652020D01*
X2581420Y7657340D01*
X2578980Y7662380D01*
X2575940Y7667060D01*
X2572300Y7671319D01*
X2568159Y7675080D01*
X2563580Y7678280D01*
X2558620Y7680880D01*
X2553360Y7682800D01*
X2547920Y7684040D01*
X2542340Y7684580D01*
X2536760Y7684400D01*
X2531240Y7683520D01*
X2525860Y7681920D01*
X2520760Y7679660D01*
X2515960Y7676760D01*
X2511600Y7673260D01*
X2507700Y7669260D01*
X2504360Y7664760D01*
X2501620Y7659900D01*
X2499520Y7654700D01*
X2498100Y7649299D01*
X2497380Y7643740D01*
X2497380Y7638160D01*
X2498100Y7632600D01*
X2499480Y7627320D01*
X2499600Y7625940D01*
X2499240Y7624600D01*
X2498440Y7623480D01*
X2485840Y7610860D01*
X2484540Y7610000D01*
X2483000Y7609700D01*
X2444380Y7609700D01*
X2442840Y7610000D01*
X2441560Y7610860D01*
X2440680Y7612160D01*
X2440380Y7613700D01*
X2440680Y7615220D01*
X2441560Y7616520D01*
X2523520Y7698480D01*
X2524700Y7699299D01*
X2526080Y7699660D01*
X2527480Y7699500D01*
X2531240Y7698380D01*
X2536760Y7697500D01*
X2542340Y7697320D01*
X2547920Y7697840D01*
X2553360Y7699100D01*
X2558620Y7701020D01*
X2563580Y7703620D01*
X2568159Y7706820D01*
X2572300Y7710580D01*
X2575940Y7714840D01*
X2578980Y7719520D01*
X2581420Y7724560D01*
X2583180Y7729880D01*
X2584240Y7735359D01*
X2584600Y7740940D01*
X2584240Y7746520D01*
X2583180Y7752020D01*
X2581420Y7757320D01*
X2578980Y7762360D01*
X2575940Y7767060D01*
X2572300Y7771319D01*
X2568159Y7775080D01*
X2563580Y7778280D01*
X2558620Y7780860D01*
X2553360Y7782800D01*
X2547920Y7784040D01*
X2542340Y7784580D01*
X2536760Y7784400D01*
X2531240Y7783500D01*
X2525860Y7781920D01*
X2520760Y7779660D01*
X2515960Y7776760D01*
X2511600Y7773260D01*
X2507700Y7769240D01*
X2504360Y7764760D01*
X2501620Y7759880D01*
X2499520Y7754700D01*
X2498100Y7749299D01*
X2497380Y7743740D01*
X2497380Y7738140D01*
X2498100Y7732600D01*
X2499480Y7727320D01*
X2499600Y7725940D01*
X2499240Y7724600D01*
X2498440Y7723480D01*
X2288240Y7513280D01*
X2286940Y7512400D01*
X2285420Y7512100D01*
X1738460Y7512100D01*
X1736900Y7512420D01*
X1735580Y7513320D01*
X1734740Y7514660D01*
X1734460Y7516240D01*
X1735100Y7518339D01*
X1736060Y7521960D01*
X1736459Y7522940D01*
X1737100Y7523760D01*
X2331080Y8117760D01*
X2333120Y8120480D01*
X2334580Y8123400D01*
X2335480Y8126540D01*
X2335800Y8129960D01*
X2335800Y8177960D01*
X2336040Y8179320D01*
X2336720Y8180520D01*
X2342140Y8184740D01*
X2345620Y8188339D01*
X2348560Y8192400D01*
X2350920Y8196820D01*
X2352640Y8201540D01*
X2353680Y8206440D01*
X2354020Y8211440D01*
X2353680Y8216440D01*
X2352640Y8221360D01*
X2350920Y8226060D01*
X2348560Y8230500D01*
X2345620Y8234539D01*
X2342140Y8238160D01*
X2338180Y8241240D01*
X2333840Y8243740D01*
X2329200Y8245620D01*
X2324340Y8246840D01*
X2319340Y8247360D01*
X2314340Y8247200D01*
X2309400Y8246319D01*
X2304620Y8244779D01*
X2300120Y8242580D01*
X2295960Y8239760D01*
X2292240Y8236420D01*
X2289020Y8232580D01*
X2286360Y8228320D01*
X2284320Y8223740D01*
X2282940Y8218920D01*
X2282240Y8213960D01*
X2282240Y8208940D01*
X2282940Y8203980D01*
X2284320Y8199160D01*
X2286360Y8194580D01*
X2289020Y8190320D01*
X2292240Y8186480D01*
X2295960Y8183120D01*
X2298620Y8181319D01*
X2299580Y8180440D01*
X2300180Y8179299D01*
X2300400Y8178020D01*
X2300400Y8138760D01*
X2300080Y8137240D01*
X2299220Y8135940D01*
X1712080Y7548800D01*
X1711240Y7548160D01*
X1710280Y7547760D01*
X1706660Y7546780D01*
X1703140Y7545160D01*
X1699980Y7542940D01*
X1697240Y7540200D01*
X1695020Y7537020D01*
X1693380Y7533520D01*
X1692380Y7529779D01*
X1692040Y7525940D01*
X1692380Y7522080D01*
X1694019Y7516240D01*
X1693760Y7514660D01*
X1692900Y7513320D01*
X1691579Y7512420D01*
X1690020Y7512100D01*
X1156260Y7512100D01*
X1155060Y7512279D01*
X1153960Y7512820D01*
X1152820Y7513620D01*
X1149320Y7515260D01*
X1145580Y7516260D01*
X1141740Y7516600D01*
X1137880Y7516260D01*
X1134140Y7515260D01*
X1130640Y7513620D01*
X1127460Y7511400D01*
X1124740Y7508660D01*
X1122520Y7505500D01*
X1120880Y7502000D01*
X1119880Y7498260D01*
X1119540Y7494400D01*
X1119880Y7490540D01*
X1120880Y7486820D01*
X1122520Y7483300D01*
X1124740Y7480140D01*
X1127460Y7477400D01*
X1130640Y7475180D01*
X1134140Y7473540D01*
X1137880Y7472540D01*
X1141740Y7472200D01*
X1145580Y7472540D01*
X1149320Y7473540D01*
X1152820Y7475180D01*
X1153960Y7475980D01*
X1155060Y7476520D01*
X1156260Y7476700D01*
X2277940Y7476700D01*
X2279460Y7476400D01*
X2280760Y7475520D01*
X2281620Y7474240D01*
X2281940Y7472700D01*
X2281620Y7471180D01*
X2280760Y7469880D01*
X2276740Y7465860D01*
X2275440Y7464980D01*
X2273920Y7464680D01*
X1852880Y7464660D01*
X1849520Y7464200D01*
X1846420Y7463160D01*
X1843560Y7461559D01*
X1840920Y7459360D01*
X1817620Y7436060D01*
X1816320Y7435200D01*
X1814780Y7434900D01*
X1689379Y7434880D01*
X1686000Y7434400D01*
X1682900Y7433360D01*
X1680060Y7431780D01*
X1677400Y7429580D01*
X1499900Y7252080D01*
X1498600Y7251200D01*
X1497080Y7250900D01*
X1304079Y7250880D01*
X1300720Y7250420D01*
X1297580Y7249360D01*
X1295600Y7248300D01*
X1294700Y7247960D01*
X1293740Y7247840D01*
X1286020Y7247820D01*
X1282700Y7247360D01*
X1279600Y7246319D01*
X1276740Y7244720D01*
X1274100Y7242519D01*
X1142280Y7110720D01*
X1140980Y7109840D01*
X1139460Y7109539D01*
X1041080Y7109520D01*
X1037700Y7109059D01*
X1034599Y7108020D01*
X1031760Y7106420D01*
X1029100Y7104220D01*
X1006960Y7082080D01*
X1005660Y7081220D01*
X1004140Y7080900D01*
X1002600Y7081220D01*
X1001300Y7082080D01*
X592920Y7490440D01*
X592060Y7491740D01*
X591760Y7493280D01*
X592060Y7494800D01*
X592920Y7496100D01*
X594220Y7496980D01*
X595760Y7497279D01*
X649780Y7497279D01*
X652260Y7497560D01*
X654419Y7498320D01*
X656340Y7499520D01*
X657960Y7501140D01*
X659160Y7503060D01*
X659920Y7505220D01*
X660200Y7507700D01*
X660200Y7513560D01*
X660500Y7515100D01*
X661380Y7516400D01*
X662660Y7517260D01*
X664200Y7517560D01*
X665720Y7517260D01*
X667020Y7516400D01*
X945040Y7238400D01*
X947760Y7236340D01*
X950680Y7234900D01*
X953820Y7234000D01*
X957260Y7233680D01*
X1177100Y7233680D01*
X1178300Y7233500D01*
X1179400Y7232960D01*
X1180540Y7232160D01*
X1184040Y7230520D01*
X1187780Y7229520D01*
X1191640Y7229180D01*
X1195480Y7229520D01*
X1199220Y7230520D01*
X1202720Y7232160D01*
X1205900Y7234380D01*
X1208640Y7237120D01*
X1210860Y7240280D01*
X1212480Y7243800D01*
X1213480Y7247519D01*
X1213820Y7251380D01*
X1213480Y7255240D01*
X1212480Y7258980D01*
X1210860Y7262480D01*
X1208640Y7265640D01*
X1205900Y7268380D01*
X1202720Y7270599D01*
X1199220Y7272240D01*
X1195480Y7273240D01*
X1191640Y7273579D01*
X1187780Y7273240D01*
X1184040Y7272240D01*
X1180540Y7270599D01*
X1179400Y7269800D01*
X1178300Y7269260D01*
X1177100Y7269080D01*
X966060Y7269080D01*
X964520Y7269380D01*
X963240Y7270260D01*
X679539Y7553920D01*
X676820Y7555980D01*
X673900Y7557420D01*
X670720Y7558339D01*
X668280Y7558620D01*
X664180Y7558640D01*
X662660Y7558960D01*
X661360Y7559820D01*
X660500Y7561120D01*
X660200Y7562640D01*
X660200Y7574180D01*
X659920Y7576680D01*
X659160Y7578819D01*
X657960Y7580760D01*
X656340Y7582360D01*
X654419Y7583579D01*
X652260Y7584320D01*
X649780Y7584600D01*
X594880Y7584600D01*
X593340Y7584920D01*
X592040Y7585780D01*
X591180Y7587080D01*
X590880Y7588600D01*
X591180Y7590140D01*
X592040Y7591440D01*
X599080Y7598480D01*
X600340Y7599320D01*
X601800Y7599640D01*
X603300Y7599400D01*
X604120Y7599100D01*
X609560Y7597859D01*
X615140Y7597320D01*
X620720Y7597500D01*
X626260Y7598400D01*
X631620Y7599980D01*
X636720Y7602240D01*
X641520Y7605140D01*
X645879Y7608640D01*
X649780Y7612660D01*
X653120Y7617140D01*
X655860Y7622020D01*
X657960Y7627200D01*
X659380Y7632600D01*
X660100Y7638160D01*
X660100Y7643740D01*
X659380Y7649299D01*
X657960Y7654700D01*
X655860Y7659900D01*
X653120Y7664760D01*
X649780Y7669260D01*
X645879Y7673260D01*
X641520Y7676760D01*
X636720Y7679660D01*
X631620Y7681920D01*
X626260Y7683520D01*
X620720Y7684400D01*
X615140Y7684580D01*
X609560Y7684040D01*
X604120Y7682800D01*
X598860Y7680880D01*
X593900Y7678280D01*
X589320Y7675080D01*
X585180Y7671319D01*
X581540Y7667060D01*
X578500Y7662380D01*
X576080Y7657340D01*
X574300Y7652020D01*
X573240Y7646540D01*
X572880Y7640960D01*
X573240Y7635359D01*
X574300Y7629880D01*
X575060Y7627619D01*
X575260Y7626180D01*
X574920Y7624740D01*
X574080Y7623540D01*
X552500Y7601940D01*
X550460Y7599220D01*
X549000Y7596300D01*
X548100Y7593160D01*
X547800Y7589720D01*
X547800Y7492180D01*
X548280Y7488800D01*
X549320Y7485700D01*
X550900Y7482859D01*
X553100Y7480200D01*
X976280Y7057039D01*
X977140Y7055760D01*
X977440Y7054220D01*
X977140Y7052700D01*
X976280Y7051400D01*
X928740Y7003840D01*
X926700Y7001120D01*
X925240Y6998200D01*
X924340Y6995080D01*
X924040Y6991640D01*
X924040Y6537460D01*
X923740Y6535980D01*
X922920Y6534700D01*
X921680Y6533819D01*
X920200Y6533480D01*
X918700Y6533700D01*
X917400Y6534460D01*
X916200Y6535500D01*
X911820Y6538420D01*
X907120Y6540760D01*
X902140Y6542440D01*
X896979Y6543460D01*
X891740Y6543819D01*
X886480Y6543460D01*
X881320Y6542440D01*
X876360Y6540760D01*
X871640Y6538420D01*
X867260Y6535500D01*
X863319Y6532039D01*
X859840Y6528080D01*
X856919Y6523720D01*
X854599Y6519000D01*
X852920Y6514020D01*
X851880Y6508860D01*
X851540Y6503500D01*
X851540Y6443760D01*
X851880Y6438380D01*
X852920Y6433220D01*
X854599Y6428240D01*
X856919Y6423520D01*
X859840Y6419160D01*
X863319Y6415200D01*
X867260Y6411740D01*
X871640Y6408819D01*
X876360Y6406480D01*
X881320Y6404800D01*
X886480Y6403780D01*
X891740Y6403440D01*
X896979Y6403780D01*
X902140Y6404800D01*
X907120Y6406480D01*
X911820Y6408819D01*
X916200Y6411740D01*
X917400Y6412780D01*
X918700Y6413540D01*
X920200Y6413780D01*
X921680Y6413420D01*
X922920Y6412540D01*
X923740Y6411260D01*
X924040Y6409779D01*
X924040Y5935980D01*
X924520Y5932619D01*
X925560Y5929520D01*
X927140Y5926660D01*
X929340Y5924020D01*
X1186580Y5666780D01*
X1187440Y5665500D01*
X1187760Y5663980D01*
X1187780Y5659180D01*
X1188240Y5655860D01*
X1189280Y5652760D01*
X1191100Y5649520D01*
X1191600Y5647980D01*
X1191440Y5646400D01*
X1190680Y5644980D01*
X1189420Y5643980D01*
X1187880Y5643560D01*
X1186480Y5643460D01*
X1181320Y5642440D01*
X1176360Y5640760D01*
X1171640Y5638420D01*
X1167260Y5635500D01*
X1163320Y5632039D01*
X1159840Y5628080D01*
X1156920Y5623720D01*
X1154600Y5619000D01*
X1152920Y5614020D01*
X1151880Y5608860D01*
X1151540Y5603500D01*
X1151540Y5543760D01*
X1151880Y5538380D01*
X1152920Y5533220D01*
X1154600Y5528240D01*
X1156920Y5523520D01*
X1159840Y5519160D01*
X1161040Y5517800D01*
X1161800Y5516480D01*
X1162020Y5514980D01*
X1161680Y5513520D01*
X1160800Y5512279D01*
X1159520Y5511440D01*
X1158020Y5511160D01*
X1125440Y5511160D01*
X1123940Y5511440D01*
X1122660Y5512279D01*
X1121800Y5513520D01*
X1121440Y5514980D01*
X1121660Y5516480D01*
X1122420Y5517800D01*
X1123620Y5519160D01*
X1126540Y5523520D01*
X1128860Y5528240D01*
X1130560Y5533220D01*
X1131580Y5538380D01*
X1131940Y5543760D01*
X1131940Y5603500D01*
X1131580Y5608860D01*
X1130560Y5614020D01*
X1128860Y5619000D01*
X1126540Y5623720D01*
X1123620Y5628080D01*
X1120160Y5632039D01*
X1116200Y5635500D01*
X1111820Y5638420D01*
X1107120Y5640760D01*
X1102140Y5642440D01*
X1096980Y5643460D01*
X1091740Y5643819D01*
X1086480Y5643460D01*
X1081320Y5642440D01*
X1076360Y5640760D01*
X1071640Y5638420D01*
X1067260Y5635500D01*
X1063320Y5632039D01*
X1059840Y5628080D01*
X1056920Y5623720D01*
X1054600Y5619000D01*
X1052920Y5614020D01*
X1051880Y5608860D01*
X1051540Y5603500D01*
X1051540Y5543760D01*
X1051880Y5538380D01*
X1052920Y5533220D01*
X1054600Y5528240D01*
X1056920Y5523520D01*
X1059840Y5519160D01*
X1061040Y5517800D01*
X1061800Y5516480D01*
X1062020Y5514980D01*
X1061680Y5513520D01*
X1060800Y5512279D01*
X1059520Y5511440D01*
X1058020Y5511160D01*
X1025440Y5511160D01*
X1023940Y5511440D01*
X1022660Y5512279D01*
X1021800Y5513520D01*
X1021440Y5514980D01*
X1021660Y5516480D01*
X1022420Y5517800D01*
X1023620Y5519160D01*
X1026540Y5523520D01*
X1028860Y5528240D01*
X1030560Y5533220D01*
X1031580Y5538380D01*
X1031940Y5543760D01*
X1031940Y5603500D01*
X1031580Y5608860D01*
X1030560Y5614020D01*
X1028860Y5619000D01*
X1026540Y5623720D01*
X1023620Y5628080D01*
X1020160Y5632039D01*
X1016200Y5635500D01*
X1011820Y5638420D01*
X1007120Y5640760D01*
X1002140Y5642440D01*
X996979Y5643460D01*
X991740Y5643819D01*
X986480Y5643460D01*
X981320Y5642440D01*
X976360Y5640760D01*
X971640Y5638420D01*
X967260Y5635500D01*
X963319Y5632039D01*
X959840Y5628080D01*
X956919Y5623720D01*
X954599Y5619000D01*
X952920Y5614020D01*
X951880Y5608860D01*
X951540Y5603500D01*
X951540Y5548500D01*
X951220Y5546980D01*
X950360Y5545680D01*
X949060Y5544820D01*
X947540Y5544500D01*
X946000Y5544820D01*
X944700Y5545680D01*
X933100Y5557279D01*
X932240Y5558579D01*
X931940Y5560100D01*
X931940Y5603500D01*
X931580Y5608860D01*
X930560Y5614020D01*
X928860Y5619000D01*
X926540Y5623720D01*
X923620Y5628080D01*
X920160Y5632039D01*
X916200Y5635500D01*
X911820Y5638420D01*
X907120Y5640760D01*
X902140Y5642440D01*
X896979Y5643460D01*
X891740Y5643819D01*
X886480Y5643460D01*
X881320Y5642440D01*
X876360Y5640760D01*
X871640Y5638420D01*
X867260Y5635500D01*
X863319Y5632039D01*
X859840Y5628080D01*
X856919Y5623720D01*
X854599Y5619000D01*
X852920Y5614020D01*
X851880Y5608860D01*
X851540Y5603500D01*
X851540Y5543760D01*
X851880Y5538380D01*
X852920Y5533220D01*
X854599Y5528240D01*
X856919Y5523520D01*
X859840Y5519160D01*
X863319Y5515200D01*
X867260Y5511740D01*
X871640Y5508819D01*
X876360Y5506480D01*
X881320Y5504800D01*
X886480Y5503780D01*
X891740Y5503440D01*
X896979Y5503780D01*
X902140Y5504800D01*
X907120Y5506480D01*
X911820Y5508819D01*
X916200Y5511740D01*
X919980Y5515060D01*
X921280Y5515820D01*
X922740Y5516040D01*
X924200Y5515720D01*
X925440Y5514880D01*
X959860Y5480480D01*
X962580Y5478420D01*
X965500Y5476980D01*
X968640Y5476079D01*
G37*
G36*
X774240Y5507540D02*
G01*
X774240Y5541120D01*
X751700Y5541120D01*
X751880Y5538380D01*
X752920Y5533220D01*
X754599Y5528240D01*
X756919Y5523520D01*
X759840Y5519160D01*
X763319Y5515200D01*
X767260Y5511740D01*
X771640Y5508819D01*
G37*
G36*
X809240Y5507540D02*
G01*
X811820Y5508819D01*
X816200Y5511740D01*
X820160Y5515200D01*
X823620Y5519160D01*
X826540Y5523520D01*
X828860Y5528240D01*
X830560Y5533220D01*
X831580Y5538380D01*
X831760Y5541120D01*
X809240Y5541120D01*
G37*
G36*
X751700Y5606120D02*
G01*
X774240Y5606120D01*
X774240Y5639700D01*
X771640Y5638420D01*
X767260Y5635500D01*
X763319Y5632039D01*
X759840Y5628080D01*
X756919Y5623720D01*
X754599Y5619000D01*
X752920Y5614020D01*
X751880Y5608860D01*
G37*
G36*
X809240Y5606120D02*
G01*
X831760Y5606120D01*
X831580Y5608860D01*
X830560Y5614020D01*
X828860Y5619000D01*
X826540Y5623720D01*
X823620Y5628080D01*
X820160Y5632039D01*
X816200Y5635500D01*
X811820Y5638420D01*
X809240Y5639700D01*
G37*
G36*
X791740Y6403440D02*
G01*
X796979Y6403780D01*
X802140Y6404800D01*
X807120Y6406480D01*
X811820Y6408819D01*
X816200Y6411740D01*
X820160Y6415200D01*
X823620Y6419160D01*
X826540Y6423520D01*
X828860Y6428240D01*
X830560Y6433220D01*
X831580Y6438380D01*
X831940Y6443760D01*
X831940Y6503500D01*
X831580Y6508860D01*
X830560Y6514020D01*
X828860Y6519000D01*
X826540Y6523720D01*
X823620Y6528080D01*
X820160Y6532039D01*
X816200Y6535500D01*
X811820Y6538420D01*
X807120Y6540760D01*
X802140Y6542440D01*
X796979Y6543460D01*
X791740Y6543819D01*
X786480Y6543460D01*
X781320Y6542440D01*
X776360Y6540760D01*
X771640Y6538420D01*
X767260Y6535500D01*
X763319Y6532039D01*
X759840Y6528080D01*
X756919Y6523720D01*
X754599Y6519000D01*
X752920Y6514020D01*
X751880Y6508860D01*
X751540Y6503500D01*
X751540Y6443760D01*
X751880Y6438380D01*
X752920Y6433220D01*
X754599Y6428240D01*
X756919Y6423520D01*
X759840Y6419160D01*
X763319Y6415200D01*
X767260Y6411740D01*
X771640Y6408819D01*
X776360Y6406480D01*
X781320Y6404800D01*
X786480Y6403780D01*
G37*
G36*
X1091740Y6403440D02*
G01*
X1096980Y6403780D01*
X1102140Y6404800D01*
X1107120Y6406480D01*
X1111820Y6408819D01*
X1116200Y6411740D01*
X1120160Y6415200D01*
X1123620Y6419160D01*
X1126540Y6423520D01*
X1128860Y6428240D01*
X1130560Y6433220D01*
X1131580Y6438380D01*
X1131940Y6443760D01*
X1131940Y6503500D01*
X1131580Y6508860D01*
X1130560Y6514020D01*
X1128860Y6519000D01*
X1126540Y6523720D01*
X1123620Y6528080D01*
X1120160Y6532039D01*
X1116200Y6535500D01*
X1111820Y6538420D01*
X1107120Y6540760D01*
X1102140Y6542440D01*
X1096980Y6543460D01*
X1091740Y6543819D01*
X1086480Y6543460D01*
X1081320Y6542440D01*
X1076360Y6540760D01*
X1071640Y6538420D01*
X1067260Y6535500D01*
X1063320Y6532039D01*
X1059840Y6528080D01*
X1056920Y6523720D01*
X1054600Y6519000D01*
X1052920Y6514020D01*
X1051880Y6508860D01*
X1051540Y6503500D01*
X1051540Y6443760D01*
X1051880Y6438380D01*
X1052920Y6433220D01*
X1054600Y6428240D01*
X1056920Y6423520D01*
X1059840Y6419160D01*
X1063320Y6415200D01*
X1067260Y6411740D01*
X1071640Y6408819D01*
X1076360Y6406480D01*
X1081320Y6404800D01*
X1086480Y6403780D01*
G37*
G36*
X588280Y6584320D02*
G01*
X597380Y6584520D01*
X606420Y6585460D01*
X615360Y6587160D01*
X624120Y6589620D01*
X632640Y6592780D01*
X640879Y6596660D01*
X648760Y6601200D01*
X656220Y6606400D01*
X663240Y6612200D01*
X669740Y6618560D01*
X675680Y6625440D01*
X681020Y6632800D01*
X685740Y6640599D01*
X689780Y6648740D01*
X693120Y6657200D01*
X695759Y6665900D01*
X697660Y6674800D01*
X698800Y6683840D01*
X699180Y6692920D01*
X698800Y6702000D01*
X697660Y6711040D01*
X695759Y6719940D01*
X693120Y6728640D01*
X689780Y6737100D01*
X685740Y6745240D01*
X681020Y6753040D01*
X675680Y6760380D01*
X669740Y6767279D01*
X663240Y6773640D01*
X656220Y6779440D01*
X648760Y6784640D01*
X640879Y6789180D01*
X632640Y6793060D01*
X624120Y6796220D01*
X615360Y6798680D01*
X606420Y6800380D01*
X597380Y6801319D01*
X588280Y6801520D01*
X579200Y6800940D01*
X570200Y6799620D01*
X561340Y6797540D01*
X552680Y6794720D01*
X544300Y6791200D01*
X536240Y6786980D01*
X528560Y6782120D01*
X521320Y6776620D01*
X514560Y6770520D01*
X508320Y6763900D01*
X502680Y6756760D01*
X497640Y6749180D01*
X493260Y6741220D01*
X489560Y6732900D01*
X486560Y6724320D01*
X484300Y6715500D01*
X482780Y6706540D01*
X482020Y6697460D01*
X482020Y6688380D01*
X482780Y6679299D01*
X484300Y6670340D01*
X486560Y6661520D01*
X489560Y6652940D01*
X493260Y6644620D01*
X497640Y6636660D01*
X502680Y6629080D01*
X508320Y6621940D01*
X514560Y6615320D01*
X521320Y6609220D01*
X528560Y6603720D01*
X536240Y6598860D01*
X544300Y6594640D01*
X552680Y6591120D01*
X561340Y6588300D01*
X570200Y6586220D01*
X579200Y6584900D01*
G37*
G36*
X2359940Y6584320D02*
G01*
X2369040Y6584520D01*
X2378080Y6585460D01*
X2387020Y6587160D01*
X2395780Y6589620D01*
X2404300Y6592780D01*
X2412540Y6596660D01*
X2420420Y6601200D01*
X2427880Y6606400D01*
X2434900Y6612200D01*
X2441400Y6618560D01*
X2447340Y6625440D01*
X2452680Y6632800D01*
X2457400Y6640599D01*
X2461440Y6648740D01*
X2464780Y6657200D01*
X2467420Y6665900D01*
X2469320Y6674800D01*
X2470460Y6683840D01*
X2470840Y6692920D01*
X2470460Y6702000D01*
X2469320Y6711040D01*
X2467420Y6719940D01*
X2464780Y6728640D01*
X2461440Y6737100D01*
X2457400Y6745240D01*
X2452680Y6753040D01*
X2447340Y6760380D01*
X2441400Y6767279D01*
X2434900Y6773640D01*
X2427880Y6779440D01*
X2420420Y6784640D01*
X2412540Y6789180D01*
X2404300Y6793060D01*
X2395780Y6796220D01*
X2387020Y6798680D01*
X2378080Y6800380D01*
X2369040Y6801319D01*
X2359940Y6801520D01*
X2350860Y6800940D01*
X2341860Y6799620D01*
X2333000Y6797540D01*
X2324340Y6794720D01*
X2315960Y6791200D01*
X2307900Y6786980D01*
X2300220Y6782120D01*
X2292980Y6776620D01*
X2286220Y6770520D01*
X2279980Y6763900D01*
X2274340Y6756760D01*
X2269300Y6749180D01*
X2264920Y6741220D01*
X2261220Y6732900D01*
X2258220Y6724320D01*
X2255960Y6715500D01*
X2254440Y6706540D01*
X2253680Y6697460D01*
X2253680Y6688380D01*
X2254440Y6679299D01*
X2255960Y6670340D01*
X2258220Y6661520D01*
X2261220Y6652940D01*
X2264920Y6644620D01*
X2269300Y6636660D01*
X2274340Y6629080D01*
X2279980Y6621940D01*
X2286220Y6615320D01*
X2292980Y6609220D01*
X2300220Y6603720D01*
X2307900Y6598860D01*
X2315960Y6594640D01*
X2324340Y6591120D01*
X2333000Y6588300D01*
X2341860Y6586220D01*
X2350860Y6584900D01*
G37*
G36*
X2516900Y7152320D02*
G01*
X2516900Y7171600D01*
X2492600Y7171600D01*
X2494800Y7167580D01*
X2497800Y7163560D01*
X2501360Y7160000D01*
X2505380Y7157000D01*
X2509780Y7154600D01*
X2514480Y7152840D01*
G37*
G36*
X2561900Y7152320D02*
G01*
X2564320Y7152840D01*
X2569020Y7154600D01*
X2573420Y7157000D01*
X2577440Y7160000D01*
X2581000Y7163560D01*
X2584000Y7167580D01*
X2586200Y7171600D01*
X2561900Y7171600D01*
G37*
G36*
X2492600Y7201600D02*
G01*
X2516900Y7201600D01*
X2516900Y7220880D01*
X2514480Y7220359D01*
X2509780Y7218600D01*
X2505380Y7216200D01*
X2501360Y7213200D01*
X2497800Y7209640D01*
X2494800Y7205620D01*
G37*
G36*
X2561900Y7201600D02*
G01*
X2586200Y7201600D01*
X2584000Y7205620D01*
X2581000Y7209640D01*
X2577440Y7213200D01*
X2573420Y7216200D01*
X2569020Y7218600D01*
X2564320Y7220359D01*
X2561900Y7220880D01*
G37*
G36*
X1124820Y7297920D02*
G01*
X1128660Y7298260D01*
X1132400Y7299260D01*
X1135900Y7300900D01*
X1139080Y7303120D01*
X1141820Y7305839D01*
X1144040Y7309020D01*
X1145660Y7312519D01*
X1146660Y7316260D01*
X1147000Y7320119D01*
X1146660Y7323960D01*
X1145660Y7327700D01*
X1144040Y7331200D01*
X1141820Y7334380D01*
X1139080Y7337120D01*
X1135900Y7339340D01*
X1132400Y7340960D01*
X1128660Y7341960D01*
X1124820Y7342300D01*
X1120960Y7341960D01*
X1117220Y7340960D01*
X1113720Y7339340D01*
X1112580Y7338540D01*
X1111480Y7338000D01*
X1110280Y7337820D01*
X1046360Y7337820D01*
X1044820Y7338120D01*
X1043540Y7338980D01*
X659040Y7723480D01*
X658240Y7724600D01*
X657880Y7725940D01*
X658000Y7727320D01*
X659380Y7732600D01*
X660100Y7738140D01*
X660100Y7743740D01*
X659380Y7749299D01*
X657960Y7754700D01*
X655860Y7759880D01*
X653120Y7764760D01*
X649780Y7769240D01*
X645879Y7773260D01*
X641520Y7776760D01*
X636720Y7779660D01*
X631620Y7781920D01*
X626260Y7783500D01*
X620720Y7784400D01*
X615140Y7784580D01*
X609560Y7784040D01*
X604120Y7782800D01*
X598860Y7780860D01*
X593900Y7778280D01*
X589320Y7775080D01*
X585180Y7771319D01*
X581540Y7767060D01*
X578500Y7762360D01*
X576080Y7757320D01*
X574300Y7752020D01*
X573240Y7746520D01*
X572880Y7740940D01*
X573240Y7735359D01*
X574300Y7729880D01*
X576080Y7724560D01*
X578500Y7719520D01*
X581540Y7714840D01*
X585180Y7710580D01*
X589320Y7706820D01*
X593900Y7703620D01*
X598860Y7701020D01*
X604120Y7699100D01*
X609560Y7697859D01*
X615140Y7697320D01*
X620720Y7697500D01*
X626260Y7698380D01*
X630000Y7699500D01*
X631400Y7699660D01*
X632800Y7699299D01*
X633960Y7698500D01*
X1025340Y7307120D01*
X1028060Y7305080D01*
X1030980Y7303620D01*
X1034120Y7302720D01*
X1037560Y7302420D01*
X1110280Y7302420D01*
X1111480Y7302220D01*
X1112580Y7301680D01*
X1113720Y7300900D01*
X1117220Y7299260D01*
X1120960Y7298260D01*
G37*
G36*
X1549800Y7575340D02*
G01*
X1553660Y7575680D01*
X1557400Y7576680D01*
X1560900Y7578320D01*
X1564060Y7580540D01*
X1566800Y7583280D01*
X1569019Y7586440D01*
X1570660Y7589960D01*
X1571660Y7593680D01*
X1572000Y7597540D01*
X1571660Y7601400D01*
X1570660Y7605140D01*
X1569019Y7608640D01*
X1566800Y7611799D01*
X1564060Y7614539D01*
X1560900Y7616760D01*
X1557400Y7618400D01*
X1553760Y7619360D01*
X1552800Y7619760D01*
X1551980Y7620400D01*
X947920Y8224440D01*
X945200Y8226480D01*
X942280Y8227940D01*
X939140Y8228840D01*
X935699Y8229160D01*
X825680Y8229160D01*
X824440Y8229340D01*
X823319Y8229920D01*
X822440Y8230800D01*
X819720Y8234539D01*
X816240Y8238160D01*
X812280Y8241240D01*
X807940Y8243740D01*
X803300Y8245620D01*
X798439Y8246840D01*
X793439Y8247360D01*
X788439Y8247200D01*
X783500Y8246319D01*
X778720Y8244779D01*
X774220Y8242580D01*
X770060Y8239760D01*
X766340Y8236420D01*
X763120Y8232580D01*
X760460Y8228320D01*
X758420Y8223740D01*
X757039Y8218920D01*
X756340Y8213960D01*
X756340Y8208940D01*
X757039Y8203980D01*
X758420Y8199160D01*
X760460Y8194580D01*
X763120Y8190320D01*
X766340Y8186480D01*
X770060Y8183120D01*
X774220Y8180320D01*
X778720Y8178120D01*
X783500Y8176580D01*
X788439Y8175700D01*
X793439Y8175520D01*
X798439Y8176060D01*
X803300Y8177260D01*
X807940Y8179140D01*
X812280Y8181660D01*
X816240Y8184740D01*
X819720Y8188339D01*
X822460Y8192100D01*
X823340Y8192980D01*
X824460Y8193560D01*
X825680Y8193760D01*
X926900Y8193760D01*
X928439Y8193440D01*
X929740Y8192580D01*
X1526940Y7595380D01*
X1527580Y7594539D01*
X1527980Y7593579D01*
X1528940Y7589960D01*
X1530580Y7586440D01*
X1532800Y7583280D01*
X1535540Y7580540D01*
X1538700Y7578320D01*
X1542220Y7576680D01*
X1545940Y7575680D01*
G37*
G36*
X1499800Y7787140D02*
G01*
X1503660Y7787480D01*
X1507400Y7788480D01*
X1510900Y7790119D01*
X1514060Y7792340D01*
X1516800Y7795080D01*
X1519019Y7798240D01*
X1520660Y7801760D01*
X1521660Y7805480D01*
X1522000Y7809340D01*
X1521660Y7813200D01*
X1520660Y7816940D01*
X1519019Y7820440D01*
X1516800Y7823600D01*
X1514060Y7826340D01*
X1510900Y7828560D01*
X1507400Y7830200D01*
X1503760Y7831160D01*
X1502800Y7831559D01*
X1501980Y7832200D01*
X1133840Y8200340D01*
X1133080Y8201400D01*
X1132700Y8202680D01*
X1132760Y8204000D01*
X1133280Y8206440D01*
X1133620Y8211440D01*
X1133280Y8216440D01*
X1132240Y8221360D01*
X1130520Y8226060D01*
X1128160Y8230500D01*
X1125220Y8234539D01*
X1121740Y8238160D01*
X1117780Y8241240D01*
X1113440Y8243740D01*
X1108800Y8245620D01*
X1103940Y8246840D01*
X1098940Y8247360D01*
X1093940Y8247200D01*
X1089000Y8246319D01*
X1084220Y8244779D01*
X1079720Y8242580D01*
X1075560Y8239760D01*
X1071840Y8236420D01*
X1068620Y8232580D01*
X1065960Y8228320D01*
X1063920Y8223740D01*
X1062540Y8218920D01*
X1061840Y8213960D01*
X1061840Y8208940D01*
X1062540Y8203980D01*
X1063920Y8199160D01*
X1065960Y8194580D01*
X1068620Y8190320D01*
X1071840Y8186480D01*
X1075560Y8183120D01*
X1079720Y8180320D01*
X1084220Y8178120D01*
X1089000Y8176580D01*
X1093940Y8175700D01*
X1098940Y8175520D01*
X1103940Y8176060D01*
X1105040Y8176319D01*
X1106400Y8176420D01*
X1107720Y8176060D01*
X1108840Y8175280D01*
X1476940Y7807180D01*
X1477580Y7806340D01*
X1477980Y7805380D01*
X1478940Y7801760D01*
X1480580Y7798240D01*
X1482800Y7795080D01*
X1485540Y7792340D01*
X1488700Y7790119D01*
X1492220Y7788480D01*
X1495940Y7787480D01*
G37*
G36*
X635760Y7801820D02*
G01*
X636720Y7802240D01*
X641520Y7805140D01*
X645879Y7808640D01*
X649780Y7812660D01*
X653120Y7817140D01*
X655699Y7821720D01*
X635760Y7821720D01*
G37*
G36*
X2521720Y7801820D02*
G01*
X2521720Y7821720D01*
X2501780Y7821720D01*
X2504360Y7817140D01*
X2507700Y7812640D01*
X2511600Y7808640D01*
X2515960Y7805140D01*
X2520760Y7802240D01*
G37*
G36*
X597300Y7801840D02*
G01*
X597300Y7821720D01*
X577440Y7821720D01*
X578500Y7819520D01*
X581540Y7814840D01*
X585180Y7810580D01*
X589320Y7806820D01*
X593900Y7803620D01*
G37*
G36*
X2560179Y7801840D02*
G01*
X2563580Y7803620D01*
X2568159Y7806820D01*
X2572300Y7810580D01*
X2575940Y7814840D01*
X2578980Y7819520D01*
X2580040Y7821720D01*
X2560179Y7821720D01*
G37*
G36*
X577440Y7860180D02*
G01*
X597300Y7860180D01*
X597300Y7880060D01*
X593900Y7878280D01*
X589320Y7875080D01*
X585180Y7871319D01*
X581540Y7867060D01*
X578500Y7862380D01*
G37*
G36*
X2560179Y7860180D02*
G01*
X2580040Y7860180D01*
X2578980Y7862380D01*
X2575940Y7867060D01*
X2572300Y7871319D01*
X2568159Y7875080D01*
X2563580Y7878280D01*
X2560179Y7880060D01*
G37*
G36*
X635760Y7860180D02*
G01*
X655699Y7860180D01*
X653120Y7864760D01*
X649780Y7869260D01*
X645879Y7873260D01*
X641520Y7876760D01*
X636720Y7879660D01*
X635760Y7880080D01*
G37*
G36*
X2501780Y7860180D02*
G01*
X2521720Y7860180D01*
X2521720Y7880080D01*
X2520760Y7879660D01*
X2515960Y7876760D01*
X2511600Y7873260D01*
X2507700Y7869240D01*
X2504360Y7864760D01*
G37*
G36*
X1557000Y7987859D02*
G01*
X1564620Y7988420D01*
X1572160Y7989700D01*
X1579540Y7991720D01*
X1586680Y7994420D01*
X1593520Y7997820D01*
X1600020Y8001840D01*
X1606100Y8006480D01*
X1611699Y8011700D01*
X1616759Y8017420D01*
X1621260Y8023600D01*
X1625120Y8030180D01*
X1628340Y8037120D01*
X1630880Y8044320D01*
X1632720Y8051740D01*
X1633820Y8059299D01*
X1634180Y8066940D01*
X1633820Y8074580D01*
X1632720Y8082140D01*
X1630880Y8089560D01*
X1628340Y8096760D01*
X1625120Y8103700D01*
X1621260Y8110280D01*
X1616759Y8116460D01*
X1611699Y8122180D01*
X1606100Y8127400D01*
X1601339Y8131020D01*
X1600380Y8132080D01*
X1599840Y8133400D01*
X1599820Y8134840D01*
X1600280Y8136180D01*
X1601200Y8137279D01*
X1602220Y8138140D01*
X1607200Y8143240D01*
X1611620Y8148819D01*
X1615460Y8154840D01*
X1618640Y8161220D01*
X1621160Y8167900D01*
X1622980Y8174779D01*
X1624060Y8181840D01*
X1624440Y8188940D01*
X1624060Y8196060D01*
X1622980Y8203120D01*
X1621160Y8210000D01*
X1618640Y8216680D01*
X1615460Y8223060D01*
X1611620Y8229080D01*
X1607200Y8234660D01*
X1602220Y8239760D01*
X1596759Y8244340D01*
X1590840Y8248320D01*
X1584540Y8251660D01*
X1577940Y8254360D01*
X1571100Y8256340D01*
X1564079Y8257619D01*
X1556980Y8258180D01*
X1549840Y8257980D01*
X1542780Y8257080D01*
X1535840Y8255440D01*
X1529100Y8253099D01*
X1522640Y8250080D01*
X1516540Y8246400D01*
X1510840Y8242120D01*
X1505600Y8237279D01*
X1500900Y8231920D01*
X1496759Y8226120D01*
X1493260Y8219900D01*
X1490400Y8213380D01*
X1488220Y8206580D01*
X1486780Y8199600D01*
X1486040Y8192519D01*
X1486040Y8185380D01*
X1486780Y8178300D01*
X1488220Y8171319D01*
X1490400Y8164520D01*
X1493260Y8158000D01*
X1496759Y8151780D01*
X1500900Y8145980D01*
X1505600Y8140620D01*
X1509259Y8137220D01*
X1510280Y8135760D01*
X1510540Y8134000D01*
X1510020Y8132300D01*
X1508820Y8131000D01*
X1507060Y8129779D01*
X1501220Y8124860D01*
X1495880Y8119380D01*
X1491100Y8113440D01*
X1486920Y8107039D01*
X1483360Y8100280D01*
X1480480Y8093200D01*
X1478300Y8085860D01*
X1476819Y8078360D01*
X1476080Y8070760D01*
X1476080Y8063120D01*
X1476819Y8055520D01*
X1478300Y8048020D01*
X1480480Y8040680D01*
X1483360Y8033600D01*
X1486920Y8026840D01*
X1491100Y8020440D01*
X1495880Y8014500D01*
X1501220Y8009020D01*
X1507060Y8004100D01*
X1513360Y7999760D01*
X1520040Y7996040D01*
X1527040Y7992980D01*
X1534319Y7990620D01*
X1541780Y7988980D01*
X1549360Y7988060D01*
G37*
G36*
X2013839Y8175520D02*
G01*
X2018839Y8176060D01*
X2023700Y8177260D01*
X2028340Y8179140D01*
X2032680Y8181660D01*
X2036639Y8184740D01*
X2040120Y8188339D01*
X2043060Y8192400D01*
X2045420Y8196820D01*
X2047140Y8201540D01*
X2048180Y8206440D01*
X2048520Y8211440D01*
X2048180Y8216440D01*
X2047140Y8221360D01*
X2045420Y8226060D01*
X2043060Y8230500D01*
X2040120Y8234539D01*
X2036639Y8238160D01*
X2032680Y8241240D01*
X2028340Y8243740D01*
X2023700Y8245620D01*
X2018839Y8246840D01*
X2013839Y8247360D01*
X2008839Y8247200D01*
X2003899Y8246319D01*
X1999120Y8244779D01*
X1994620Y8242580D01*
X1990460Y8239760D01*
X1986740Y8236420D01*
X1983520Y8232580D01*
X1980860Y8228320D01*
X1978820Y8223740D01*
X1977440Y8218920D01*
X1976740Y8213960D01*
X1976740Y8208940D01*
X1977440Y8203980D01*
X1978820Y8199160D01*
X1980860Y8194580D01*
X1983520Y8190320D01*
X1986740Y8186480D01*
X1990460Y8183120D01*
X1994620Y8180320D01*
X1999120Y8178120D01*
X2003899Y8176580D01*
X2008839Y8175700D01*
G37*
G36*
X2270620Y8508120D02*
G01*
X2459220Y8508120D01*
X2462580Y8508600D01*
X2465680Y8509640D01*
X2468540Y8511220D01*
X2471180Y8513420D01*
X2480500Y8522740D01*
X2481320Y8523380D01*
X2482300Y8523780D01*
X2485920Y8524740D01*
X2489420Y8526380D01*
X2491540Y8527720D01*
X2492440Y8527960D01*
X2495520Y8528380D01*
X2498620Y8529420D01*
X2501460Y8531020D01*
X2504120Y8533220D01*
X2536020Y8565140D01*
X2538080Y8567860D01*
X2539520Y8570780D01*
X2540420Y8573920D01*
X2540740Y8577360D01*
X2540740Y8583000D01*
X2540960Y8584320D01*
X2541620Y8585500D01*
X2543160Y8586740D01*
X2544780Y8588340D01*
X2545980Y8590280D01*
X2546740Y8592420D01*
X2547020Y8594920D01*
X2547020Y8637780D01*
X2546740Y8640260D01*
X2545980Y8642420D01*
X2545300Y8643500D01*
X2544720Y8645100D01*
X2544860Y8646780D01*
X2545680Y8648260D01*
X2547040Y8649280D01*
X2548680Y8649640D01*
X2558960Y8649640D01*
X2560700Y8649720D01*
X2562320Y8649940D01*
X2563900Y8650320D01*
X2565460Y8650840D01*
X2566940Y8651500D01*
X2568380Y8652280D01*
X2569720Y8653200D01*
X2570980Y8654260D01*
X2572140Y8655400D01*
X2573180Y8656660D01*
X2574100Y8658020D01*
X2574900Y8659440D01*
X2575560Y8660940D01*
X2576080Y8662480D01*
X2576460Y8664080D01*
X2576680Y8665700D01*
X2576760Y8667420D01*
X2576760Y8673160D01*
X2576980Y8674480D01*
X2577640Y8675640D01*
X2579180Y8676880D01*
X2580800Y8678500D01*
X2582000Y8680420D01*
X2582760Y8682580D01*
X2583039Y8685060D01*
X2583039Y8727920D01*
X2582760Y8730420D01*
X2582000Y8732560D01*
X2580800Y8734500D01*
X2579180Y8736100D01*
X2577260Y8737320D01*
X2575100Y8738060D01*
X2572620Y8738340D01*
X2545500Y8738340D01*
X2543020Y8738060D01*
X2540860Y8737320D01*
X2538940Y8736100D01*
X2537320Y8734500D01*
X2536120Y8732560D01*
X2535360Y8730420D01*
X2535080Y8727920D01*
X2535080Y8689040D01*
X2534780Y8687500D01*
X2533900Y8686200D01*
X2532620Y8685340D01*
X2531080Y8685040D01*
X2508080Y8685020D01*
X2504700Y8684540D01*
X2501600Y8683500D01*
X2498760Y8681920D01*
X2496100Y8679720D01*
X2447160Y8630780D01*
X2445840Y8629180D01*
X2444460Y8628140D01*
X2442760Y8627760D01*
X2441080Y8628140D01*
X2437580Y8629760D01*
X2433940Y8630740D01*
X2432980Y8631140D01*
X2432160Y8631780D01*
X2305260Y8758640D01*
X2302540Y8760700D01*
X2299620Y8762140D01*
X2296480Y8763040D01*
X2293040Y8763360D01*
X1968600Y8763360D01*
X1966860Y8763280D01*
X1965240Y8763060D01*
X1963660Y8762680D01*
X1962100Y8762160D01*
X1960620Y8761500D01*
X1959180Y8760700D01*
X1957840Y8759780D01*
X1956579Y8758740D01*
X1955420Y8757580D01*
X1954379Y8756320D01*
X1953460Y8754980D01*
X1952660Y8753540D01*
X1952000Y8752060D01*
X1951480Y8750500D01*
X1951100Y8748920D01*
X1950880Y8747300D01*
X1950800Y8745560D01*
X1950800Y8739840D01*
X1950580Y8738520D01*
X1949920Y8737340D01*
X1948380Y8736100D01*
X1946780Y8734500D01*
X1945560Y8732560D01*
X1944800Y8730420D01*
X1944520Y8727920D01*
X1944520Y8685060D01*
X1944800Y8682580D01*
X1945560Y8680420D01*
X1946200Y8679400D01*
X1946780Y8677800D01*
X1946660Y8676120D01*
X1945840Y8674640D01*
X1944480Y8673620D01*
X1942820Y8673280D01*
X1931879Y8673260D01*
X1928500Y8672780D01*
X1925360Y8671740D01*
X1923220Y8670600D01*
X1921860Y8669660D01*
X1920040Y8668080D01*
X1918400Y8666180D01*
X1917480Y8664880D01*
X1916000Y8661880D01*
X1915100Y8658760D01*
X1914780Y8655320D01*
X1914780Y8649680D01*
X1914560Y8648360D01*
X1913899Y8647180D01*
X1912360Y8645960D01*
X1910760Y8644340D01*
X1909540Y8642420D01*
X1908779Y8640260D01*
X1908500Y8637780D01*
X1908500Y8594920D01*
X1908779Y8592420D01*
X1909540Y8590280D01*
X1910760Y8588340D01*
X1912360Y8586740D01*
X1914300Y8585520D01*
X1916440Y8584760D01*
X1918940Y8584480D01*
X1946040Y8584480D01*
X1948540Y8584760D01*
X1950680Y8585520D01*
X1952620Y8586740D01*
X1954220Y8588340D01*
X1955440Y8590280D01*
X1956180Y8592420D01*
X1956459Y8594920D01*
X1956459Y8633880D01*
X1956780Y8635400D01*
X1957640Y8636700D01*
X1958940Y8637560D01*
X1960460Y8637880D01*
X1976540Y8637880D01*
X1978080Y8637560D01*
X1979379Y8636700D01*
X1980240Y8635400D01*
X1980540Y8633880D01*
X1980540Y8629660D01*
X1995140Y8629660D01*
X1995140Y8633880D01*
X1995440Y8635400D01*
X1996320Y8636700D01*
X1997600Y8637560D01*
X1999139Y8637880D01*
X2009920Y8637880D01*
X2011440Y8637560D01*
X2012740Y8636700D01*
X2013620Y8635400D01*
X2013920Y8633880D01*
X2013920Y8629660D01*
X2028500Y8629660D01*
X2028500Y8633880D01*
X2028820Y8635400D01*
X2029680Y8636700D01*
X2030980Y8637560D01*
X2032500Y8637880D01*
X2131680Y8637880D01*
X2133220Y8637560D01*
X2134520Y8636700D01*
X2258400Y8512820D01*
X2261120Y8510780D01*
X2264040Y8509320D01*
X2267180Y8508420D01*
G37*
G36*
X1183580Y8533140D02*
G01*
X1193520Y8533720D01*
X1203380Y8535060D01*
X1213100Y8537160D01*
X1222620Y8540020D01*
X1231900Y8543600D01*
X1240880Y8547900D01*
X1249500Y8552880D01*
X1257700Y8558500D01*
X1265460Y8564740D01*
X1272700Y8571580D01*
X1279380Y8578940D01*
X1285480Y8586820D01*
X1290940Y8595120D01*
X1295740Y8603840D01*
X1299860Y8612900D01*
X1303280Y8622240D01*
X1305940Y8631840D01*
X1307860Y8641600D01*
X1309019Y8651480D01*
X1309400Y8661420D01*
X1309019Y8671360D01*
X1307860Y8681240D01*
X1305940Y8691000D01*
X1303280Y8700600D01*
X1299860Y8709940D01*
X1296759Y8716780D01*
X1296399Y8718320D01*
X1296680Y8719860D01*
X1297520Y8721200D01*
X1298820Y8722100D01*
X1300360Y8722420D01*
X1301920Y8722140D01*
X1303240Y8721260D01*
X1426940Y8597560D01*
X1427580Y8596720D01*
X1427980Y8595760D01*
X1428940Y8592140D01*
X1430580Y8588620D01*
X1432800Y8585460D01*
X1435540Y8582720D01*
X1438700Y8580500D01*
X1442220Y8578860D01*
X1445940Y8577860D01*
X1449800Y8577520D01*
X1453660Y8577860D01*
X1457400Y8578860D01*
X1460900Y8580500D01*
X1464060Y8582720D01*
X1466800Y8585460D01*
X1469019Y8588620D01*
X1470660Y8592140D01*
X1471660Y8595860D01*
X1472000Y8599720D01*
X1471660Y8603580D01*
X1470660Y8607320D01*
X1469019Y8610820D01*
X1466800Y8613980D01*
X1464060Y8616720D01*
X1460900Y8618940D01*
X1457400Y8620580D01*
X1453760Y8621540D01*
X1452800Y8621940D01*
X1451980Y8622580D01*
X950100Y9124440D01*
X947380Y9126480D01*
X944460Y9127940D01*
X941320Y9128840D01*
X937880Y9129160D01*
X825680Y9129160D01*
X824440Y9129340D01*
X823319Y9129920D01*
X822440Y9130800D01*
X819720Y9134540D01*
X816240Y9138160D01*
X812280Y9141240D01*
X807940Y9143740D01*
X803300Y9145620D01*
X798439Y9146840D01*
X793439Y9147360D01*
X788439Y9147200D01*
X783500Y9146320D01*
X778720Y9144780D01*
X774220Y9142580D01*
X770060Y9139760D01*
X766340Y9136420D01*
X763120Y9132580D01*
X760460Y9128320D01*
X758420Y9123740D01*
X757039Y9118920D01*
X756340Y9113960D01*
X756340Y9108940D01*
X757039Y9103980D01*
X758420Y9099160D01*
X760460Y9094580D01*
X763120Y9090320D01*
X766340Y9086480D01*
X770060Y9083120D01*
X774220Y9080320D01*
X778720Y9078120D01*
X783500Y9076580D01*
X788439Y9075700D01*
X793439Y9075520D01*
X798439Y9076060D01*
X803300Y9077260D01*
X807940Y9079140D01*
X812280Y9081660D01*
X816240Y9084740D01*
X819720Y9088340D01*
X822460Y9092100D01*
X823340Y9092980D01*
X824460Y9093560D01*
X825680Y9093760D01*
X929080Y9093760D01*
X930620Y9093440D01*
X931919Y9092580D01*
X1240980Y8783520D01*
X1241860Y8782180D01*
X1242140Y8780620D01*
X1241800Y8779060D01*
X1240900Y8777780D01*
X1239540Y8776940D01*
X1237960Y8776680D01*
X1236420Y8777080D01*
X1231900Y8779240D01*
X1222620Y8782820D01*
X1213100Y8785680D01*
X1203380Y8787780D01*
X1193520Y8789120D01*
X1183580Y8789700D01*
X1173620Y8789500D01*
X1163720Y8788540D01*
X1153920Y8786820D01*
X1144300Y8784340D01*
X1134880Y8781120D01*
X1125740Y8777180D01*
X1116940Y8772540D01*
X1108520Y8767240D01*
X1100540Y8761280D01*
X1093040Y8754740D01*
X1086080Y8747640D01*
X1079680Y8740020D01*
X1073900Y8731920D01*
X1068740Y8723400D01*
X1064280Y8714520D01*
X1060520Y8705300D01*
X1057480Y8695820D01*
X1055180Y8686140D01*
X1053660Y8676320D01*
X1052880Y8666400D01*
X1052880Y8656440D01*
X1053660Y8646520D01*
X1055180Y8636700D01*
X1057480Y8627020D01*
X1060520Y8617540D01*
X1064280Y8608320D01*
X1068740Y8599440D01*
X1073900Y8590920D01*
X1079680Y8582820D01*
X1086080Y8575200D01*
X1093040Y8568100D01*
X1100540Y8561560D01*
X1108520Y8555600D01*
X1116940Y8550300D01*
X1125740Y8545660D01*
X1134880Y8541720D01*
X1144300Y8538500D01*
X1153920Y8536020D01*
X1163720Y8534300D01*
X1173620Y8533340D01*
G37*
G36*
X1645700Y8534240D02*
G01*
X1649560Y8534580D01*
X1653300Y8535580D01*
X1656800Y8537220D01*
X1659960Y8539440D01*
X1662700Y8542160D01*
X1664920Y8545340D01*
X1666560Y8548840D01*
X1667520Y8552460D01*
X1667920Y8553440D01*
X1668560Y8554260D01*
X2206880Y9092580D01*
X2208180Y9093440D01*
X2209700Y9093760D01*
X2284660Y9093760D01*
X2285980Y9093520D01*
X2287160Y9092880D01*
X2288040Y9091880D01*
X2289020Y9090320D01*
X2292240Y9086480D01*
X2295960Y9083120D01*
X2300120Y9080320D01*
X2304620Y9078120D01*
X2309400Y9076580D01*
X2314340Y9075700D01*
X2319340Y9075520D01*
X2324340Y9076060D01*
X2329200Y9077260D01*
X2333840Y9079140D01*
X2338180Y9081660D01*
X2342140Y9084740D01*
X2345620Y9088340D01*
X2348560Y9092400D01*
X2350920Y9096820D01*
X2352640Y9101540D01*
X2353680Y9106440D01*
X2354020Y9111440D01*
X2353680Y9116440D01*
X2352640Y9121360D01*
X2350920Y9126060D01*
X2348560Y9130500D01*
X2345620Y9134540D01*
X2342140Y9138160D01*
X2338180Y9141240D01*
X2333840Y9143740D01*
X2329200Y9145620D01*
X2324340Y9146840D01*
X2319340Y9147360D01*
X2314340Y9147200D01*
X2309400Y9146320D01*
X2304620Y9144780D01*
X2300120Y9142580D01*
X2295960Y9139760D01*
X2292240Y9136420D01*
X2289020Y9132580D01*
X2288040Y9131040D01*
X2287160Y9130020D01*
X2285980Y9129380D01*
X2284660Y9129160D01*
X2200040Y9129140D01*
X2196680Y9128660D01*
X2193580Y9127620D01*
X2190720Y9126040D01*
X2188080Y9123840D01*
X1643540Y8579300D01*
X1642700Y8578660D01*
X1641740Y8578260D01*
X1638120Y8577280D01*
X1634600Y8575660D01*
X1631440Y8573440D01*
X1628700Y8570700D01*
X1626480Y8567520D01*
X1624840Y8564020D01*
X1623839Y8560280D01*
X1623500Y8556440D01*
X1623839Y8552580D01*
X1624840Y8548840D01*
X1626480Y8545340D01*
X1628700Y8542160D01*
X1631440Y8539440D01*
X1634600Y8537220D01*
X1638120Y8535580D01*
X1641840Y8534580D01*
G37*
G36*
X1990980Y8584480D02*
G01*
X1995140Y8584480D01*
X1995140Y8603000D01*
X1980540Y8603000D01*
X1980540Y8594900D01*
X1980820Y8592420D01*
X1981579Y8590260D01*
X1982800Y8588340D01*
X1984400Y8586720D01*
X1986339Y8585520D01*
X1988480Y8584760D01*
G37*
G36*
X2581520Y8584480D02*
G01*
X2585700Y8584480D01*
X2585700Y8603000D01*
X2571100Y8603000D01*
X2571100Y8594900D01*
X2571380Y8592420D01*
X2572140Y8590260D01*
X2573340Y8588340D01*
X2574960Y8586720D01*
X2576880Y8585520D01*
X2579040Y8584760D01*
G37*
G36*
X2013920Y8584480D02*
G01*
X2018080Y8584480D01*
X2020580Y8584760D01*
X2022720Y8585520D01*
X2024660Y8586720D01*
X2026260Y8588340D01*
X2027480Y8590260D01*
X2028220Y8592420D01*
X2028500Y8594900D01*
X2028500Y8603000D01*
X2013920Y8603000D01*
G37*
G36*
X2604460Y8584480D02*
G01*
X2608639Y8584480D01*
X2611120Y8584760D01*
X2613279Y8585520D01*
X2615200Y8586720D01*
X2616820Y8588340D01*
X2618020Y8590260D01*
X2618780Y8592420D01*
X2619060Y8594900D01*
X2619060Y8603000D01*
X2604460Y8603000D01*
G37*
G36*
X2571100Y8629660D02*
G01*
X2585700Y8629660D01*
X2585700Y8648180D01*
X2581520Y8648180D01*
X2579040Y8647900D01*
X2576880Y8647160D01*
X2574960Y8645940D01*
X2573340Y8644340D01*
X2572140Y8642400D01*
X2571380Y8640260D01*
X2571100Y8637760D01*
G37*
G36*
X2604460Y8629660D02*
G01*
X2619060Y8629660D01*
X2619060Y8637760D01*
X2618780Y8640260D01*
X2618020Y8642400D01*
X2616820Y8644340D01*
X2615200Y8645940D01*
X2613279Y8647160D01*
X2611120Y8647900D01*
X2608639Y8648180D01*
X2604460Y8648180D01*
G37*
G36*
X572680Y8946540D02*
G01*
X579780Y8947080D01*
X586800Y8948360D01*
X593640Y8950360D01*
X600240Y8953040D01*
X606540Y8956400D01*
X612460Y8960380D01*
X617920Y8964940D01*
X622900Y8970040D01*
X627320Y8975640D01*
X631160Y8981660D01*
X634340Y8988040D01*
X636860Y8994700D01*
X638680Y9001600D01*
X639760Y9008640D01*
X640140Y9015760D01*
X639760Y9022880D01*
X638680Y9029920D01*
X636860Y9036820D01*
X634340Y9043480D01*
X631160Y9049860D01*
X627320Y9055880D01*
X622900Y9061480D01*
X617920Y9066580D01*
X612460Y9071140D01*
X606540Y9075120D01*
X600240Y9078480D01*
X593640Y9081160D01*
X586800Y9083160D01*
X579780Y9084440D01*
X572680Y9084980D01*
X565540Y9084800D01*
X558480Y9083880D01*
X551540Y9082240D01*
X544800Y9079900D01*
X538340Y9076880D01*
X532240Y9073220D01*
X526540Y9068940D01*
X521300Y9064080D01*
X516599Y9058740D01*
X512460Y9052920D01*
X508960Y9046720D01*
X506100Y9040180D01*
X503920Y9033400D01*
X502480Y9026420D01*
X501740Y9019320D01*
X501740Y9012200D01*
X502480Y9005100D01*
X503920Y8998120D01*
X506100Y8991340D01*
X508960Y8984800D01*
X512460Y8978600D01*
X516599Y8972780D01*
X521300Y8967440D01*
X526540Y8962580D01*
X532240Y8958300D01*
X538340Y8954640D01*
X544800Y8951620D01*
X551540Y8949280D01*
X558480Y8947640D01*
X565540Y8946720D01*
G37*
G36*
X2541180Y8946540D02*
G01*
X2548280Y8947080D01*
X2555300Y8948360D01*
X2562140Y8950360D01*
X2568740Y8953040D01*
X2575040Y8956400D01*
X2580960Y8960380D01*
X2586420Y8964940D01*
X2591400Y8970040D01*
X2595820Y8975640D01*
X2599660Y8981660D01*
X2602840Y8988040D01*
X2605360Y8994700D01*
X2607180Y9001600D01*
X2608260Y9008640D01*
X2608639Y9015760D01*
X2608260Y9022880D01*
X2607180Y9029920D01*
X2605360Y9036820D01*
X2602840Y9043480D01*
X2599660Y9049860D01*
X2595820Y9055880D01*
X2591400Y9061480D01*
X2586420Y9066580D01*
X2580960Y9071140D01*
X2575040Y9075120D01*
X2568740Y9078480D01*
X2562140Y9081160D01*
X2555300Y9083160D01*
X2548280Y9084440D01*
X2541180Y9084980D01*
X2534040Y9084800D01*
X2526980Y9083880D01*
X2520040Y9082240D01*
X2513300Y9079900D01*
X2506840Y9076880D01*
X2500740Y9073220D01*
X2495040Y9068940D01*
X2489800Y9064080D01*
X2485100Y9058740D01*
X2480960Y9052920D01*
X2477460Y9046720D01*
X2474600Y9040180D01*
X2472420Y9033400D01*
X2470980Y9026420D01*
X2470240Y9019320D01*
X2470240Y9012200D01*
X2470980Y9005100D01*
X2472420Y8998120D01*
X2474600Y8991340D01*
X2477460Y8984800D01*
X2480960Y8978600D01*
X2485100Y8972780D01*
X2489800Y8967440D01*
X2495040Y8962580D01*
X2500740Y8958300D01*
X2506840Y8954640D01*
X2513300Y8951620D01*
X2520040Y8949280D01*
X2526980Y8947640D01*
X2534040Y8946720D01*
G37*
G36*
X2013839Y9075520D02*
G01*
X2018839Y9076060D01*
X2023700Y9077260D01*
X2028340Y9079140D01*
X2032680Y9081660D01*
X2036639Y9084740D01*
X2040120Y9088340D01*
X2043060Y9092400D01*
X2045420Y9096820D01*
X2047140Y9101540D01*
X2048180Y9106440D01*
X2048520Y9111440D01*
X2048180Y9116440D01*
X2047140Y9121360D01*
X2045420Y9126060D01*
X2043060Y9130500D01*
X2040120Y9134540D01*
X2036639Y9138160D01*
X2032680Y9141240D01*
X2028340Y9143740D01*
X2023700Y9145620D01*
X2018839Y9146840D01*
X2013839Y9147360D01*
X2008839Y9147200D01*
X2003899Y9146320D01*
X1999120Y9144780D01*
X1994620Y9142580D01*
X1990460Y9139760D01*
X1986740Y9136420D01*
X1983520Y9132580D01*
X1980860Y9128320D01*
X1978820Y9123740D01*
X1977440Y9118920D01*
X1976740Y9113960D01*
X1976740Y9108940D01*
X1977440Y9103980D01*
X1978820Y9099160D01*
X1980860Y9094580D01*
X1983520Y9090320D01*
X1986740Y9086480D01*
X1990460Y9083120D01*
X1994620Y9080320D01*
X1999120Y9078120D01*
X2003899Y9076580D01*
X2008839Y9075700D01*
G37*
G36*
X1098940Y9075520D02*
G01*
X1103940Y9076060D01*
X1108800Y9077260D01*
X1113440Y9079140D01*
X1117780Y9081660D01*
X1121740Y9084740D01*
X1125220Y9088340D01*
X1128160Y9092400D01*
X1130520Y9096820D01*
X1132240Y9101540D01*
X1133280Y9106440D01*
X1133620Y9111440D01*
X1133280Y9116440D01*
X1132240Y9121360D01*
X1130520Y9126060D01*
X1128160Y9130500D01*
X1125220Y9134540D01*
X1121740Y9138160D01*
X1117780Y9141240D01*
X1113440Y9143740D01*
X1108800Y9145620D01*
X1103940Y9146840D01*
X1098940Y9147360D01*
X1093940Y9147200D01*
X1089000Y9146320D01*
X1084220Y9144780D01*
X1079720Y9142580D01*
X1075560Y9139760D01*
X1071840Y9136420D01*
X1068620Y9132580D01*
X1065960Y9128320D01*
X1063920Y9123740D01*
X1062540Y9118920D01*
X1061840Y9113960D01*
X1061840Y9108940D01*
X1062540Y9103980D01*
X1063920Y9099160D01*
X1065960Y9094580D01*
X1068620Y9090320D01*
X1071840Y9086480D01*
X1075560Y9083120D01*
X1079720Y9080320D01*
X1084220Y9078120D01*
X1089000Y9076580D01*
X1093940Y9075700D01*
G37*
G36*
X1557000Y9176880D02*
G01*
X1564620Y9177440D01*
X1572160Y9178720D01*
X1579540Y9180720D01*
X1586680Y9183440D01*
X1593520Y9186820D01*
X1600020Y9190860D01*
X1606100Y9195500D01*
X1611699Y9200700D01*
X1616759Y9206420D01*
X1621260Y9212600D01*
X1625120Y9219200D01*
X1628340Y9226120D01*
X1630880Y9233340D01*
X1632720Y9240760D01*
X1633820Y9248320D01*
X1634180Y9255940D01*
X1633820Y9263580D01*
X1632720Y9271140D01*
X1630880Y9278560D01*
X1628340Y9285780D01*
X1625120Y9292700D01*
X1621260Y9299300D01*
X1616759Y9305480D01*
X1611699Y9311200D01*
X1606100Y9316400D01*
X1600020Y9321040D01*
X1593520Y9325080D01*
X1586680Y9328460D01*
X1579540Y9331180D01*
X1572160Y9333180D01*
X1564620Y9334460D01*
X1557000Y9335020D01*
X1549360Y9334840D01*
X1541780Y9333920D01*
X1534319Y9332260D01*
X1527040Y9329900D01*
X1520040Y9326860D01*
X1513360Y9323140D01*
X1507060Y9318800D01*
X1501220Y9313860D01*
X1495880Y9308400D01*
X1491100Y9302440D01*
X1486920Y9296040D01*
X1483360Y9289280D01*
X1480480Y9282200D01*
X1478300Y9274880D01*
X1476819Y9267380D01*
X1476080Y9259780D01*
X1476080Y9252120D01*
X1476819Y9244520D01*
X1478300Y9237020D01*
X1480480Y9229700D01*
X1483360Y9222620D01*
X1486920Y9215860D01*
X1491100Y9209460D01*
X1495880Y9203500D01*
X1501220Y9198040D01*
X1507060Y9193100D01*
X1513360Y9188760D01*
X1520040Y9185040D01*
X1527040Y9182000D01*
X1534319Y9179640D01*
X1541780Y9177980D01*
X1549360Y9177060D01*
G37*

%LPD*%
G36*
X2279140Y6017760D02*
G01*
X2277440Y6018140D01*
X2276060Y6019220D01*
X2275260Y6020780D01*
X2275220Y6022540D01*
X2275920Y6024140D01*
X2277240Y6025280D01*
X2282060Y6027880D01*
X2286080Y6030880D01*
X2289620Y6034440D01*
X2292640Y6038460D01*
X2295040Y6042859D01*
X2296800Y6047560D01*
X2297860Y6052480D01*
X2298220Y6057480D01*
X2297860Y6062500D01*
X2296800Y6067400D01*
X2295040Y6072100D01*
X2292640Y6076500D01*
X2289620Y6080520D01*
X2286080Y6084080D01*
X2282060Y6087080D01*
X2277660Y6089500D01*
X2272940Y6091240D01*
X2268040Y6092320D01*
X2262900Y6092680D01*
X2233180Y6092680D01*
X2228020Y6092320D01*
X2223120Y6091240D01*
X2218420Y6089500D01*
X2214000Y6087080D01*
X2209980Y6084080D01*
X2206440Y6080520D01*
X2203640Y6076780D01*
X2202760Y6075920D01*
X2201660Y6075380D01*
X2200440Y6075180D01*
X1716860Y6075180D01*
X1715320Y6075480D01*
X1714040Y6076360D01*
X1393480Y6396900D01*
X1392640Y6398160D01*
X1392320Y6399640D01*
X1392580Y6401140D01*
X1393360Y6402420D01*
X1394580Y6403320D01*
X1396060Y6403720D01*
X1396980Y6403780D01*
X1402140Y6404800D01*
X1407120Y6406480D01*
X1411819Y6408819D01*
X1416200Y6411740D01*
X1419980Y6415060D01*
X1421279Y6415820D01*
X1422740Y6416040D01*
X1424199Y6415720D01*
X1425440Y6414880D01*
X1640000Y6200340D01*
X1642720Y6198300D01*
X1645640Y6196840D01*
X1648779Y6195940D01*
X1652200Y6195640D01*
X2213980Y6195640D01*
X2215680Y6195240D01*
X2217060Y6194180D01*
X2217860Y6192619D01*
X2217920Y6190880D01*
X2217220Y6189280D01*
X2215900Y6188120D01*
X2214000Y6187080D01*
X2209980Y6184080D01*
X2206440Y6180520D01*
X2203420Y6176500D01*
X2201240Y6172480D01*
X2225540Y6172480D01*
X2225540Y6191640D01*
X2225840Y6193160D01*
X2226700Y6194460D01*
X2228000Y6195320D01*
X2229540Y6195640D01*
X2266540Y6195640D01*
X2268060Y6195320D01*
X2269360Y6194460D01*
X2270220Y6193160D01*
X2270540Y6191640D01*
X2270540Y6172480D01*
X2294840Y6172480D01*
X2292640Y6176500D01*
X2289620Y6180520D01*
X2286080Y6184080D01*
X2282060Y6187080D01*
X2280160Y6188120D01*
X2278860Y6189280D01*
X2278160Y6190880D01*
X2278200Y6192619D01*
X2279000Y6194180D01*
X2280380Y6195240D01*
X2282080Y6195640D01*
X2453280Y6195640D01*
X2454820Y6195320D01*
X2456120Y6194460D01*
X2473160Y6177400D01*
X2474080Y6175980D01*
X2474320Y6174299D01*
X2473840Y6172660D01*
X2472680Y6170520D01*
X2470920Y6165820D01*
X2469860Y6160920D01*
X2469500Y6155900D01*
X2469860Y6150900D01*
X2470920Y6146000D01*
X2472680Y6141300D01*
X2475080Y6136880D01*
X2478100Y6132859D01*
X2481640Y6129320D01*
X2485660Y6126300D01*
X2490060Y6123900D01*
X2494780Y6122140D01*
X2499680Y6121079D01*
X2504820Y6120700D01*
X2534540Y6120700D01*
X2539700Y6121079D01*
X2544600Y6122140D01*
X2549300Y6123900D01*
X2555660Y6127279D01*
X2557420Y6127260D01*
X2559000Y6126460D01*
X2560080Y6125080D01*
X2560460Y6123360D01*
X2560460Y6095100D01*
X2560160Y6093579D01*
X2559280Y6092279D01*
X2558000Y6091420D01*
X2556460Y6091100D01*
X2479920Y6091100D01*
X2477420Y6090820D01*
X2475280Y6090080D01*
X2473340Y6088860D01*
X2471740Y6087260D01*
X2470520Y6085320D01*
X2469760Y6083180D01*
X2469480Y6080680D01*
X2469480Y6031140D01*
X2469760Y6028640D01*
X2470520Y6026500D01*
X2472580Y6023300D01*
X2472880Y6021760D01*
X2472580Y6020240D01*
X2471700Y6018940D01*
X2470400Y6018060D01*
X2468880Y6017760D01*
G37*

%LPC*%
G36*
X2270540Y6123200D02*
G01*
X2272940Y6123720D01*
X2277660Y6125480D01*
X2282060Y6127880D01*
X2286080Y6130880D01*
X2289620Y6134440D01*
X2292640Y6138460D01*
X2294840Y6142480D01*
X2270540Y6142480D01*
G37*
G36*
X2225540Y6123200D02*
G01*
X2225540Y6142480D01*
X2201240Y6142480D01*
X2203420Y6138460D01*
X2206440Y6134440D01*
X2209980Y6130880D01*
X2214000Y6127880D01*
X2218420Y6125480D01*
X2223120Y6123720D01*
G37*

%LPD*%
D10*
X1649800Y2291610D02*
G01*
X1667080Y2308890D01*
X1667080Y2428261D01*
X1252870Y2842471D01*
X1150261Y2842471D01*
X1248960Y2440711D02*
G01*
X601181Y3088490D01*
X601181Y3099241D01*
X1968510Y832480D02*
G01*
X1968510Y897480D01*
X2101180Y1030151D01*
X1538161Y2081941D02*
G01*
X1538161Y1859230D01*
X1886971Y1510421D01*
X1886971Y849551D01*
X1961251Y775270D01*
X2004521Y775270D01*
X1630560Y2217141D02*
G01*
X1630560Y2169540D01*
X1572541Y2111520D01*
X1555491Y2111520D01*
X1538161Y2094191D01*
X1538161Y2081941D01*
X1538161Y2081941D02*
G01*
X1249800Y2081941D01*
X1630560Y2217141D02*
G01*
X1417520Y2217141D01*
X1288531Y2346131D01*
X1278150Y2346131D01*
X547170Y3077111D01*
X547170Y3645230D01*
X701181Y3799241D01*
X2004521Y4640171D02*
G01*
X2047470Y4640171D01*
X2232681Y4825381D01*
X2565001Y4825381D01*
X2595081Y4795300D01*
X2595081Y4679331D01*
X1249800Y7240861D02*
G01*
X649711Y7840951D01*
X616531Y7840951D01*
X1630560Y2217141D02*
G01*
X1929390Y2217141D01*
X1175870Y5660681D02*
G01*
X878791Y5660681D01*
X791730Y5573620D01*
X791730Y5573620D02*
G01*
X1732480Y4632871D01*
X1997220Y4632871D01*
X2004521Y4640171D01*
X2205380Y7354591D02*
G01*
X2371410Y7354591D01*
X2412191Y7313811D01*
X1899800Y7372240D02*
G01*
X2187731Y7372240D01*
X2205380Y7354591D01*
X2004521Y775270D02*
G01*
X2010811Y781561D01*
X2595011Y781561D01*
X2595081Y781491D01*
X2004521Y742321D02*
G01*
X2004521Y775270D01*
X2595081Y742321D02*
G01*
X2595081Y781491D01*
X2540950Y8496860D02*
G01*
X2084831Y8496860D01*
X2004521Y8577170D01*
X2595081Y8577170D02*
G01*
X2540950Y8523040D01*
X2540950Y8496860D01*
X2540950Y8496860D02*
G01*
X2540950Y7840951D01*
X2595081Y8616341D02*
G01*
X2595081Y8577170D01*
X2004521Y4679331D02*
G01*
X2004521Y4640171D01*
X2540950Y7840951D02*
G01*
X2591990Y7789911D01*
X2591990Y7493611D01*
X2412191Y7313811D01*
X2004521Y8616341D02*
G01*
X2004521Y8577170D01*
X616531Y7840951D02*
G01*
X616531Y8103031D01*
X929411Y8415911D01*
X1843261Y8415911D01*
X2004521Y8577170D01*
X2539400Y7186601D02*
G01*
X2412191Y7313811D01*
X1265880Y2291480D02*
G01*
X1196441Y2291480D01*
X715610Y2772310D01*
X2501180Y3099241D02*
G01*
X2559061Y3157121D01*
X2559061Y4769490D01*
X1932480Y4679331D02*
G01*
X1932480Y4718501D01*
X2193441Y4827970D02*
G01*
X2095730Y4730261D01*
X1944241Y4730261D01*
X1932480Y4718501D01*
X2523041Y4640171D02*
G01*
X2523041Y4125381D01*
X2249040Y3851381D01*
X2523041Y4679331D02*
G01*
X2523041Y4640171D01*
X2254741Y4795801D02*
G01*
X2410370Y4640171D01*
X2523041Y4640171D01*
X667510Y7540940D02*
G01*
X957070Y7251381D01*
X1191630Y7251381D01*
X2190520Y5957480D02*
G01*
X1726500Y5493461D01*
X971890Y5493461D01*
X891730Y5573620D01*
X616531Y7540940D02*
G01*
X667510Y7540940D01*
X1920801Y7309400D02*
G01*
X1866720Y7363471D01*
X1866720Y7387820D01*
X1891060Y7412161D01*
X2361180Y7412161D01*
X2489970Y7540951D01*
X2539400Y6986601D02*
G01*
X2243590Y6986601D01*
X1920801Y7309400D01*
X1920801Y7309400D02*
G01*
X1799800Y7188400D01*
X1799800Y7188400D02*
G01*
X1332231Y7188400D01*
X1317011Y7203620D01*
X1799800Y7188400D02*
G01*
X1799800Y7159211D01*
X2523041Y703161D02*
G01*
X2523110Y703090D01*
X2624790Y703090D01*
X2633071Y711370D01*
X2633071Y2133870D01*
X2590950Y2175990D01*
X2523041Y703161D02*
G01*
X2522970Y703090D01*
X1971720Y703090D01*
X1932491Y742321D01*
X2523041Y742321D02*
G01*
X2523041Y703161D01*
X2248031Y5957480D02*
G01*
X2190520Y5957480D01*
X2249040Y3851381D02*
G01*
X2301180Y3799241D01*
X1801180Y3799241D02*
G01*
X1853320Y3851381D01*
X2249040Y3851381D01*
X2478330Y8545601D02*
G01*
X2458540Y8525810D01*
X2270430Y8525810D01*
X2140671Y8655571D01*
X1932551Y8655571D01*
X1932480Y8655501D01*
X2523041Y8577170D02*
G01*
X2491471Y8545601D01*
X2478330Y8545601D01*
X1932480Y8616341D02*
G01*
X1932480Y8655501D01*
X2523041Y8616341D02*
G01*
X2523041Y8577170D01*
X1301180Y3099241D02*
G01*
X1249651Y3047710D01*
X852710Y3047710D01*
X801180Y3099241D01*
X1801180Y3099241D02*
G01*
X1751400Y3049461D01*
X1350960Y3049461D01*
X1301180Y3099241D01*
X2519691Y6255911D02*
G01*
X2577200Y6255911D01*
X2548450Y6055911D02*
G01*
X2578161Y6085621D01*
X2578161Y6254951D01*
X2577200Y6255911D01*
X2548450Y6055911D02*
G01*
X2577200Y6055911D01*
X2519691Y6055911D02*
G01*
X2548450Y6055911D01*
X2248031Y5957480D02*
G01*
X2305541Y5957480D01*
X2305541Y5957480D02*
G01*
X2350430Y5912591D01*
X2552350Y5912591D01*
X2581680Y5941921D01*
X2581680Y6051430D01*
X2577200Y6055911D01*
X2590950Y2475990D02*
G01*
X2590950Y2809470D01*
X2301180Y3099241D01*
X2540950Y7540951D02*
G01*
X2489970Y7540951D01*
X616531Y7740951D02*
G01*
X1037371Y7320111D01*
X1124810Y7320111D01*
X2540950Y7740951D02*
G01*
X2294400Y7494400D01*
X1141730Y7494400D01*
X1291730Y5573620D02*
G01*
X1205451Y5659901D01*
X1205451Y5672941D01*
X941730Y5936660D01*
X941730Y6991821D01*
X1004130Y7054220D01*
X2540950Y7640951D02*
G01*
X2491990Y7591990D01*
X2427911Y7591990D01*
X2282901Y7446981D01*
X1853560Y7446981D01*
X1823770Y7417190D01*
X1690051Y7417190D01*
X1506060Y7233200D01*
X1304760Y7233200D01*
X1301701Y7230140D01*
X1286741Y7230140D01*
X1148441Y7091840D01*
X1041751Y7091840D01*
X1004130Y7054220D01*
X1004130Y7054220D02*
G01*
X565491Y7492851D01*
X565491Y7589911D01*
X616531Y7640951D01*
X901180Y3099241D02*
G01*
X846980Y3153440D01*
X781471Y3153440D01*
X751201Y3123171D01*
X751201Y3074081D01*
X892451Y2932831D01*
X1652260Y2932831D01*
X1782721Y2802370D01*
X1820470Y2674290D02*
G01*
X1620020Y2874740D01*
X1001180Y2874740D01*
X1701180Y3099241D02*
G01*
X1451180Y3349241D01*
X1451180Y4329901D01*
X1348540Y4432541D01*
X2559061Y832480D02*
G01*
X2559061Y871651D01*
X2201180Y3099241D02*
G01*
X2201180Y2710630D01*
X2378661Y2533150D01*
X2378661Y1052051D01*
X2559061Y871651D01*
X2401180Y3099241D02*
G01*
X2453341Y3047080D01*
X2522141Y3047080D01*
X2629991Y3154931D01*
X2629991Y4800630D01*
X2573071Y4857550D01*
X2017400Y4857550D01*
X1968500Y4808651D01*
X1968500Y4769490D02*
G01*
X1968500Y4808651D01*
X2399570Y8558150D02*
G01*
X2421060Y8558150D01*
X2459561Y8596651D01*
X2459561Y8618141D01*
X2508751Y8667331D01*
X2559061Y8667331D01*
X2559061Y8706500D02*
G01*
X2559061Y8667331D01*
X1701180Y6582390D02*
G01*
X1349800Y6933771D01*
X1349800Y7156061D01*
X1899800Y2289801D02*
G01*
X1899800Y2672260D01*
X1850910Y2721151D01*
X1850910Y3449511D01*
X1501180Y3799241D01*
X1852811Y2289441D02*
G01*
X1852811Y2683791D01*
X1825830Y2710770D01*
X1825830Y2813941D01*
X1648900Y2990871D01*
X1451180Y2990871D01*
X1968500Y8706500D02*
G01*
X1968500Y8745661D01*
X2429980Y8608910D02*
G01*
X2293230Y8745661D01*
X1968500Y8745661D01*
X1391730Y6473620D02*
G01*
X1652021Y6213330D01*
X2462271Y6213330D01*
X2519691Y6155911D01*
X1191730Y6473620D02*
G01*
X1665290Y6000061D01*
X2475541Y6000061D01*
X2519691Y5955911D01*
X1291730Y6473620D02*
G01*
X1707870Y6057480D01*
X2248031Y6057480D01*
X792191Y337431D02*
G01*
X976341Y337431D01*
X1463690Y824780D01*
X792191Y1237431D02*
G01*
X1106601Y1551840D01*
X1449800Y1551840D01*
X1499800Y2264920D02*
G01*
X1506280Y2258440D01*
X1939750Y2258440D01*
X2050261Y2368951D01*
X2318091Y5174441D02*
G01*
X2210851Y5174441D01*
X1751071Y4714661D01*
X2012591Y4274441D02*
G01*
X1824900Y4462130D01*
X1333251Y4462130D01*
X1141021Y4269901D01*
X1141021Y3946201D01*
X1051190Y3856370D01*
X1051190Y3556370D01*
X651181Y3156361D01*
X651181Y3076900D01*
X682240Y3045841D01*
X691691Y3045841D01*
X1423950Y2313580D01*
X1423950Y2300740D01*
X1567740Y2081941D02*
G01*
X2328971Y2081941D01*
X2346320Y2099290D01*
X1599800Y2185191D02*
G01*
X1414011Y2185191D01*
X1278140Y2321060D01*
X1264840Y2321060D01*
X520961Y3064940D01*
X520961Y4003211D01*
X792191Y4274441D01*
X1633341Y2406460D02*
G01*
X1383351Y2406460D01*
X888361Y2901451D01*
X1605110Y2448391D02*
G01*
X1384450Y2448391D01*
X950261Y2882581D01*
X1097691Y5174441D02*
G01*
X980681Y5057431D01*
X950261Y5057431D01*
X2318091Y1237431D02*
G01*
X1668150Y1887370D01*
X1599800Y1887370D01*
X2318091Y337431D02*
G01*
X2276561Y337431D01*
X1699800Y914191D01*
X1699800Y1575860D01*
X792191Y8211451D02*
G01*
X935891Y8211451D01*
X1549800Y7597541D01*
X1097691Y8211451D02*
G01*
X1499800Y7809340D01*
X792191Y9111451D02*
G01*
X938070Y9111451D01*
X1449800Y8599721D01*
X2318091Y9111451D02*
G01*
X2200721Y9111451D01*
X1645700Y8556430D01*
X2318091Y8211451D02*
G01*
X2318091Y8129780D01*
X1714241Y7525931D01*
X2290950Y2275990D02*
G01*
X2052101Y2514841D01*
X2052101Y3748321D01*
X2001180Y3799241D01*
X2290950Y2175990D02*
G01*
X1952101Y2514841D01*
X1952101Y3748321D01*
X1901180Y3799241D01*
D11*
G01*
X1968505Y832479D03*
G01*
X1932485Y742320D03*
G01*
X2004524Y742320D03*
G01*
X2559054Y832481D03*
G01*
X2523035Y742322D03*
G01*
X2595075Y742322D03*
G01*
X1968503Y4769489D03*
G01*
X1932483Y4679331D03*
G01*
X2004524Y4679331D03*
G01*
X2559054Y4769489D03*
G01*
X2523035Y4679331D03*
G01*
X2595075Y4679331D03*
G01*
X1968503Y8706496D03*
G01*
X1932483Y8616338D03*
G01*
X2004524Y8616338D03*
G01*
X2559056Y8706496D03*
G01*
X2523035Y8616338D03*
G01*
X2595075Y8616338D03*
D12*
G01*
X701179Y3099240D03*
G01*
X601179Y3099240D03*
G01*
X2501180Y3099240D03*
G01*
X801180Y3099240D03*
G01*
X901180Y3099240D03*
G01*
X1001180Y3099240D03*
G01*
X1101180Y3099240D03*
G01*
X1201180Y3099240D03*
G01*
X1301180Y3099240D03*
G01*
X1401180Y3099240D03*
G01*
X1501180Y3099240D03*
G01*
X1601180Y3099240D03*
G01*
X1701180Y3099240D03*
G01*
X1801180Y3099240D03*
G01*
X1901180Y3099240D03*
G01*
X2001180Y3099240D03*
G01*
X2101180Y3099240D03*
G01*
X2201180Y3099240D03*
G01*
X2301180Y3099240D03*
G01*
X2401180Y3099240D03*
G01*
X601179Y3799240D03*
G01*
X2401180Y3799240D03*
G01*
X2301180Y3799240D03*
G01*
X2201180Y3799240D03*
G01*
X2101180Y3799240D03*
G01*
X2001180Y3799240D03*
G01*
X1901180Y3799240D03*
G01*
X1801180Y3799240D03*
G01*
X1701180Y3799240D03*
G01*
X1601180Y3799240D03*
G01*
X1501180Y3799240D03*
G01*
X1401180Y3799240D03*
G01*
X1301180Y3799240D03*
G01*
X1201180Y3799240D03*
G01*
X1101180Y3799240D03*
G01*
X1001180Y3799240D03*
G01*
X901180Y3799240D03*
G01*
X801180Y3799240D03*
G01*
X2501180Y3799240D03*
G01*
X701179Y3799240D03*
D13*
G01*
X606300Y3341559D03*
G01*
X606300Y3556129D03*
D14*
G01*
X725590Y3353370D03*
G01*
X725590Y3544319D03*
D15*
G01*
X2539399Y6986599D03*
D16*
G01*
X2539399Y7186599D03*
D15*
G01*
X2519690Y6255909D03*
D16*
G01*
X2519690Y6155909D03*
D15*
G01*
X2519690Y6055909D03*
D16*
G01*
X2519690Y5955909D03*
G01*
X2248029Y6157480D03*
G01*
X2248029Y6057480D03*
D15*
G01*
X2248029Y5957480D03*
D17*
G01*
X792190Y337429D03*
G01*
X1097690Y337429D03*
G01*
X792190Y1237429D03*
G01*
X1097690Y1237429D03*
G01*
X2012590Y1237429D03*
G01*
X2318090Y1237429D03*
G01*
X2012590Y337429D03*
G01*
X2318090Y337429D03*
G01*
X792190Y4274440D03*
G01*
X1097690Y4274440D03*
G01*
X792190Y5174440D03*
G01*
X1097690Y5174440D03*
G01*
X2012590Y5174440D03*
G01*
X2318090Y5174440D03*
G01*
X2012590Y4274440D03*
G01*
X2318090Y4274440D03*
G01*
X792190Y8211450D03*
G01*
X1097690Y8211450D03*
G01*
X792190Y9111450D03*
G01*
X1097690Y9111450D03*
G01*
X2012590Y9111450D03*
G01*
X2318090Y9111450D03*
G01*
X2012590Y8211450D03*
G01*
X2318090Y8211450D03*
D18*
G01*
X616529Y7840949D03*
G01*
X616529Y7740949D03*
G01*
X616529Y7640949D03*
D19*
G01*
X616529Y7540940D03*
G01*
X2540950Y7540949D03*
D18*
G01*
X2540950Y7640949D03*
G01*
X2540950Y7740949D03*
G01*
X2540950Y7840949D03*
D20*
G01*
X1491729Y6473620D03*
G01*
X1391729Y6473620D03*
G01*
X1291729Y6473620D03*
G01*
X1191729Y6473620D03*
G01*
X1091729Y6473620D03*
G01*
X991729Y6473620D03*
G01*
X891729Y6473620D03*
G01*
X791729Y6473620D03*
G01*
X791729Y5573620D03*
G01*
X891729Y5573620D03*
G01*
X991729Y5573620D03*
G01*
X1091729Y5573620D03*
G01*
X1191729Y5573620D03*
G01*
X1291729Y5573620D03*
G01*
X1391729Y5573620D03*
G01*
X1491729Y5573620D03*
D12*
G01*
X2290950Y2475990D03*
G01*
X2290950Y2375990D03*
G01*
X2290950Y2275990D03*
G01*
X2290950Y2175990D03*
G01*
X2590950Y2175990D03*
G01*
X2590950Y2275990D03*
G01*
X2590950Y2375990D03*
G01*
X2590950Y2475990D03*
D21*
G01*
X1649799Y2291610D03*
G01*
X1150259Y2842469D03*
G01*
X1248959Y2440709D03*
G01*
X2101180Y1030149D03*
G01*
X1249799Y2081939D03*
G01*
X1175870Y5660680D03*
G01*
X2205379Y7354589D03*
G01*
X1249799Y7240859D03*
G01*
X1929390Y2217139D03*
G01*
X1899799Y7372240D03*
G01*
X715610Y2772310D03*
G01*
X1265879Y2291480D03*
G01*
X2193440Y4827970D03*
G01*
X2254740Y4795799D03*
G01*
X1191629Y7251379D03*
G01*
X1317010Y7203620D03*
G01*
X2478329Y8545600D03*
G01*
X1799799Y7159209D03*
G01*
X1124809Y7320110D03*
G01*
X1141729Y7494400D03*
G01*
X1782719Y2802370D03*
G01*
X1001180Y2874740D03*
G01*
X1820469Y2674290D03*
G01*
X1348540Y4432539D03*
G01*
X2399570Y8558150D03*
G01*
X1701180Y6582390D03*
G01*
X1349799Y7156060D03*
G01*
X1899799Y2289800D03*
G01*
X1451180Y2990870D03*
G01*
X1852809Y2289439D03*
G01*
X2429979Y8608910D03*
G01*
X1463689Y824780D03*
G01*
X1449799Y1551840D03*
G01*
X1499799Y2264920D03*
G01*
X2050259Y2368950D03*
G01*
X1751069Y4714659D03*
G01*
X1423950Y2300740D03*
G01*
X2346319Y2099290D03*
G01*
X1567740Y2081939D03*
G01*
X1599799Y2185189D03*
G01*
X888360Y2901450D03*
G01*
X1633339Y2406460D03*
G01*
X950259Y5057429D03*
G01*
X950259Y2882579D03*
G01*
X1605110Y2448389D03*
G01*
X1599799Y1887370D03*
G01*
X1699799Y1575859D03*
G01*
X1549799Y7597539D03*
G01*
X1499799Y7809340D03*
G01*
X1449799Y8599720D03*
G01*
X1645699Y8556430D03*
G01*
X1714239Y7525929D03*
M02*
