G04 Layer: TopSilkscreenLayer*
G04 EasyEDA v6.5.22, 2022-11-17 17:56:15*
G04 bd1838edf7794fe9965007c2dd97f0f2,c41f2f61388c4f97afb2f396c9cd50e1,10*
G04 Gerber Generator version 0.2*
G04 Scale: 100 percent, Rotated: No, Reflected: No *
G04 Dimensions in inches *
G04 leading zeros omitted , absolute positions ,3 integer and 6 decimal *
%FSLAX36Y36*%
%MOIN*%

%ADD10C,0.0080*%
%ADD11C,0.0059*%
%ADD12C,0.0060*%
%ADD13C,0.0040*%
%ADD14C,0.0026*%
%ADD15C,0.0039*%
%ADD16C,0.0100*%
%ADD17C,0.0050*%
%ADD18C,0.0079*%
%ADD19C,0.0039*%
%ADD20C,0.0134*%

%LPD*%
D10*
X1015699Y2783600D02*
G01*
X1037600Y2732700D01*
X1059399Y2783600D02*
G01*
X1037600Y2732700D01*
X1126999Y2783600D02*
G01*
X1126999Y2732700D01*
X1126999Y2772700D02*
G01*
X1119700Y2780000D01*
X1112500Y2783600D01*
X1101599Y2783600D01*
X1094300Y2780000D01*
X1086999Y2772700D01*
X1083400Y2761799D01*
X1083400Y2754499D01*
X1086999Y2743600D01*
X1094300Y2736300D01*
X1101599Y2732700D01*
X1112500Y2732700D01*
X1119700Y2736300D01*
X1126999Y2743600D01*
X1151000Y2809099D02*
G01*
X1151000Y2732700D01*
X1175000Y2809099D02*
G01*
X1175000Y2732700D01*
X1242700Y2783600D02*
G01*
X1242700Y2732700D01*
X1242700Y2772700D02*
G01*
X1235399Y2780000D01*
X1228100Y2783600D01*
X1217200Y2783600D01*
X1209899Y2780000D01*
X1202700Y2772700D01*
X1198999Y2761799D01*
X1198999Y2754499D01*
X1202700Y2743600D01*
X1209899Y2736300D01*
X1217200Y2732700D01*
X1228100Y2732700D01*
X1235399Y2736300D01*
X1242700Y2743600D01*
X1306700Y2772700D02*
G01*
X1303000Y2780000D01*
X1292100Y2783600D01*
X1281199Y2783600D01*
X1270299Y2780000D01*
X1266700Y2772700D01*
X1270299Y2765399D01*
X1277600Y2761799D01*
X1295699Y2758200D01*
X1303000Y2754499D01*
X1306700Y2747300D01*
X1306700Y2743600D01*
X1303000Y2736300D01*
X1292100Y2732700D01*
X1281199Y2732700D01*
X1270299Y2736300D01*
X1266700Y2743600D01*
X1374300Y2772700D02*
G01*
X1366999Y2780000D01*
X1359700Y2783600D01*
X1348800Y2783600D01*
X1341599Y2780000D01*
X1334300Y2772700D01*
X1330699Y2761799D01*
X1330699Y2754499D01*
X1334300Y2743600D01*
X1341599Y2736300D01*
X1348800Y2732700D01*
X1359700Y2732700D01*
X1366999Y2736300D01*
X1374300Y2743600D01*
X1401899Y2750900D02*
G01*
X1398299Y2747300D01*
X1401899Y2743600D01*
X1405600Y2747300D01*
X1401899Y2750900D01*
X1473199Y2783600D02*
G01*
X1473199Y2725399D01*
X1469600Y2714499D01*
X1465900Y2710900D01*
X1458699Y2707300D01*
X1447700Y2707300D01*
X1440500Y2710900D01*
X1473199Y2772700D02*
G01*
X1465900Y2780000D01*
X1458699Y2783600D01*
X1447700Y2783600D01*
X1440500Y2780000D01*
X1433199Y2772700D01*
X1429600Y2761799D01*
X1429600Y2754499D01*
X1433199Y2743600D01*
X1440500Y2736300D01*
X1447700Y2732700D01*
X1458699Y2732700D01*
X1465900Y2736300D01*
X1473199Y2743600D01*
X1497200Y2809099D02*
G01*
X1500799Y2805399D01*
X1504499Y2809099D01*
X1500799Y2812700D01*
X1497200Y2809099D01*
X1500799Y2783600D02*
G01*
X1500799Y2732700D01*
X1539399Y2809099D02*
G01*
X1539399Y2747300D01*
X1543000Y2736300D01*
X1550299Y2732700D01*
X1557600Y2732700D01*
X1528500Y2783600D02*
G01*
X1553900Y2783600D01*
X1581599Y2809099D02*
G01*
X1581599Y2732700D01*
X1581599Y2769099D02*
G01*
X1592500Y2780000D01*
X1599700Y2783600D01*
X1610699Y2783600D01*
X1617899Y2780000D01*
X1621599Y2769099D01*
X1621599Y2732700D01*
X1645600Y2783600D02*
G01*
X1645600Y2747300D01*
X1649200Y2736300D01*
X1656499Y2732700D01*
X1667399Y2732700D01*
X1674700Y2736300D01*
X1685600Y2747300D01*
X1685600Y2783600D02*
G01*
X1685600Y2732700D01*
X1709600Y2809099D02*
G01*
X1709600Y2732700D01*
X1709600Y2772700D02*
G01*
X1716800Y2780000D01*
X1724099Y2783600D01*
X1735000Y2783600D01*
X1742299Y2780000D01*
X1749600Y2772700D01*
X1753199Y2761799D01*
X1753199Y2754499D01*
X1749600Y2743600D01*
X1742299Y2736300D01*
X1735000Y2732700D01*
X1724099Y2732700D01*
X1716800Y2736300D01*
X1709600Y2743600D01*
X1780799Y2750900D02*
G01*
X1777200Y2747300D01*
X1780799Y2743600D01*
X1784499Y2747300D01*
X1780799Y2750900D01*
X1808500Y2809099D02*
G01*
X1812100Y2805399D01*
X1815699Y2809099D01*
X1812100Y2812700D01*
X1808500Y2809099D01*
X1812100Y2783600D02*
G01*
X1812100Y2732700D01*
X1857899Y2783600D02*
G01*
X1850699Y2780000D01*
X1843400Y2772700D01*
X1839700Y2761799D01*
X1839700Y2754499D01*
X1843400Y2743600D01*
X1850699Y2736300D01*
X1857899Y2732700D01*
X1868800Y2732700D01*
X1876099Y2736300D01*
X1883400Y2743600D01*
X1886999Y2754499D01*
X1886999Y2761799D01*
X1883400Y2772700D01*
X1876099Y2780000D01*
X1868800Y2783600D01*
X1857899Y2783600D01*
X1027574Y2696095D02*
G01*
X1027574Y2648395D01*
X1027574Y2696095D02*
G01*
X1047974Y2696095D01*
X1054873Y2693895D01*
X1057074Y2691595D01*
X1059373Y2686995D01*
X1059373Y2682496D01*
X1057074Y2677896D01*
X1054873Y2675695D01*
X1047974Y2673395D01*
X1027574Y2673395D01*
X1043473Y2673395D02*
G01*
X1059373Y2648395D01*
X1074373Y2696095D02*
G01*
X1074373Y2648395D01*
X1074373Y2696095D02*
G01*
X1103873Y2696095D01*
X1074373Y2673395D02*
G01*
X1092574Y2673395D01*
X1074373Y2648395D02*
G01*
X1103873Y2648395D01*
X1118873Y2696095D02*
G01*
X1137074Y2648395D01*
X1155273Y2696095D02*
G01*
X1137074Y2648395D01*
X1205273Y2686995D02*
G01*
X1209873Y2689295D01*
X1216674Y2696095D01*
X1216674Y2648395D01*
X1233873Y2659796D02*
G01*
X1231674Y2657496D01*
X1233873Y2655196D01*
X1236174Y2657496D01*
X1233873Y2659796D01*
X1264873Y2696095D02*
G01*
X1257974Y2693895D01*
X1253473Y2686995D01*
X1251174Y2675695D01*
X1251174Y2668895D01*
X1253473Y2657496D01*
X1257974Y2650695D01*
X1264873Y2648395D01*
X1269373Y2648395D01*
X1276174Y2650695D01*
X1280774Y2657496D01*
X1282974Y2668895D01*
X1282974Y2675695D01*
X1280774Y2686995D01*
X1276174Y2693895D01*
X1269373Y2696095D01*
X1264873Y2696095D01*
D11*
X755943Y7858649D02*
G01*
X770243Y7821050D01*
X784543Y7858649D02*
G01*
X770243Y7821050D01*
X823243Y7849650D02*
G01*
X821442Y7853249D01*
X817843Y7856849D01*
X814242Y7858649D01*
X807043Y7858649D01*
X803542Y7856849D01*
X799943Y7853249D01*
X798143Y7849650D01*
X796342Y7844349D01*
X796342Y7835349D01*
X798143Y7829949D01*
X799943Y7826450D01*
X803542Y7822849D01*
X807043Y7821050D01*
X814242Y7821050D01*
X817843Y7822849D01*
X821442Y7826450D01*
X823243Y7829949D01*
X861842Y7849650D02*
G01*
X860042Y7853249D01*
X856442Y7856849D01*
X852942Y7858649D01*
X845743Y7858649D01*
X842142Y7856849D01*
X838542Y7853249D01*
X836842Y7849650D01*
X835042Y7844349D01*
X835042Y7835349D01*
X836842Y7829949D01*
X838542Y7826450D01*
X842142Y7822849D01*
X845743Y7821050D01*
X852942Y7821050D01*
X856442Y7822849D01*
X860042Y7826450D01*
X861842Y7829949D01*
X780965Y7754825D02*
G01*
X777366Y7758425D01*
X771966Y7760225D01*
X764866Y7760225D01*
X759466Y7758425D01*
X755866Y7754825D01*
X755866Y7751226D01*
X757665Y7747725D01*
X759466Y7745925D01*
X763065Y7744126D01*
X773765Y7740526D01*
X777366Y7738726D01*
X779165Y7736925D01*
X780965Y7733326D01*
X780965Y7728026D01*
X777366Y7724425D01*
X771966Y7722626D01*
X764866Y7722626D01*
X759466Y7724425D01*
X755866Y7728026D01*
X792766Y7760225D02*
G01*
X792766Y7722626D01*
X792766Y7760225D02*
G01*
X805266Y7760225D01*
X810666Y7758425D01*
X814265Y7754825D01*
X816066Y7751226D01*
X817866Y7745925D01*
X817866Y7736925D01*
X816066Y7731525D01*
X814265Y7728026D01*
X810666Y7724425D01*
X805266Y7722626D01*
X792766Y7722626D01*
X843966Y7760225D02*
G01*
X829665Y7722626D01*
X843966Y7760225D02*
G01*
X858266Y7722626D01*
X834966Y7735126D02*
G01*
X852866Y7735126D01*
X780928Y7656448D02*
G01*
X777429Y7659947D01*
X772029Y7661747D01*
X764828Y7661747D01*
X759529Y7659947D01*
X755929Y7656448D01*
X755929Y7652847D01*
X757728Y7649247D01*
X759529Y7647447D01*
X763028Y7645648D01*
X773828Y7642048D01*
X777429Y7640347D01*
X779129Y7638548D01*
X780928Y7634947D01*
X780928Y7629548D01*
X777429Y7625947D01*
X772029Y7624247D01*
X764828Y7624247D01*
X759529Y7625947D01*
X755929Y7629548D01*
X819629Y7652847D02*
G01*
X817829Y7656448D01*
X814228Y7659947D01*
X810628Y7661747D01*
X803528Y7661747D01*
X799929Y7659947D01*
X796328Y7656448D01*
X794529Y7652847D01*
X792728Y7647447D01*
X792728Y7638548D01*
X794529Y7633148D01*
X796328Y7629548D01*
X799929Y7625947D01*
X803528Y7624247D01*
X810628Y7624247D01*
X814228Y7625947D01*
X817829Y7629548D01*
X819629Y7633148D01*
X831428Y7661747D02*
G01*
X831428Y7624247D01*
X831428Y7624247D02*
G01*
X852929Y7624247D01*
X782728Y7546550D02*
G01*
X780928Y7550149D01*
X777429Y7553649D01*
X773828Y7555450D01*
X766629Y7555450D01*
X763028Y7553649D01*
X759529Y7550149D01*
X757728Y7546550D01*
X755929Y7541149D01*
X755929Y7532249D01*
X757728Y7526849D01*
X759529Y7523249D01*
X763028Y7519650D01*
X766629Y7517849D01*
X773828Y7517849D01*
X777429Y7519650D01*
X780928Y7523249D01*
X782728Y7526849D01*
X782728Y7532249D01*
X773828Y7532249D02*
G01*
X782728Y7532249D01*
X794529Y7555450D02*
G01*
X794529Y7517849D01*
X794529Y7555450D02*
G01*
X819629Y7517849D01*
X819629Y7555450D02*
G01*
X819629Y7517849D01*
X831428Y7555450D02*
G01*
X831428Y7517849D01*
X831428Y7555450D02*
G01*
X843928Y7555450D01*
X849328Y7553649D01*
X852929Y7550149D01*
X854728Y7546550D01*
X856428Y7541149D01*
X856428Y7532249D01*
X854728Y7526849D01*
X852929Y7523249D01*
X849328Y7519650D01*
X843928Y7517849D01*
X831428Y7517849D01*
X2291377Y7858649D02*
G01*
X2305676Y7821050D01*
X2319978Y7858649D02*
G01*
X2305676Y7821050D01*
X2358678Y7849650D02*
G01*
X2356880Y7853249D01*
X2353278Y7856849D01*
X2349677Y7858649D01*
X2342478Y7858649D01*
X2338978Y7856849D01*
X2335378Y7853249D01*
X2333576Y7849650D01*
X2331777Y7844349D01*
X2331777Y7835349D01*
X2333576Y7829949D01*
X2335378Y7826450D01*
X2338978Y7822849D01*
X2342478Y7821050D01*
X2349677Y7821050D01*
X2353278Y7822849D01*
X2356880Y7826450D01*
X2358678Y7829949D01*
X2397280Y7849650D02*
G01*
X2395477Y7853249D01*
X2391880Y7856849D01*
X2388377Y7858649D01*
X2381178Y7858649D01*
X2377577Y7856849D01*
X2373978Y7853249D01*
X2372280Y7849650D01*
X2370477Y7844349D01*
X2370477Y7835349D01*
X2372280Y7829949D01*
X2373978Y7826450D01*
X2377577Y7822849D01*
X2381178Y7821050D01*
X2388377Y7821050D01*
X2391880Y7822849D01*
X2395477Y7826450D01*
X2397280Y7829949D01*
X2320336Y7754825D02*
G01*
X2316737Y7758425D01*
X2311337Y7760225D01*
X2304237Y7760225D01*
X2298837Y7758425D01*
X2295236Y7754825D01*
X2295236Y7751226D01*
X2297039Y7747725D01*
X2298837Y7745925D01*
X2302439Y7744126D01*
X2313136Y7740526D01*
X2316737Y7738726D01*
X2318536Y7736925D01*
X2320336Y7733326D01*
X2320336Y7728026D01*
X2316737Y7724425D01*
X2311337Y7722626D01*
X2304237Y7722626D01*
X2298837Y7724425D01*
X2295236Y7728026D01*
X2332138Y7760225D02*
G01*
X2332138Y7722626D01*
X2332138Y7760225D02*
G01*
X2344638Y7760225D01*
X2350038Y7758425D01*
X2353636Y7754825D01*
X2355435Y7751226D01*
X2357237Y7745925D01*
X2357237Y7736925D01*
X2355435Y7731525D01*
X2353636Y7728026D01*
X2350038Y7724425D01*
X2344638Y7722626D01*
X2332138Y7722626D01*
X2383335Y7760225D02*
G01*
X2369036Y7722626D01*
X2383335Y7760225D02*
G01*
X2397637Y7722626D01*
X2374336Y7735126D02*
G01*
X2392237Y7735126D01*
X2324237Y7656448D02*
G01*
X2320738Y7659947D01*
X2315338Y7661747D01*
X2308139Y7661747D01*
X2302838Y7659947D01*
X2299237Y7656448D01*
X2299237Y7652847D01*
X2301040Y7649247D01*
X2302838Y7647447D01*
X2306337Y7645648D01*
X2317137Y7642048D01*
X2320738Y7640347D01*
X2322438Y7638548D01*
X2324237Y7634947D01*
X2324237Y7629548D01*
X2320738Y7625947D01*
X2315338Y7624247D01*
X2308139Y7624247D01*
X2302838Y7625947D01*
X2299237Y7629548D01*
X2362937Y7652847D02*
G01*
X2361139Y7656448D01*
X2357537Y7659947D01*
X2353940Y7661747D01*
X2346836Y7661747D01*
X2343238Y7659947D01*
X2339637Y7656448D01*
X2337838Y7652847D01*
X2336040Y7647447D01*
X2336040Y7638548D01*
X2337838Y7633148D01*
X2339637Y7629548D01*
X2343238Y7625947D01*
X2346836Y7624247D01*
X2353940Y7624247D01*
X2357537Y7625947D01*
X2361139Y7629548D01*
X2362937Y7633148D01*
X2374736Y7661747D02*
G01*
X2374736Y7624247D01*
X2374736Y7624247D02*
G01*
X2396237Y7624247D01*
X2322102Y7546550D02*
G01*
X2320299Y7550149D01*
X2316800Y7553649D01*
X2313199Y7555450D01*
X2306000Y7555450D01*
X2302399Y7553649D01*
X2298900Y7550149D01*
X2297102Y7546550D01*
X2295299Y7541149D01*
X2295299Y7532249D01*
X2297102Y7526849D01*
X2298900Y7523249D01*
X2302399Y7519650D01*
X2306000Y7517849D01*
X2313199Y7517849D01*
X2316800Y7519650D01*
X2320299Y7523249D01*
X2322102Y7526849D01*
X2322102Y7532249D01*
X2313199Y7532249D02*
G01*
X2322102Y7532249D01*
X2333900Y7555450D02*
G01*
X2333900Y7517849D01*
X2333900Y7555450D02*
G01*
X2358999Y7517849D01*
X2358999Y7555450D02*
G01*
X2358999Y7517849D01*
X2370799Y7555450D02*
G01*
X2370799Y7517849D01*
X2370799Y7555450D02*
G01*
X2383299Y7555450D01*
X2388699Y7553649D01*
X2392299Y7550149D01*
X2394099Y7546550D01*
X2395799Y7541149D01*
X2395799Y7532249D01*
X2394099Y7526849D01*
X2392299Y7523249D01*
X2388699Y7519650D01*
X2383299Y7517849D01*
X2370799Y7517849D01*
D12*
X1090600Y3482399D02*
G01*
X1090600Y3439499D01*
X1090600Y3482399D02*
G01*
X1108999Y3482399D01*
X1115100Y3480399D01*
X1117100Y3478299D01*
X1119200Y3474200D01*
X1119200Y3470100D01*
X1117100Y3466100D01*
X1115100Y3464000D01*
X1108999Y3461999D01*
X1090600Y3461999D01*
X1104899Y3461999D02*
G01*
X1119200Y3439499D01*
X1149099Y3482399D02*
G01*
X1132700Y3439499D01*
X1149099Y3482399D02*
G01*
X1165399Y3439499D01*
X1138800Y3453800D02*
G01*
X1159300Y3453800D01*
X1207600Y3476300D02*
G01*
X1203500Y3480399D01*
X1197299Y3482399D01*
X1189099Y3482399D01*
X1183000Y3480399D01*
X1178900Y3476300D01*
X1178900Y3472199D01*
X1181000Y3468099D01*
X1183000Y3466100D01*
X1187100Y3464000D01*
X1199399Y3459899D01*
X1203500Y3457899D01*
X1205500Y3455799D01*
X1207600Y3451700D01*
X1207600Y3445599D01*
X1203500Y3441500D01*
X1197299Y3439499D01*
X1189099Y3439499D01*
X1183000Y3441500D01*
X1178900Y3445599D01*
X1221099Y3482399D02*
G01*
X1221099Y3439499D01*
X1221099Y3482399D02*
G01*
X1239499Y3482399D01*
X1245600Y3480399D01*
X1247600Y3478299D01*
X1249700Y3474200D01*
X1249700Y3468099D01*
X1247600Y3464000D01*
X1245600Y3461999D01*
X1239499Y3459899D01*
X1221099Y3459899D01*
X1263199Y3482399D02*
G01*
X1263199Y3439499D01*
X1263199Y3482399D02*
G01*
X1281599Y3482399D01*
X1287700Y3480399D01*
X1289799Y3478299D01*
X1291800Y3474200D01*
X1291800Y3470100D01*
X1289799Y3466100D01*
X1287700Y3464000D01*
X1281599Y3461999D01*
X1263199Y3461999D02*
G01*
X1281599Y3461999D01*
X1287700Y3459899D01*
X1289799Y3457899D01*
X1291800Y3453800D01*
X1291800Y3447600D01*
X1289799Y3443600D01*
X1287700Y3441500D01*
X1281599Y3439499D01*
X1263199Y3439499D01*
X1305299Y3482399D02*
G01*
X1305299Y3439499D01*
X1305299Y3482399D02*
G01*
X1331899Y3482399D01*
X1305299Y3461999D02*
G01*
X1321700Y3461999D01*
X1305299Y3439499D02*
G01*
X1331899Y3439499D01*
X1345399Y3482399D02*
G01*
X1345399Y3439499D01*
X1345399Y3482399D02*
G01*
X1363800Y3482399D01*
X1370000Y3480399D01*
X1371999Y3478299D01*
X1374099Y3474200D01*
X1374099Y3470100D01*
X1371999Y3466100D01*
X1370000Y3464000D01*
X1363800Y3461999D01*
X1345399Y3461999D01*
X1359700Y3461999D02*
G01*
X1374099Y3439499D01*
X1387600Y3482399D02*
G01*
X1387600Y3439499D01*
X1387600Y3482399D02*
G01*
X1406000Y3482399D01*
X1412100Y3480399D01*
X1414099Y3478299D01*
X1416199Y3474200D01*
X1416199Y3470100D01*
X1414099Y3466100D01*
X1412100Y3464000D01*
X1406000Y3461999D01*
X1387600Y3461999D01*
X1401899Y3461999D02*
G01*
X1416199Y3439499D01*
X1429700Y3482399D02*
G01*
X1446099Y3461999D01*
X1446099Y3439499D01*
X1462399Y3482399D02*
G01*
X1446099Y3461999D01*
X1507399Y3482399D02*
G01*
X1507399Y3439499D01*
X1507399Y3482399D02*
G01*
X1525799Y3482399D01*
X1531999Y3480399D01*
X1533999Y3478299D01*
X1536099Y3474200D01*
X1536099Y3468099D01*
X1533999Y3464000D01*
X1531999Y3461999D01*
X1525799Y3459899D01*
X1507399Y3459899D01*
X1549600Y3482399D02*
G01*
X1549600Y3439499D01*
X1594600Y3482399D02*
G01*
X1594600Y3439499D01*
X1594600Y3482399D02*
G01*
X1613000Y3482399D01*
X1619099Y3480399D01*
X1621099Y3478299D01*
X1623199Y3474200D01*
X1623199Y3468099D01*
X1621099Y3464000D01*
X1619099Y3461999D01*
X1613000Y3459899D01*
X1594600Y3459899D01*
X1636700Y3482399D02*
G01*
X1636700Y3439499D01*
X1680900Y3472199D02*
G01*
X1678800Y3476300D01*
X1674700Y3480399D01*
X1670600Y3482399D01*
X1662500Y3482399D01*
X1658400Y3480399D01*
X1654300Y3476300D01*
X1652200Y3472199D01*
X1650200Y3466100D01*
X1650200Y3455799D01*
X1652200Y3449699D01*
X1654300Y3445599D01*
X1658400Y3441500D01*
X1662500Y3439499D01*
X1670600Y3439499D01*
X1674700Y3441500D01*
X1678800Y3445599D01*
X1680900Y3449699D01*
X1706599Y3482399D02*
G01*
X1702600Y3480399D01*
X1698500Y3476300D01*
X1696400Y3472199D01*
X1694399Y3466100D01*
X1694399Y3455799D01*
X1696400Y3449699D01*
X1698500Y3445599D01*
X1702600Y3441500D01*
X1706599Y3439499D01*
X1714799Y3439499D01*
X1718900Y3441500D01*
X1723000Y3445599D01*
X1725100Y3449699D01*
X1727100Y3455799D01*
X1727100Y3466100D01*
X1725100Y3472199D01*
X1723000Y3476300D01*
X1718900Y3480399D01*
X1714799Y3482399D01*
X1706599Y3482399D01*
X435990Y3479929D02*
G01*
X431889Y3477829D01*
X427789Y3473730D01*
X425790Y3469630D01*
X425790Y3461529D01*
X427789Y3457429D01*
X431889Y3453330D01*
X435990Y3451230D01*
X442089Y3449229D01*
X452390Y3449229D01*
X458490Y3451230D01*
X462590Y3453330D01*
X466689Y3457429D01*
X468690Y3461529D01*
X468690Y3469630D01*
X466689Y3473730D01*
X462590Y3477829D01*
X458490Y3479929D01*
X452390Y3479929D01*
X452390Y3469630D02*
G01*
X452390Y3479929D01*
X425790Y3493429D02*
G01*
X468690Y3493429D01*
X425790Y3493429D02*
G01*
X425790Y3511830D01*
X427789Y3517930D01*
X429890Y3520030D01*
X433989Y3522029D01*
X440090Y3522029D01*
X444189Y3520030D01*
X446190Y3517930D01*
X448290Y3511830D01*
X448290Y3493429D01*
X435990Y3537530D02*
G01*
X433989Y3537530D01*
X429890Y3539630D01*
X427789Y3541630D01*
X425790Y3545729D01*
X425790Y3553930D01*
X427789Y3558029D01*
X429890Y3560030D01*
X433989Y3562130D01*
X438090Y3562130D01*
X442089Y3560030D01*
X448290Y3556030D01*
X468690Y3535529D01*
X468690Y3564130D01*
X2346430Y7360382D02*
G01*
X2346430Y7317381D01*
X2346430Y7360382D02*
G01*
X2364830Y7360382D01*
X2371030Y7358281D01*
X2373029Y7356282D01*
X2375129Y7352181D01*
X2375129Y7346082D01*
X2373029Y7341981D01*
X2371030Y7339881D01*
X2364830Y7337882D01*
X2346430Y7337882D01*
X2400829Y7360382D02*
G01*
X2396729Y7358281D01*
X2392730Y7354281D01*
X2390630Y7350182D01*
X2388630Y7343982D01*
X2388630Y7333782D01*
X2390630Y7327682D01*
X2392730Y7323582D01*
X2396729Y7319481D01*
X2400829Y7317381D01*
X2409030Y7317381D01*
X2413130Y7319481D01*
X2417229Y7323582D01*
X2419229Y7327682D01*
X2421329Y7333782D01*
X2421329Y7343982D01*
X2419229Y7350182D01*
X2417229Y7354281D01*
X2413130Y7358281D01*
X2409030Y7360382D01*
X2400829Y7360382D01*
X2434830Y7360382D02*
G01*
X2445029Y7317381D01*
X2455230Y7360382D02*
G01*
X2445029Y7317381D01*
X2455230Y7360382D02*
G01*
X2465529Y7317381D01*
X2475730Y7360382D02*
G01*
X2465529Y7317381D01*
X2489229Y7360382D02*
G01*
X2489229Y7317381D01*
X2489229Y7360382D02*
G01*
X2515829Y7360382D01*
X2489229Y7339881D02*
G01*
X2505630Y7339881D01*
X2489229Y7317381D02*
G01*
X2515829Y7317381D01*
X2529330Y7360382D02*
G01*
X2529330Y7317381D01*
X2529330Y7360382D02*
G01*
X2547730Y7360382D01*
X2553829Y7358281D01*
X2555929Y7356282D01*
X2557929Y7352181D01*
X2557929Y7348081D01*
X2555929Y7343982D01*
X2553829Y7341981D01*
X2547730Y7339881D01*
X2529330Y7339881D01*
X2543630Y7339881D02*
G01*
X2557929Y7317381D01*
X2621329Y7354281D02*
G01*
X2621329Y7317381D01*
X2602929Y7335781D02*
G01*
X2639729Y7335781D01*
X2677830Y7360382D02*
G01*
X2657330Y7360382D01*
X2655330Y7341981D01*
X2657330Y7343982D01*
X2663530Y7346082D01*
X2669629Y7346082D01*
X2675730Y7343982D01*
X2679830Y7339881D01*
X2681930Y7333782D01*
X2681930Y7329681D01*
X2679830Y7323582D01*
X2675730Y7319481D01*
X2669629Y7317381D01*
X2663530Y7317381D01*
X2657330Y7319481D01*
X2655330Y7321482D01*
X2653230Y7325581D01*
X2695429Y7360382D02*
G01*
X2711729Y7317381D01*
X2728130Y7360382D02*
G01*
X2711729Y7317381D01*
X2518887Y6831253D02*
G01*
X2518887Y6863953D01*
X2520888Y6870154D01*
X2522987Y6872154D01*
X2527088Y6874254D01*
X2531188Y6874254D01*
X2535288Y6872154D01*
X2537287Y6870154D01*
X2539387Y6863953D01*
X2539387Y6859953D01*
X2505388Y6839454D02*
G01*
X2501288Y6837453D01*
X2495187Y6831253D01*
X2495187Y6874254D01*
D10*
X2458500Y7161900D02*
G01*
X2458500Y7203800D01*
X2479399Y7182900D02*
G01*
X2437500Y7182900D01*
X2463100Y7006599D02*
G01*
X2463100Y6964699D01*
D12*
X2504753Y6376111D02*
G01*
X2504753Y6343411D01*
X2502653Y6337212D01*
X2500653Y6335212D01*
X2496553Y6333211D01*
X2492452Y6333211D01*
X2488352Y6335212D01*
X2486252Y6337212D01*
X2484252Y6343411D01*
X2484252Y6347512D01*
X2520253Y6365911D02*
G01*
X2520253Y6367912D01*
X2522253Y6372012D01*
X2524353Y6374112D01*
X2528452Y6376111D01*
X2536652Y6376111D01*
X2540753Y6374112D01*
X2542753Y6372012D01*
X2544753Y6367912D01*
X2544753Y6363811D01*
X2542753Y6359712D01*
X2538653Y6353611D01*
X2518253Y6333211D01*
X2546853Y6333211D01*
X2229162Y6277687D02*
G01*
X2229162Y6244987D01*
X2227062Y6238787D01*
X2225063Y6236786D01*
X2220963Y6234787D01*
X2216863Y6234787D01*
X2212763Y6236786D01*
X2210663Y6238787D01*
X2208662Y6244987D01*
X2208662Y6249087D01*
X2246662Y6277687D02*
G01*
X2269162Y6277687D01*
X2256962Y6261287D01*
X2263063Y6261287D01*
X2267163Y6259286D01*
X2269162Y6257287D01*
X2271262Y6251087D01*
X2271262Y6246986D01*
X2269162Y6240886D01*
X2265163Y6236786D01*
X2258963Y6234787D01*
X2252862Y6234787D01*
X2246662Y6236786D01*
X2244663Y6238787D01*
X2242663Y6242887D01*
X1571418Y1532800D02*
G01*
X1555118Y1489900D01*
X1571418Y1532800D02*
G01*
X1587817Y1489900D01*
X1561217Y1504200D02*
G01*
X1581718Y1504200D01*
X1601318Y1532800D02*
G01*
X1601318Y1489900D01*
X1601318Y1532800D02*
G01*
X1619718Y1532800D01*
X1625817Y1530801D01*
X1627917Y1528701D01*
X1629917Y1524701D01*
X1629917Y1520601D01*
X1627917Y1516500D01*
X1625817Y1514400D01*
X1619718Y1512400D01*
X1601318Y1512400D02*
G01*
X1619718Y1512400D01*
X1625817Y1510300D01*
X1627917Y1508301D01*
X1629917Y1504200D01*
X1629917Y1498101D01*
X1627917Y1494000D01*
X1625817Y1491900D01*
X1619718Y1489900D01*
X1601318Y1489900D01*
D10*
X1545317Y899301D02*
G01*
X1581617Y803901D01*
X1618018Y899301D02*
G01*
X1581617Y803901D01*
X1648018Y899301D02*
G01*
X1648018Y803901D01*
X1678018Y899301D02*
G01*
X1678018Y803901D01*
X1678018Y899301D02*
G01*
X1709817Y899301D01*
X1723518Y894801D01*
X1732518Y885700D01*
X1737118Y876601D01*
X1741617Y863000D01*
X1741617Y840201D01*
X1737118Y826601D01*
X1732518Y817501D01*
X1723518Y808400D01*
X1709817Y803901D01*
X1678018Y803901D01*
X1776217Y876601D02*
G01*
X1776217Y881201D01*
X1780717Y890201D01*
X1785317Y894801D01*
X1794417Y899301D01*
X1812518Y899301D01*
X1821617Y894801D01*
X1826217Y890201D01*
X1830717Y881201D01*
X1830717Y872100D01*
X1826217Y863000D01*
X1817118Y849301D01*
X1771617Y803901D01*
X1835317Y803901D01*
X1888018Y899301D02*
G01*
X1874417Y894801D01*
X1869817Y885700D01*
X1869817Y876601D01*
X1874417Y867501D01*
X1883518Y863000D01*
X1901617Y858400D01*
X1915317Y853901D01*
X1924417Y844801D01*
X1928918Y835700D01*
X1928918Y822100D01*
X1924417Y813000D01*
X1919817Y808400D01*
X1906217Y803901D01*
X1888018Y803901D01*
X1874417Y808400D01*
X1869817Y813000D01*
X1865317Y822100D01*
X1865317Y835700D01*
X1869817Y844801D01*
X1878918Y853901D01*
X1892518Y858400D01*
X1910717Y863000D01*
X1919817Y867501D01*
X1924417Y876601D01*
X1924417Y885700D01*
X1919817Y894801D01*
X1906217Y899301D01*
X1888018Y899301D01*
X1958918Y844801D02*
G01*
X2040717Y844801D01*
X2098018Y899301D02*
G01*
X2084417Y894801D01*
X2075317Y881201D01*
X2070717Y858400D01*
X2070717Y844801D01*
X2075317Y822100D01*
X2084417Y808400D01*
X2098018Y803901D01*
X2107118Y803901D01*
X2120717Y808400D01*
X2129817Y822100D01*
X2134417Y844801D01*
X2134417Y858400D01*
X2129817Y881201D01*
X2120717Y894801D01*
X2107118Y899301D01*
X2098018Y899301D01*
X2218918Y899301D02*
G01*
X2173518Y899301D01*
X2168918Y858400D01*
X2173518Y863000D01*
X2187118Y867501D01*
X2200717Y867501D01*
X2214417Y863000D01*
X2223518Y853901D01*
X2228018Y840201D01*
X2228018Y831201D01*
X2223518Y817501D01*
X2214417Y808400D01*
X2200717Y803901D01*
X2187118Y803901D01*
X2173518Y808400D01*
X2168918Y813000D01*
X2164417Y822100D01*
D12*
X1585717Y5459609D02*
G01*
X1583717Y5463710D01*
X1579618Y5467809D01*
X1575518Y5469810D01*
X1567317Y5469810D01*
X1563217Y5467809D01*
X1559218Y5463710D01*
X1557118Y5459609D01*
X1555118Y5453510D01*
X1555118Y5443310D01*
X1557118Y5437109D01*
X1559218Y5433009D01*
X1563217Y5428910D01*
X1567317Y5426909D01*
X1575518Y5426909D01*
X1579618Y5428910D01*
X1583717Y5433009D01*
X1585717Y5437109D01*
X1599218Y5469810D02*
G01*
X1599218Y5426909D01*
X1599218Y5469810D02*
G01*
X1613617Y5469810D01*
X1619718Y5467809D01*
X1623818Y5463710D01*
X1625817Y5459609D01*
X1627917Y5453510D01*
X1627917Y5443310D01*
X1625817Y5437109D01*
X1623818Y5433009D01*
X1619718Y5428910D01*
X1613617Y5426909D01*
X1599218Y5426909D01*
D10*
X1545317Y4836309D02*
G01*
X1581617Y4740909D01*
X1618018Y4836309D02*
G01*
X1581617Y4740909D01*
X1648018Y4836309D02*
G01*
X1648018Y4740909D01*
X1678018Y4836309D02*
G01*
X1678018Y4740909D01*
X1678018Y4836309D02*
G01*
X1709817Y4836309D01*
X1723518Y4831810D01*
X1732518Y4822710D01*
X1737118Y4813609D01*
X1741617Y4800010D01*
X1741617Y4777210D01*
X1737118Y4763609D01*
X1732518Y4754510D01*
X1723518Y4745410D01*
X1709817Y4740909D01*
X1678018Y4740909D01*
X1776217Y4813609D02*
G01*
X1776217Y4818209D01*
X1780717Y4827210D01*
X1785317Y4831810D01*
X1794417Y4836309D01*
X1812518Y4836309D01*
X1821617Y4831810D01*
X1826217Y4827210D01*
X1830717Y4818209D01*
X1830717Y4809110D01*
X1826217Y4800010D01*
X1817118Y4786309D01*
X1771617Y4740909D01*
X1835317Y4740909D01*
X1888018Y4836309D02*
G01*
X1874417Y4831810D01*
X1869817Y4822710D01*
X1869817Y4813609D01*
X1874417Y4804510D01*
X1883518Y4800010D01*
X1901617Y4795410D01*
X1915317Y4790909D01*
X1924417Y4781810D01*
X1928918Y4772710D01*
X1928918Y4759110D01*
X1924417Y4750010D01*
X1919817Y4745410D01*
X1906217Y4740909D01*
X1888018Y4740909D01*
X1874417Y4745410D01*
X1869817Y4750010D01*
X1865317Y4759110D01*
X1865317Y4772710D01*
X1869817Y4781810D01*
X1878918Y4790909D01*
X1892518Y4795410D01*
X1910717Y4800010D01*
X1919817Y4804510D01*
X1924417Y4813609D01*
X1924417Y4822710D01*
X1919817Y4831810D01*
X1906217Y4836309D01*
X1888018Y4836309D01*
X1958918Y4781810D02*
G01*
X2040717Y4781810D01*
X2098018Y4836309D02*
G01*
X2084417Y4831810D01*
X2075317Y4818209D01*
X2070717Y4795410D01*
X2070717Y4781810D01*
X2075317Y4759110D01*
X2084417Y4745410D01*
X2098018Y4740909D01*
X2107118Y4740909D01*
X2120717Y4745410D01*
X2129817Y4759110D01*
X2134417Y4781810D01*
X2134417Y4795410D01*
X2129817Y4818209D01*
X2120717Y4831810D01*
X2107118Y4836309D01*
X2098018Y4836309D01*
X2218918Y4836309D02*
G01*
X2173518Y4836309D01*
X2168918Y4795410D01*
X2173518Y4800010D01*
X2187118Y4804510D01*
X2200717Y4804510D01*
X2214417Y4800010D01*
X2223518Y4790909D01*
X2228018Y4777210D01*
X2228018Y4768209D01*
X2223518Y4754510D01*
X2214417Y4745410D01*
X2200717Y4740909D01*
X2187118Y4740909D01*
X2173518Y4745410D01*
X2168918Y4750010D01*
X2164417Y4759110D01*
D12*
X1555119Y9406817D02*
G01*
X1555119Y9363917D01*
X1555119Y9406817D02*
G01*
X1581719Y9406817D01*
X1555119Y9386417D02*
G01*
X1571518Y9386417D01*
X1555119Y9363917D02*
G01*
X1581719Y9363917D01*
X1595218Y9406817D02*
G01*
X1595218Y9363917D01*
X1595218Y9406817D02*
G01*
X1621818Y9406817D01*
X1595218Y9386417D02*
G01*
X1611619Y9386417D01*
D10*
X1545318Y8773317D02*
G01*
X1581619Y8677917D01*
X1618019Y8773317D02*
G01*
X1581619Y8677917D01*
X1648019Y8773317D02*
G01*
X1648019Y8677917D01*
X1678019Y8773317D02*
G01*
X1678019Y8677917D01*
X1678019Y8773317D02*
G01*
X1709818Y8773317D01*
X1723518Y8768817D01*
X1732519Y8759717D01*
X1737119Y8750617D01*
X1741619Y8737017D01*
X1741619Y8714216D01*
X1737119Y8700617D01*
X1732519Y8691516D01*
X1723518Y8682417D01*
X1709818Y8677917D01*
X1678019Y8677917D01*
X1776219Y8750617D02*
G01*
X1776219Y8755216D01*
X1780718Y8764216D01*
X1785318Y8768817D01*
X1794418Y8773317D01*
X1812519Y8773317D01*
X1821619Y8768817D01*
X1826219Y8764216D01*
X1830718Y8755216D01*
X1830718Y8746117D01*
X1826219Y8737017D01*
X1817119Y8723317D01*
X1771619Y8677917D01*
X1835318Y8677917D01*
X1888019Y8773317D02*
G01*
X1874418Y8768817D01*
X1869818Y8759717D01*
X1869818Y8750617D01*
X1874418Y8741516D01*
X1883518Y8737017D01*
X1901619Y8732417D01*
X1915318Y8727917D01*
X1924418Y8718817D01*
X1928918Y8709717D01*
X1928918Y8696117D01*
X1924418Y8687017D01*
X1919818Y8682417D01*
X1906219Y8677917D01*
X1888019Y8677917D01*
X1874418Y8682417D01*
X1869818Y8687017D01*
X1865318Y8696117D01*
X1865318Y8709717D01*
X1869818Y8718817D01*
X1878918Y8727917D01*
X1892519Y8732417D01*
X1910718Y8737017D01*
X1919818Y8741516D01*
X1924418Y8750617D01*
X1924418Y8759717D01*
X1919818Y8768817D01*
X1906219Y8773317D01*
X1888019Y8773317D01*
X1958918Y8718817D02*
G01*
X2040718Y8718817D01*
X2098019Y8773317D02*
G01*
X2084418Y8768817D01*
X2075318Y8755216D01*
X2070718Y8732417D01*
X2070718Y8718817D01*
X2075318Y8696117D01*
X2084418Y8682417D01*
X2098019Y8677917D01*
X2107119Y8677917D01*
X2120718Y8682417D01*
X2129818Y8696117D01*
X2134418Y8718817D01*
X2134418Y8732417D01*
X2129818Y8755216D01*
X2120718Y8768817D01*
X2107119Y8773317D01*
X2098019Y8773317D01*
X2218918Y8773317D02*
G01*
X2173518Y8773317D01*
X2168918Y8732417D01*
X2173518Y8737017D01*
X2187119Y8741516D01*
X2200718Y8741516D01*
X2214418Y8737017D01*
X2223518Y8727917D01*
X2228019Y8714216D01*
X2228019Y8705216D01*
X2223518Y8691516D01*
X2214418Y8682417D01*
X2200718Y8677917D01*
X2187119Y8677917D01*
X2173518Y8682417D01*
X2168918Y8687017D01*
X2164418Y8696117D01*
D12*
X507905Y8009938D02*
G01*
X507905Y7967037D01*
X523404Y7999738D02*
G01*
X523404Y8001837D01*
X525504Y8005938D01*
X527505Y8007937D01*
X531604Y8009938D01*
X539805Y8009938D01*
X543904Y8007937D01*
X545904Y8005938D01*
X548004Y8001837D01*
X548004Y7997737D01*
X545904Y7993638D01*
X541804Y7987438D01*
X521404Y7967037D01*
X550005Y7967037D01*
X594205Y7999738D02*
G01*
X592105Y8003838D01*
X588105Y8007937D01*
X584005Y8009938D01*
X575805Y8009938D01*
X571705Y8007937D01*
X567604Y8003838D01*
X565605Y7999738D01*
X563505Y7993638D01*
X563505Y7983438D01*
X565605Y7977238D01*
X567604Y7973137D01*
X571705Y7969038D01*
X575805Y7967037D01*
X584005Y7967037D01*
X588105Y7969038D01*
X592105Y7973137D01*
X594205Y7977238D01*
X607705Y7952737D02*
G01*
X644504Y7952737D01*
X658004Y8001837D02*
G01*
X662105Y8003838D01*
X668204Y8009938D01*
X668204Y7967037D01*
X2484291Y8010001D02*
G01*
X2484291Y7967002D01*
X2499791Y7999802D02*
G01*
X2499791Y8001801D01*
X2501891Y8005902D01*
X2503891Y8007901D01*
X2507992Y8010001D01*
X2516192Y8010001D01*
X2520291Y8007901D01*
X2522291Y8005902D01*
X2524391Y8001801D01*
X2524391Y7997701D01*
X2522291Y7993602D01*
X2518191Y7987501D01*
X2497791Y7967002D01*
X2526391Y7967002D01*
X2570591Y7999802D02*
G01*
X2568491Y8003802D01*
X2564391Y8007901D01*
X2560392Y8010001D01*
X2552191Y8010001D01*
X2548091Y8007901D01*
X2543991Y8003802D01*
X2541891Y7999802D01*
X2539892Y7993602D01*
X2539892Y7983402D01*
X2541891Y7977302D01*
X2543991Y7973202D01*
X2548091Y7969101D01*
X2552191Y7967002D01*
X2560392Y7967002D01*
X2564391Y7969101D01*
X2568491Y7973202D01*
X2570591Y7977302D01*
X2584092Y7952701D02*
G01*
X2620892Y7952701D01*
X2636391Y7999802D02*
G01*
X2636391Y8001801D01*
X2638491Y8005902D01*
X2640492Y8007901D01*
X2644592Y8010001D01*
X2652791Y8010001D01*
X2656891Y8007901D01*
X2658891Y8005902D01*
X2660991Y8001801D01*
X2660991Y7997701D01*
X2658891Y7993602D01*
X2654892Y7987501D01*
X2634391Y7967002D01*
X2662992Y7967002D01*
X992130Y6017840D02*
G01*
X992130Y5974940D01*
X992130Y6017840D02*
G01*
X1018730Y6017840D01*
X992130Y5997440D02*
G01*
X1008531Y5997440D01*
X992130Y5974940D02*
G01*
X1018730Y5974940D01*
X1060830Y6011741D02*
G01*
X1056730Y6015841D01*
X1050631Y6017840D01*
X1042430Y6017840D01*
X1036331Y6015841D01*
X1032231Y6011741D01*
X1032231Y6007640D01*
X1034230Y6003541D01*
X1036331Y6001441D01*
X1040430Y5999441D01*
X1052631Y5995340D01*
X1056730Y5993341D01*
X1058831Y5991241D01*
X1060830Y5987141D01*
X1060830Y5981041D01*
X1056730Y5976941D01*
X1050631Y5974940D01*
X1042430Y5974940D01*
X1036331Y5976941D01*
X1032231Y5981041D01*
X1074331Y6017840D02*
G01*
X1074331Y5974940D01*
X1074331Y6017840D02*
G01*
X1092731Y6017840D01*
X1098931Y6015841D01*
X1100931Y6013741D01*
X1103031Y6009641D01*
X1103031Y6003541D01*
X1100931Y5999441D01*
X1098931Y5997440D01*
X1092731Y5995340D01*
X1074331Y5995340D01*
X1126730Y6017840D02*
G01*
X1120631Y6015841D01*
X1118531Y6011741D01*
X1118531Y6007640D01*
X1120631Y6003541D01*
X1124630Y6001441D01*
X1132830Y5999441D01*
X1139031Y5997440D01*
X1143131Y5993341D01*
X1145131Y5989241D01*
X1145131Y5983040D01*
X1143131Y5978941D01*
X1141031Y5976941D01*
X1134930Y5974940D01*
X1126730Y5974940D01*
X1120631Y5976941D01*
X1118531Y5978941D01*
X1116531Y5983040D01*
X1116531Y5989241D01*
X1118531Y5993341D01*
X1122631Y5997440D01*
X1128730Y5999441D01*
X1136931Y6001441D01*
X1141031Y6003541D01*
X1143131Y6007640D01*
X1143131Y6011741D01*
X1141031Y6015841D01*
X1134930Y6017840D01*
X1126730Y6017840D01*
X1160631Y6007640D02*
G01*
X1160631Y6009641D01*
X1162731Y6013741D01*
X1164731Y6015841D01*
X1168831Y6017840D01*
X1177030Y6017840D01*
X1181130Y6015841D01*
X1183131Y6013741D01*
X1185231Y6009641D01*
X1185231Y6005540D01*
X1183131Y6001441D01*
X1179130Y5995340D01*
X1158630Y5974940D01*
X1187231Y5974940D01*
X1225330Y6011741D02*
G01*
X1223230Y6015841D01*
X1217130Y6017840D01*
X1213031Y6017840D01*
X1206931Y6015841D01*
X1202830Y6009641D01*
X1200730Y5999441D01*
X1200730Y5989241D01*
X1202830Y5981041D01*
X1206931Y5976941D01*
X1213031Y5974940D01*
X1215131Y5974940D01*
X1221230Y5976941D01*
X1225330Y5981041D01*
X1227331Y5987141D01*
X1227331Y5989241D01*
X1225330Y5995340D01*
X1221230Y5999441D01*
X1215131Y6001441D01*
X1213031Y6001441D01*
X1206931Y5999441D01*
X1202830Y5995340D01*
X1200730Y5989241D01*
X1265430Y6011741D02*
G01*
X1263330Y6015841D01*
X1257231Y6017840D01*
X1253131Y6017840D01*
X1247030Y6015841D01*
X1242930Y6009641D01*
X1240830Y5999441D01*
X1240830Y5989241D01*
X1242930Y5981041D01*
X1247030Y5976941D01*
X1253131Y5974940D01*
X1255131Y5974940D01*
X1261331Y5976941D01*
X1265430Y5981041D01*
X1267430Y5987141D01*
X1267430Y5989241D01*
X1265430Y5995340D01*
X1261331Y5999441D01*
X1255131Y6001441D01*
X1253131Y6001441D01*
X1247030Y5999441D01*
X1242930Y5995340D01*
X1240830Y5989241D01*
X1280931Y6017840D02*
G01*
X1280931Y5974940D01*
X1280931Y6017840D02*
G01*
X1297331Y5974940D01*
X1313630Y6017840D02*
G01*
X1297331Y5974940D01*
X1313630Y6017840D02*
G01*
X1313630Y5974940D01*
X1327130Y6017840D02*
G01*
X1327130Y5974940D01*
X1340631Y6017840D02*
G01*
X1340631Y5974940D01*
X1340631Y6017840D02*
G01*
X1369331Y5974940D01*
X1369331Y6017840D02*
G01*
X1369331Y5974940D01*
X1382830Y6017840D02*
G01*
X1382830Y5974940D01*
X1848932Y6023622D02*
G01*
X1851031Y6019522D01*
X1857132Y6013422D01*
X1814232Y6013422D01*
D13*
X1542232Y6373622D02*
G01*
X1494431Y6373622D01*
X1542232Y6373622D02*
G01*
X1542232Y6353121D01*
X1539931Y6346322D01*
X1537632Y6344122D01*
X1533131Y6341822D01*
X1528531Y6341822D01*
X1524031Y6344122D01*
X1521732Y6346322D01*
X1519431Y6353121D01*
X1519431Y6373622D01*
X1519431Y6357721D02*
G01*
X1494431Y6341822D01*
X1535331Y6295021D02*
G01*
X1539931Y6299522D01*
X1542232Y6306322D01*
X1542232Y6315421D01*
X1539931Y6322222D01*
X1535331Y6326822D01*
X1530832Y6326822D01*
X1526232Y6324522D01*
X1524031Y6322222D01*
X1521732Y6317721D01*
X1517232Y6304122D01*
X1514931Y6299522D01*
X1512632Y6297222D01*
X1508131Y6295021D01*
X1501232Y6295021D01*
X1496732Y6299522D01*
X1494431Y6306322D01*
X1494431Y6315421D01*
X1496732Y6322222D01*
X1501232Y6326822D01*
X1542232Y6264122D02*
G01*
X1494431Y6264122D01*
X1542232Y6280021D02*
G01*
X1542232Y6248121D01*
X1342232Y6373622D02*
G01*
X1294431Y6373622D01*
X1342232Y6373622D02*
G01*
X1342232Y6357721D01*
X1339931Y6350922D01*
X1335331Y6346322D01*
X1330832Y6344122D01*
X1324031Y6341822D01*
X1312632Y6341822D01*
X1305832Y6344122D01*
X1301232Y6346322D01*
X1296732Y6350922D01*
X1294431Y6357721D01*
X1294431Y6373622D01*
X1342232Y6313121D02*
G01*
X1339931Y6320021D01*
X1333131Y6324522D01*
X1321732Y6326822D01*
X1314931Y6326822D01*
X1303531Y6324522D01*
X1296732Y6320021D01*
X1294431Y6313121D01*
X1294431Y6308622D01*
X1296732Y6301822D01*
X1303531Y6297222D01*
X1314931Y6295021D01*
X1321732Y6295021D01*
X1333131Y6297222D01*
X1339931Y6301822D01*
X1342232Y6308622D01*
X1342232Y6313121D01*
X1242232Y6373622D02*
G01*
X1194431Y6373622D01*
X1242232Y6373622D02*
G01*
X1242232Y6357721D01*
X1239931Y6350922D01*
X1235331Y6346322D01*
X1230832Y6344122D01*
X1224031Y6341822D01*
X1212632Y6341822D01*
X1205832Y6344122D01*
X1201232Y6346322D01*
X1196732Y6350922D01*
X1194431Y6357721D01*
X1194431Y6373622D01*
X1242232Y6299522D02*
G01*
X1242232Y6322222D01*
X1221732Y6324522D01*
X1224031Y6322222D01*
X1226232Y6315421D01*
X1226232Y6308622D01*
X1224031Y6301822D01*
X1219431Y6297222D01*
X1212632Y6295021D01*
X1208131Y6295021D01*
X1201232Y6297222D01*
X1196732Y6301822D01*
X1194431Y6308622D01*
X1194431Y6315421D01*
X1196732Y6322222D01*
X1199031Y6324522D01*
X1203531Y6326822D01*
X1141050Y6374016D02*
G01*
X1093251Y6374016D01*
X1141050Y6374016D02*
G01*
X1141050Y6358116D01*
X1138751Y6351316D01*
X1134151Y6346716D01*
X1129651Y6344515D01*
X1122851Y6342215D01*
X1111450Y6342215D01*
X1104651Y6344515D01*
X1100051Y6346716D01*
X1095550Y6351316D01*
X1093251Y6358116D01*
X1093251Y6374016D01*
X1134151Y6299915D02*
G01*
X1138751Y6302215D01*
X1141050Y6309016D01*
X1141050Y6313516D01*
X1138751Y6320416D01*
X1131950Y6324915D01*
X1120550Y6327215D01*
X1109151Y6327215D01*
X1100051Y6324915D01*
X1095550Y6320416D01*
X1093251Y6313516D01*
X1093251Y6311316D01*
X1095550Y6304515D01*
X1100051Y6299915D01*
X1106950Y6297615D01*
X1109151Y6297615D01*
X1116050Y6299915D01*
X1120550Y6304515D01*
X1122851Y6311316D01*
X1122851Y6313516D01*
X1120550Y6320416D01*
X1116050Y6324915D01*
X1109151Y6327215D01*
X1042232Y6373622D02*
G01*
X994431Y6373622D01*
X1042232Y6373622D02*
G01*
X1042232Y6357721D01*
X1039931Y6350922D01*
X1035331Y6346322D01*
X1030832Y6344122D01*
X1024031Y6341822D01*
X1012632Y6341822D01*
X1005832Y6344122D01*
X1001232Y6346322D01*
X996732Y6350922D01*
X994431Y6357721D01*
X994431Y6373622D01*
X1042232Y6295021D02*
G01*
X994431Y6317721D01*
X1042232Y6326822D02*
G01*
X1042232Y6295021D01*
X942232Y6373622D02*
G01*
X894431Y6373622D01*
X942232Y6373622D02*
G01*
X942232Y6357721D01*
X939931Y6350922D01*
X935331Y6346322D01*
X930832Y6344122D01*
X924031Y6341822D01*
X912632Y6341822D01*
X905832Y6344122D01*
X901232Y6346322D01*
X896732Y6350922D01*
X894431Y6357721D01*
X894431Y6373622D01*
X942232Y6315421D02*
G01*
X939931Y6322222D01*
X935331Y6324522D01*
X930832Y6324522D01*
X926232Y6322222D01*
X924031Y6317721D01*
X921732Y6308622D01*
X919431Y6301822D01*
X914931Y6297222D01*
X910331Y6295021D01*
X903531Y6295021D01*
X899031Y6297222D01*
X896732Y6299522D01*
X894431Y6306322D01*
X894431Y6315421D01*
X896732Y6322222D01*
X899031Y6324522D01*
X903531Y6326822D01*
X910331Y6326822D01*
X914931Y6324522D01*
X919431Y6320021D01*
X921732Y6313121D01*
X924031Y6304122D01*
X926232Y6299522D01*
X930832Y6297222D01*
X935331Y6297222D01*
X939931Y6299522D01*
X942232Y6306322D01*
X942232Y6315421D01*
X842232Y6369122D02*
G01*
X842232Y6344122D01*
X824031Y6357721D01*
X824031Y6350922D01*
X821732Y6346322D01*
X819431Y6344122D01*
X812632Y6341822D01*
X808131Y6341822D01*
X801232Y6344122D01*
X796732Y6348622D01*
X794431Y6355421D01*
X794431Y6362222D01*
X796732Y6369122D01*
X799031Y6371322D01*
X803531Y6373622D01*
X842232Y6326822D02*
G01*
X794431Y6308622D01*
X842232Y6290421D02*
G01*
X794431Y6308622D01*
X842232Y6270922D02*
G01*
X842232Y6245922D01*
X824031Y6259522D01*
X824031Y6252721D01*
X821732Y6248121D01*
X819431Y6245922D01*
X812632Y6243622D01*
X808131Y6243622D01*
X801232Y6245922D01*
X796732Y6250421D01*
X794431Y6257222D01*
X794431Y6264122D01*
X796732Y6270922D01*
X799031Y6273121D01*
X803531Y6275421D01*
X1442232Y6355421D02*
G01*
X1394431Y6373622D01*
X1442232Y6355421D02*
G01*
X1394431Y6337222D01*
X1410331Y6366822D02*
G01*
X1410331Y6344122D01*
X1442232Y6308622D02*
G01*
X1439931Y6315421D01*
X1433131Y6320021D01*
X1421732Y6322222D01*
X1414931Y6322222D01*
X1403531Y6320021D01*
X1396732Y6315421D01*
X1394431Y6308622D01*
X1394431Y6304122D01*
X1396732Y6297222D01*
X1403531Y6292721D01*
X1414931Y6290421D01*
X1421732Y6290421D01*
X1433131Y6292721D01*
X1439931Y6297222D01*
X1442232Y6304122D01*
X1442232Y6308622D01*
X842232Y5823622D02*
G01*
X794431Y5805421D01*
X842232Y5787222D02*
G01*
X794431Y5805421D01*
X830832Y5738121D02*
G01*
X835331Y5740421D01*
X839931Y5745021D01*
X842232Y5749522D01*
X842232Y5758622D01*
X839931Y5763121D01*
X835331Y5767721D01*
X830832Y5770021D01*
X824031Y5772222D01*
X812632Y5772222D01*
X805832Y5770021D01*
X801232Y5767721D01*
X796732Y5763121D01*
X794431Y5758622D01*
X794431Y5749522D01*
X796732Y5745021D01*
X801232Y5740421D01*
X805832Y5738121D01*
X830832Y5689122D02*
G01*
X835331Y5691322D01*
X839931Y5695922D01*
X842232Y5700421D01*
X842232Y5709522D01*
X839931Y5714122D01*
X835331Y5718622D01*
X830832Y5720922D01*
X824031Y5723121D01*
X812632Y5723121D01*
X805832Y5720922D01*
X801232Y5718622D01*
X796732Y5714122D01*
X794431Y5709522D01*
X794431Y5700421D01*
X796732Y5695922D01*
X801232Y5691322D01*
X805832Y5689122D01*
X930832Y5789522D02*
G01*
X935331Y5791822D01*
X939931Y5796322D01*
X942232Y5800922D01*
X942232Y5810021D01*
X939931Y5814522D01*
X935331Y5819122D01*
X930832Y5821322D01*
X924031Y5823622D01*
X912632Y5823622D01*
X905832Y5821322D01*
X901232Y5819122D01*
X896732Y5814522D01*
X894431Y5810021D01*
X894431Y5800922D01*
X896732Y5796322D01*
X901232Y5791822D01*
X905832Y5789522D01*
X912632Y5789522D01*
X912632Y5800922D02*
G01*
X912632Y5789522D01*
X942232Y5774522D02*
G01*
X894431Y5774522D01*
X942232Y5774522D02*
G01*
X894431Y5742721D01*
X942232Y5742721D02*
G01*
X894431Y5742721D01*
X942232Y5727721D02*
G01*
X894431Y5727721D01*
X942232Y5727721D02*
G01*
X942232Y5711822D01*
X939931Y5705021D01*
X935331Y5700421D01*
X930832Y5698121D01*
X924031Y5695922D01*
X912632Y5695922D01*
X905832Y5698121D01*
X901232Y5700421D01*
X896732Y5705021D01*
X894431Y5711822D01*
X894431Y5727721D01*
X1042232Y5773622D02*
G01*
X994431Y5773622D01*
X1042232Y5773622D02*
G01*
X1042232Y5757721D01*
X1039931Y5750922D01*
X1035331Y5746322D01*
X1030832Y5744122D01*
X1024031Y5741822D01*
X1012632Y5741822D01*
X1005832Y5744122D01*
X1001232Y5746322D01*
X996732Y5750922D01*
X994431Y5757721D01*
X994431Y5773622D01*
X1042232Y5704122D02*
G01*
X1010331Y5726822D01*
X1010331Y5692721D01*
X1042232Y5704122D02*
G01*
X994431Y5704122D01*
X1142232Y5773622D02*
G01*
X1094431Y5773622D01*
X1142232Y5773622D02*
G01*
X1142232Y5757721D01*
X1139931Y5750922D01*
X1135331Y5746322D01*
X1130832Y5744122D01*
X1124031Y5741822D01*
X1112632Y5741822D01*
X1105832Y5744122D01*
X1101232Y5746322D01*
X1096732Y5750922D01*
X1094431Y5757721D01*
X1094431Y5773622D01*
X1142232Y5722222D02*
G01*
X1142232Y5697222D01*
X1124031Y5710922D01*
X1124031Y5704122D01*
X1121732Y5699522D01*
X1119431Y5697222D01*
X1112632Y5695021D01*
X1108131Y5695021D01*
X1101232Y5697222D01*
X1096732Y5701822D01*
X1094431Y5708622D01*
X1094431Y5715421D01*
X1096732Y5722222D01*
X1099031Y5724522D01*
X1103531Y5726822D01*
X1242232Y5773622D02*
G01*
X1194431Y5773622D01*
X1242232Y5773622D02*
G01*
X1242232Y5757721D01*
X1239931Y5750922D01*
X1235331Y5746322D01*
X1230832Y5744122D01*
X1224031Y5741822D01*
X1212632Y5741822D01*
X1205832Y5744122D01*
X1201232Y5746322D01*
X1196732Y5750922D01*
X1194431Y5757721D01*
X1194431Y5773622D01*
X1230832Y5724522D02*
G01*
X1233131Y5724522D01*
X1237632Y5722222D01*
X1239931Y5720021D01*
X1242232Y5715421D01*
X1242232Y5706322D01*
X1239931Y5701822D01*
X1237632Y5699522D01*
X1233131Y5697222D01*
X1228531Y5697222D01*
X1224031Y5699522D01*
X1217232Y5704122D01*
X1194431Y5726822D01*
X1194431Y5695021D01*
X1342232Y5773622D02*
G01*
X1294431Y5773622D01*
X1342232Y5773622D02*
G01*
X1342232Y5757721D01*
X1339931Y5750922D01*
X1335331Y5746322D01*
X1330832Y5744122D01*
X1324031Y5741822D01*
X1312632Y5741822D01*
X1305832Y5744122D01*
X1301232Y5746322D01*
X1296732Y5750922D01*
X1294431Y5757721D01*
X1294431Y5773622D01*
X1333131Y5726822D02*
G01*
X1335331Y5722222D01*
X1342232Y5715421D01*
X1294431Y5715421D01*
X1442232Y5773622D02*
G01*
X1394431Y5773622D01*
X1442232Y5773622D02*
G01*
X1442232Y5753121D01*
X1439931Y5746322D01*
X1437632Y5744122D01*
X1433131Y5741822D01*
X1428531Y5741822D01*
X1424031Y5744122D01*
X1421732Y5746322D01*
X1419431Y5753121D01*
X1419431Y5773622D01*
X1419431Y5757721D02*
G01*
X1394431Y5741822D01*
X1442232Y5726822D02*
G01*
X1394431Y5695021D01*
X1442232Y5695021D02*
G01*
X1394431Y5726822D01*
X1542232Y5757721D02*
G01*
X1494431Y5757721D01*
X1542232Y5773622D02*
G01*
X1542232Y5741822D01*
X1542232Y5726822D02*
G01*
X1494431Y5695021D01*
X1542232Y5695021D02*
G01*
X1494431Y5726822D01*
X692231Y5823622D02*
G01*
X644432Y5823622D01*
X692231Y5823622D02*
G01*
X692231Y5807721D01*
X689931Y5800922D01*
X685331Y5796322D01*
X680832Y5794122D01*
X674032Y5791822D01*
X662631Y5791822D01*
X655832Y5794122D01*
X651232Y5796322D01*
X646732Y5800922D01*
X644432Y5807721D01*
X644432Y5823622D01*
X683132Y5776822D02*
G01*
X685331Y5772222D01*
X692231Y5765421D01*
X644432Y5765421D01*
X676232Y5715421D02*
G01*
X644432Y5715421D01*
X667231Y5715421D02*
G01*
X674032Y5708622D01*
X676232Y5704122D01*
X676232Y5697222D01*
X674032Y5692721D01*
X667231Y5690421D01*
X644432Y5690421D01*
X667231Y5690421D02*
G01*
X674032Y5683622D01*
X676232Y5679122D01*
X676232Y5672222D01*
X674032Y5667721D01*
X667231Y5665421D01*
X644432Y5665421D01*
X692231Y5650421D02*
G01*
X689931Y5648121D01*
X692231Y5645922D01*
X694432Y5648121D01*
X692231Y5650421D01*
X676232Y5648121D02*
G01*
X644432Y5648121D01*
X676232Y5630922D02*
G01*
X644432Y5630922D01*
X667231Y5630922D02*
G01*
X674032Y5624122D01*
X676232Y5619522D01*
X676232Y5612721D01*
X674032Y5608121D01*
X667231Y5605922D01*
X644432Y5605922D01*
X692231Y5590922D02*
G01*
X689931Y5588622D01*
X692231Y5586322D01*
X694432Y5588622D01*
X692231Y5590922D01*
X676232Y5588622D02*
G01*
X644432Y5588622D01*
D14*
X615032Y6448622D02*
G01*
X584432Y6448622D01*
X615032Y6448622D02*
G01*
X615032Y6435522D01*
X613532Y6431122D01*
X612132Y6429722D01*
X609232Y6428222D01*
X606332Y6428222D01*
X603431Y6429722D01*
X601932Y6431122D01*
X600432Y6435522D01*
X600432Y6448622D01*
X600432Y6438422D02*
G01*
X584432Y6428222D01*
X615032Y6418622D02*
G01*
X584432Y6418622D01*
X615032Y6418622D02*
G01*
X615032Y6399722D01*
X600432Y6418622D02*
G01*
X600432Y6407022D01*
X584432Y6418622D02*
G01*
X584432Y6399722D01*
X610632Y6369821D02*
G01*
X613532Y6372721D01*
X615032Y6377022D01*
X615032Y6382921D01*
X613532Y6387222D01*
X610632Y6390122D01*
X607732Y6390122D01*
X604832Y6388721D01*
X603431Y6387222D01*
X601932Y6384322D01*
X599032Y6375621D01*
X597532Y6372721D01*
X596131Y6371221D01*
X593231Y6369821D01*
X588832Y6369821D01*
X585931Y6372721D01*
X584432Y6377022D01*
X584432Y6382921D01*
X585931Y6387222D01*
X588832Y6390122D01*
X615032Y6360221D02*
G01*
X584432Y6360221D01*
X615032Y6360221D02*
G01*
X615032Y6341322D01*
X600432Y6360221D02*
G01*
X600432Y6348521D01*
X584432Y6360221D02*
G01*
X584432Y6341322D01*
X615032Y6321522D02*
G01*
X584432Y6321522D01*
X615032Y6331722D02*
G01*
X615032Y6311322D01*
D12*
X2698939Y2559050D02*
G01*
X2656039Y2559050D01*
X2688738Y2543551D02*
G01*
X2690739Y2543551D01*
X2694839Y2541451D01*
X2696939Y2539450D01*
X2698939Y2535351D01*
X2698939Y2527150D01*
X2696939Y2523051D01*
X2694839Y2521051D01*
X2690739Y2518951D01*
X2686638Y2518951D01*
X2682538Y2521051D01*
X2676439Y2525050D01*
X2656039Y2545551D01*
X2656039Y2516950D01*
X2688738Y2472750D02*
G01*
X2692839Y2474751D01*
X2696939Y2478850D01*
X2698939Y2482950D01*
X2698939Y2491151D01*
X2696939Y2495250D01*
X2692839Y2499351D01*
X2688738Y2501350D01*
X2682538Y2503451D01*
X2672339Y2503451D01*
X2666238Y2501350D01*
X2662138Y2499351D01*
X2658038Y2495250D01*
X2656039Y2491151D01*
X2656039Y2482950D01*
X2658038Y2478850D01*
X2662138Y2474751D01*
X2666238Y2472750D01*
X2641638Y2459250D02*
G01*
X2641638Y2422451D01*
X2698939Y2392550D02*
G01*
X2656039Y2408951D01*
X2698939Y2392550D02*
G01*
X2656039Y2376151D01*
X2670339Y2402750D02*
G01*
X2670339Y2382350D01*
X2698939Y2362651D02*
G01*
X2656039Y2362651D01*
X2698939Y2362651D02*
G01*
X2698939Y2348350D01*
X2696939Y2342251D01*
X2692839Y2338150D01*
X2688738Y2336051D01*
X2682538Y2334050D01*
X2672339Y2334050D01*
X2666238Y2336051D01*
X2662138Y2338150D01*
X2658038Y2342251D01*
X2656039Y2348350D01*
X2656039Y2362651D01*
X2698939Y2320551D02*
G01*
X2656039Y2320551D01*
X2698939Y2320551D02*
G01*
X2698939Y2306251D01*
X2696939Y2300050D01*
X2692839Y2296051D01*
X2688738Y2293951D01*
X2682538Y2291950D01*
X2672339Y2291950D01*
X2666238Y2293951D01*
X2662138Y2296051D01*
X2658038Y2300050D01*
X2656039Y2306251D01*
X2656039Y2320551D01*
X2698939Y2278451D02*
G01*
X2656039Y2278451D01*
X2698939Y2278451D02*
G01*
X2698939Y2260050D01*
X2696939Y2253850D01*
X2694839Y2251851D01*
X2690739Y2249751D01*
X2686638Y2249751D01*
X2682538Y2251851D01*
X2680538Y2253850D01*
X2678539Y2260050D01*
X2678539Y2278451D01*
X2678539Y2264050D02*
G01*
X2656039Y2249751D01*
X2698939Y2236251D02*
G01*
X2656039Y2236251D01*
X2698939Y2236251D02*
G01*
X2698939Y2209650D01*
X2678539Y2236251D02*
G01*
X2678539Y2219951D01*
X2656039Y2236251D02*
G01*
X2656039Y2209650D01*
X2692839Y2167550D02*
G01*
X2696939Y2171651D01*
X2698939Y2177750D01*
X2698939Y2185951D01*
X2696939Y2192051D01*
X2692839Y2196151D01*
X2688738Y2196151D01*
X2684638Y2194151D01*
X2682538Y2192051D01*
X2680538Y2188051D01*
X2676439Y2175751D01*
X2674439Y2171651D01*
X2672339Y2169551D01*
X2668239Y2167550D01*
X2662138Y2167550D01*
X2658038Y2171651D01*
X2656039Y2177750D01*
X2656039Y2185951D01*
X2658038Y2192051D01*
X2662138Y2196151D01*
X2692839Y2125450D02*
G01*
X2696939Y2129551D01*
X2698939Y2135650D01*
X2698939Y2143850D01*
X2696939Y2149951D01*
X2692839Y2154050D01*
X2688738Y2154050D01*
X2684638Y2152051D01*
X2682538Y2149951D01*
X2680538Y2145850D01*
X2676439Y2133551D01*
X2674439Y2129551D01*
X2672339Y2127451D01*
X2668239Y2125450D01*
X2662138Y2125450D01*
X2658038Y2129551D01*
X2656039Y2135650D01*
X2656039Y2143850D01*
X2658038Y2149951D01*
X2662138Y2154050D01*
D15*
X2348945Y2479783D02*
G01*
X2349844Y2477984D01*
X2352444Y2475284D01*
X2333644Y2475284D01*
X2348445Y2379384D02*
G01*
X2349345Y2379384D01*
X2351045Y2378483D01*
X2351944Y2377584D01*
X2352844Y2375783D01*
X2352844Y2372184D01*
X2351944Y2370484D01*
X2351045Y2369584D01*
X2349345Y2368683D01*
X2347545Y2368683D01*
X2345744Y2369584D01*
X2343045Y2371383D01*
X2334044Y2380284D01*
X2334044Y2367784D01*
X2352844Y2281684D02*
G01*
X2352844Y2271884D01*
X2345744Y2277184D01*
X2345744Y2274584D01*
X2344844Y2272784D01*
X2343945Y2271884D01*
X2341244Y2270983D01*
X2339444Y2270983D01*
X2336745Y2271884D01*
X2334944Y2273683D01*
X2334044Y2276284D01*
X2334044Y2278984D01*
X2334944Y2281684D01*
X2335844Y2282584D01*
X2337645Y2283483D01*
X2544745Y2494184D02*
G01*
X2543244Y2497084D01*
X2540444Y2499884D01*
X2537545Y2501383D01*
X2533244Y2502784D01*
X2526144Y2502784D01*
X2521845Y2501383D01*
X2518945Y2499884D01*
X2516045Y2497084D01*
X2514645Y2494184D01*
X2514645Y2488483D01*
X2516045Y2485583D01*
X2518945Y2482784D01*
X2521845Y2481284D01*
X2526144Y2479884D01*
X2533244Y2479884D01*
X2537545Y2481284D01*
X2540444Y2482784D01*
X2543244Y2485583D01*
X2544745Y2488483D01*
X2544745Y2494184D01*
X2544745Y2470383D02*
G01*
X2514645Y2470383D01*
X2544745Y2470383D02*
G01*
X2514645Y2450383D01*
X2544745Y2450383D02*
G01*
X2514645Y2450383D01*
X2352044Y2177384D02*
G01*
X2339544Y2186484D01*
X2339544Y2172883D01*
X2352044Y2177384D02*
G01*
X2333244Y2177384D01*
D12*
X1452757Y2185562D02*
G01*
X1469156Y2142662D01*
X1485456Y2185562D02*
G01*
X1469156Y2142662D01*
X1498957Y2185562D02*
G01*
X1498957Y2142662D01*
X1512457Y2185562D02*
G01*
X1512457Y2142662D01*
X1512457Y2185562D02*
G01*
X1526756Y2185562D01*
X1532956Y2183562D01*
X1537057Y2179461D01*
X1539057Y2175362D01*
X1541157Y2169162D01*
X1541157Y2158962D01*
X1539057Y2152862D01*
X1537057Y2148762D01*
X1532956Y2144661D01*
X1526756Y2142662D01*
X1512457Y2142662D01*
X1579156Y2179461D02*
G01*
X1577156Y2183562D01*
X1570956Y2185562D01*
X1566857Y2185562D01*
X1560757Y2183562D01*
X1556656Y2177361D01*
X1554656Y2167161D01*
X1554656Y2156961D01*
X1556656Y2148762D01*
X1560757Y2144661D01*
X1566857Y2142662D01*
X1568957Y2142662D01*
X1575056Y2144661D01*
X1579156Y2148762D01*
X1581256Y2154861D01*
X1581256Y2156961D01*
X1579156Y2163062D01*
X1575056Y2167161D01*
X1568957Y2169162D01*
X1566857Y2169162D01*
X1560757Y2167161D01*
X1556656Y2163062D01*
X1554656Y2156961D01*
X1619256Y2179461D02*
G01*
X1617256Y2183562D01*
X1611057Y2185562D01*
X1606957Y2185562D01*
X1600856Y2183562D01*
X1596756Y2177361D01*
X1594756Y2167161D01*
X1594756Y2156961D01*
X1596756Y2148762D01*
X1600856Y2144661D01*
X1606957Y2142662D01*
X1609057Y2142662D01*
X1615156Y2144661D01*
X1619256Y2148762D01*
X1621256Y2154861D01*
X1621256Y2156961D01*
X1619256Y2163062D01*
X1615156Y2167161D01*
X1609057Y2169162D01*
X1606957Y2169162D01*
X1600856Y2167161D01*
X1596756Y2163062D01*
X1594756Y2156961D01*
X1647057Y2185562D02*
G01*
X1640956Y2183562D01*
X1636857Y2177361D01*
X1634756Y2167161D01*
X1634756Y2161062D01*
X1636857Y2150761D01*
X1640956Y2144661D01*
X1647057Y2142662D01*
X1651157Y2142662D01*
X1657256Y2144661D01*
X1661356Y2150761D01*
X1663456Y2161062D01*
X1663456Y2167161D01*
X1661356Y2177361D01*
X1657256Y2183562D01*
X1651157Y2185562D01*
X1647057Y2185562D01*
X1701457Y2179461D02*
G01*
X1699457Y2183562D01*
X1693257Y2185562D01*
X1689256Y2185562D01*
X1683056Y2183562D01*
X1678957Y2177361D01*
X1676957Y2167161D01*
X1676957Y2156961D01*
X1678957Y2148762D01*
X1683056Y2144661D01*
X1689256Y2142662D01*
X1691256Y2142662D01*
X1697357Y2144661D01*
X1701457Y2148762D01*
X1703557Y2154861D01*
X1703557Y2156961D01*
X1701457Y2163062D01*
X1697357Y2167161D01*
X1691256Y2169162D01*
X1689256Y2169162D01*
X1683056Y2167161D01*
X1678957Y2163062D01*
X1676957Y2156961D01*
X1159403Y2155354D02*
G01*
X1202303Y2155354D01*
X1159403Y2155354D02*
G01*
X1159403Y2169654D01*
X1161403Y2175853D01*
X1165502Y2179854D01*
X1169602Y2181954D01*
X1175802Y2183953D01*
X1186003Y2183953D01*
X1192102Y2181954D01*
X1196202Y2179854D01*
X1200303Y2175853D01*
X1202303Y2169654D01*
X1202303Y2155354D01*
X1167602Y2197453D02*
G01*
X1165502Y2201554D01*
X1159403Y2207754D01*
X1202303Y2207754D01*
X1449400Y7298975D02*
G01*
X1465801Y7256075D01*
X1482101Y7298975D02*
G01*
X1465801Y7256075D01*
X1495600Y7298975D02*
G01*
X1495600Y7256075D01*
X1509101Y7298975D02*
G01*
X1509101Y7256075D01*
X1509101Y7298975D02*
G01*
X1523401Y7298975D01*
X1529601Y7296976D01*
X1533701Y7292876D01*
X1535700Y7288775D01*
X1537800Y7282575D01*
X1537800Y7272375D01*
X1535700Y7266275D01*
X1533701Y7262175D01*
X1529601Y7258076D01*
X1523401Y7256075D01*
X1509101Y7256075D01*
X1575801Y7292876D02*
G01*
X1573801Y7296976D01*
X1567601Y7298975D01*
X1563500Y7298975D01*
X1557400Y7296976D01*
X1553301Y7290776D01*
X1551301Y7280576D01*
X1551301Y7270376D01*
X1553301Y7262175D01*
X1557400Y7258076D01*
X1563500Y7256075D01*
X1565600Y7256075D01*
X1571701Y7258076D01*
X1575801Y7262175D01*
X1577901Y7268276D01*
X1577901Y7270376D01*
X1575801Y7276475D01*
X1571701Y7280576D01*
X1565600Y7282575D01*
X1563500Y7282575D01*
X1557400Y7280576D01*
X1553301Y7276475D01*
X1551301Y7270376D01*
X1615901Y7292876D02*
G01*
X1613900Y7296976D01*
X1607700Y7298975D01*
X1603600Y7298975D01*
X1597501Y7296976D01*
X1593401Y7290776D01*
X1591400Y7280576D01*
X1591400Y7270376D01*
X1593401Y7262175D01*
X1597501Y7258076D01*
X1603600Y7256075D01*
X1605700Y7256075D01*
X1611800Y7258076D01*
X1615901Y7262175D01*
X1617901Y7268276D01*
X1617901Y7270376D01*
X1615901Y7276475D01*
X1611800Y7280576D01*
X1605700Y7282575D01*
X1603600Y7282575D01*
X1597501Y7280576D01*
X1593401Y7276475D01*
X1591400Y7270376D01*
X1643701Y7298975D02*
G01*
X1637601Y7296976D01*
X1633500Y7290776D01*
X1631400Y7280576D01*
X1631400Y7274476D01*
X1633500Y7264176D01*
X1637601Y7258076D01*
X1643701Y7256075D01*
X1647800Y7256075D01*
X1653900Y7258076D01*
X1658001Y7264176D01*
X1660101Y7274476D01*
X1660101Y7280576D01*
X1658001Y7290776D01*
X1653900Y7296976D01*
X1647800Y7298975D01*
X1643701Y7298975D01*
X1698100Y7292876D02*
G01*
X1696100Y7296976D01*
X1689900Y7298975D01*
X1685901Y7298975D01*
X1679700Y7296976D01*
X1675600Y7290776D01*
X1673600Y7280576D01*
X1673600Y7270376D01*
X1675600Y7262175D01*
X1679700Y7258076D01*
X1685901Y7256075D01*
X1687901Y7256075D01*
X1694000Y7258076D01*
X1698100Y7262175D01*
X1700200Y7268276D01*
X1700200Y7270376D01*
X1698100Y7276475D01*
X1694000Y7280576D01*
X1687901Y7282575D01*
X1685901Y7282575D01*
X1679700Y7280576D01*
X1675600Y7276475D01*
X1673600Y7270376D01*
X1159403Y7273463D02*
G01*
X1202303Y7273463D01*
X1159403Y7273463D02*
G01*
X1159403Y7287764D01*
X1161403Y7293964D01*
X1165502Y7297964D01*
X1169602Y7300064D01*
X1175802Y7302064D01*
X1186003Y7302064D01*
X1192102Y7300064D01*
X1196202Y7297964D01*
X1200303Y7293964D01*
X1202303Y7287764D01*
X1202303Y7273463D01*
X1169602Y7317664D02*
G01*
X1167602Y7317664D01*
X1163503Y7319663D01*
X1161403Y7321763D01*
X1159403Y7325864D01*
X1159403Y7333964D01*
X1161403Y7338063D01*
X1163503Y7340164D01*
X1167602Y7342163D01*
X1171702Y7342163D01*
X1175802Y7340164D01*
X1181903Y7336064D01*
X1202303Y7315563D01*
X1202303Y7344263D01*
D16*
X2555119Y3035857D02*
G01*
X2555119Y3862629D01*
X547244Y3606723D02*
G01*
X547244Y3291763D01*
X547244Y3606723D02*
G01*
X547244Y3862629D01*
X547246Y3291763D02*
G01*
X547246Y3035857D01*
X496066Y3606723D02*
G01*
X496066Y3291763D01*
X547244Y3606723D02*
G01*
X496066Y3606723D01*
X496064Y3291763D02*
G01*
X547246Y3291763D01*
X547246Y3035857D02*
G01*
X2555119Y3035857D01*
X547246Y3862629D02*
G01*
X2555119Y3862629D01*
X2689399Y6896599D02*
G01*
X2389399Y6896599D01*
X2389399Y7286599D01*
X2689399Y7286599D01*
X2689399Y6896599D01*
X2429399Y6896599D02*
G01*
X2429399Y7286599D01*
X2609399Y6896599D02*
G01*
X2609399Y7286599D01*
X2469686Y6305909D02*
G01*
X2569686Y6305909D01*
X2569686Y5905909D01*
X2519686Y5905909D01*
X2469686Y5905909D01*
X2469686Y6305909D01*
X2198032Y6207483D02*
G01*
X2298032Y6207483D01*
X2298032Y5907483D01*
X2198032Y5907483D01*
X2198032Y6207483D01*
D17*
X982287Y98431D02*
G01*
X2125987Y98431D01*
X984287Y1476430D02*
G01*
X2125987Y1476430D01*
X982287Y4035439D02*
G01*
X2125987Y4035439D01*
X984287Y5413440D02*
G01*
X2125987Y5413440D01*
X982289Y7972447D02*
G01*
X2125988Y7972447D01*
X984288Y9350447D02*
G01*
X2125988Y9350447D01*
D18*
X716536Y7920949D02*
G01*
X676536Y7920949D01*
X676536Y7940949D01*
X716536Y7460949D02*
G01*
X676536Y7460949D01*
X676536Y7440949D01*
X716536Y7790949D02*
G01*
X696536Y7790949D01*
X696536Y7860949D01*
X716536Y7860949D01*
X716536Y7520949D02*
G01*
X696536Y7520949D01*
X696536Y7590949D01*
X716536Y7590949D01*
D16*
X716536Y7440949D02*
G01*
X466536Y7440949D01*
X466536Y7940949D01*
X716536Y7940949D01*
X716536Y7440949D01*
D18*
X2440946Y7460947D02*
G01*
X2480946Y7460947D01*
X2480946Y7440947D01*
X2440946Y7920947D02*
G01*
X2480946Y7920947D01*
X2480946Y7940947D01*
X2440946Y7590947D02*
G01*
X2460946Y7590947D01*
X2460946Y7520947D01*
X2440946Y7520947D01*
X2440946Y7860947D02*
G01*
X2460946Y7860947D01*
X2460946Y7790947D01*
X2440946Y7790947D01*
D16*
X2440946Y7940947D02*
G01*
X2690946Y7940947D01*
X2690946Y7440947D01*
X2440946Y7440947D01*
X2440946Y7940947D01*
D17*
X491732Y5523622D02*
G01*
X491732Y5873622D01*
X541732Y5873622D01*
X541732Y5898622D01*
X541732Y6148622D01*
X541732Y6173622D01*
X491732Y6173622D01*
X491732Y6473622D01*
X541732Y6473622D01*
X616732Y6473622D01*
X691732Y6473622D01*
X741732Y6523622D01*
X1741732Y6523622D01*
X1791732Y6473622D01*
X1791732Y5573622D01*
X1741732Y5523622D01*
X491732Y5523622D01*
X616732Y6473622D02*
G01*
X616732Y6498622D01*
X541732Y6498622D01*
X541732Y6473622D01*
X541732Y6148622D02*
G01*
X516732Y6148622D01*
X516732Y5898622D01*
X541732Y5898622D01*
D16*
X2501265Y2496033D02*
G01*
X2365444Y2496033D01*
X2365444Y2454693D01*
X2500084Y2454693D01*
X2501265Y2454693D01*
X2501265Y2496033D01*
X2557915Y2526694D02*
G01*
X2321694Y2526694D01*
X2558265Y2526374D02*
G01*
X2559054Y2124803D01*
X2320865Y2526374D02*
G01*
X2320473Y2124803D01*
X2556692Y2124803D02*
G01*
X2320473Y2124803D01*
X2501575Y2395273D02*
G01*
X2365754Y2395273D01*
X2365754Y2353933D01*
X2500394Y2353933D01*
X2501575Y2353933D01*
X2501575Y2395273D01*
X2502444Y2297174D02*
G01*
X2366625Y2297174D01*
X2366625Y2255834D01*
X2501265Y2255834D01*
X2502444Y2255834D01*
X2502444Y2297174D01*
X2502764Y2196754D02*
G01*
X2366944Y2196754D01*
X2366944Y2155414D01*
X2501584Y2155414D01*
X2502764Y2155414D01*
X2502764Y2196754D01*
X2473275Y2491003D02*
G01*
X2473275Y2456754D01*
X2442635Y2491824D02*
G01*
X2442635Y2457573D01*
X2473275Y2492184D02*
G01*
X2443755Y2462663D01*
X2442565Y2462663D01*
X2442565Y2483924D02*
G01*
X2453194Y2494553D01*
X2473275Y2468564D02*
G01*
X2463824Y2459113D01*
X2463824Y2457934D01*
X2396504Y2491003D02*
G01*
X2396504Y2456754D01*
X2472094Y2392184D02*
G01*
X2472094Y2357934D01*
X2441454Y2393004D02*
G01*
X2441454Y2358753D01*
X2472094Y2393364D02*
G01*
X2442574Y2363843D01*
X2441385Y2363843D01*
X2441385Y2385104D02*
G01*
X2452015Y2395734D01*
X2472094Y2369744D02*
G01*
X2462645Y2360293D01*
X2462645Y2359113D01*
X2395325Y2392184D02*
G01*
X2395325Y2357934D01*
X2472094Y2291314D02*
G01*
X2472094Y2257064D01*
X2441454Y2292134D02*
G01*
X2441454Y2257883D01*
X2472094Y2292494D02*
G01*
X2442574Y2262973D01*
X2441385Y2262973D01*
X2441385Y2284234D02*
G01*
X2452015Y2294863D01*
X2472094Y2268874D02*
G01*
X2462645Y2259423D01*
X2462645Y2258243D01*
X2395325Y2291314D02*
G01*
X2395325Y2257064D01*
X2472094Y2192494D02*
G01*
X2472094Y2158243D01*
X2441454Y2193314D02*
G01*
X2441454Y2159063D01*
X2472094Y2193674D02*
G01*
X2442574Y2164153D01*
X2441385Y2164153D01*
X2441385Y2185414D02*
G01*
X2452015Y2196044D01*
X2472094Y2170054D02*
G01*
X2462645Y2160603D01*
X2462645Y2159423D01*
X2395325Y2192494D02*
G01*
X2395325Y2158243D01*
X2470884Y2525234D02*
G01*
X2470884Y2513404D01*
X2397884Y2513404D01*
X2397884Y2524234D01*
D19*
X1224803Y2177854D02*
G01*
X1224803Y2285954D01*
X1924803Y2285954D01*
X1924803Y2044654D01*
X1224803Y2044654D01*
X1224803Y2152854D01*
X1224803Y7295963D02*
G01*
X1224803Y7404063D01*
X1924803Y7404063D01*
X1924803Y7162764D01*
X1224803Y7162764D01*
X1224803Y7270963D01*
D17*
G75*
G01*
X984288Y98431D02*
G02*
X984288Y1476431I0J689000D01*
G75*
G01*
X2125988Y98431D02*
G03*
X2125988Y1476431I0J689000D01*
G75*
G01*
X984288Y4035440D02*
G02*
X984288Y5413440I0J689000D01*
G75*
G01*
X2125988Y4035440D02*
G03*
X2125988Y5413440I0J689000D01*
G75*
G01*
X984289Y7972447D02*
G02*
X984289Y9350447I0J689000D01*
G75*
G01*
X2125989Y7972447D02*
G03*
X2125989Y9350447I0J689000D01*
D19*
G75*
G01*
X1224803Y2152854D02*
G03*
X1224803Y2177854I0J12500D01*
G75*
G01*
X1224803Y7270964D02*
G03*
X1224803Y7295964I0J12500D01*
M02*
