G04 Layer: BottomSilkscreenLayer*
G04 EasyEDA v6.5.22, 2022-11-17 17:56:15*
G04 bd1838edf7794fe9965007c2dd97f0f2,c41f2f61388c4f97afb2f396c9cd50e1,10*
G04 Gerber Generator version 0.2*
G04 Scale: 100 percent, Rotated: No, Reflected: No *
G04 Dimensions in inches *
G04 leading zeros omitted , absolute positions ,3 integer and 6 decimal *
%FSLAX36Y36*%
%MOIN*%

%ADD10C,0.0060*%
%ADD11C,0.0100*%

%LPD*%
D10*
X1968469Y912809D02*
G01*
X1968469Y869854D01*
X1939834Y912809D02*
G01*
X1939834Y869854D01*
X1968469Y892354D02*
G01*
X1939834Y892354D01*
X1926333Y855536D02*
G01*
X1889515Y855536D01*
X1859651Y912809D02*
G01*
X1876014Y869854D01*
X1859651Y912809D02*
G01*
X1843288Y869854D01*
X1869879Y884173D02*
G01*
X1849425Y884173D01*
X2559059Y912802D02*
G01*
X2559059Y869902D01*
X2530460Y912802D02*
G01*
X2530460Y869902D01*
X2559059Y892402D02*
G01*
X2530460Y892402D01*
X2516959Y855502D02*
G01*
X2480060Y855502D01*
X2466559Y912802D02*
G01*
X2466559Y869902D01*
X2466559Y912802D02*
G01*
X2448159Y912802D01*
X2442060Y910801D01*
X2440060Y908701D01*
X2437960Y904601D01*
X2437960Y900502D01*
X2440060Y896401D01*
X2442060Y894402D01*
X2448159Y892402D01*
X2466559Y892402D02*
G01*
X2448159Y892402D01*
X2442060Y890302D01*
X2440060Y888301D01*
X2437960Y884202D01*
X2437960Y878002D01*
X2440060Y873901D01*
X2442060Y871902D01*
X2448159Y869902D01*
X2466559Y869902D01*
X1968509Y4849810D02*
G01*
X1968509Y4806909D01*
X1939908Y4849810D02*
G01*
X1939908Y4806909D01*
X1968509Y4829409D02*
G01*
X1939908Y4829409D01*
X1926409Y4792510D02*
G01*
X1889508Y4792510D01*
X1845408Y4839609D02*
G01*
X1847408Y4843710D01*
X1851508Y4847809D01*
X1855609Y4849810D01*
X1863809Y4849810D01*
X1867908Y4847809D01*
X1872008Y4843710D01*
X1874008Y4839609D01*
X1876009Y4833409D01*
X1876009Y4823209D01*
X1874008Y4817109D01*
X1872008Y4813009D01*
X1867908Y4808910D01*
X1863809Y4806909D01*
X1855609Y4806909D01*
X1851508Y4808910D01*
X1847408Y4813009D01*
X1845408Y4817109D01*
X2559059Y4849810D02*
G01*
X2559059Y4806909D01*
X2530460Y4849810D02*
G01*
X2530460Y4806909D01*
X2559059Y4829409D02*
G01*
X2530460Y4829409D01*
X2516959Y4792510D02*
G01*
X2480060Y4792510D01*
X2466559Y4849810D02*
G01*
X2466559Y4806909D01*
X2466559Y4849810D02*
G01*
X2452259Y4849810D01*
X2446160Y4847809D01*
X2442060Y4843710D01*
X2440060Y4839609D01*
X2437960Y4833409D01*
X2437960Y4823209D01*
X2440060Y4817109D01*
X2442060Y4813009D01*
X2446160Y4808910D01*
X2452259Y4806909D01*
X2466559Y4806909D01*
X1968509Y8786817D02*
G01*
X1968509Y8743917D01*
X1939908Y8786817D02*
G01*
X1939908Y8743917D01*
X1968509Y8766417D02*
G01*
X1939908Y8766417D01*
X1926409Y8729517D02*
G01*
X1889508Y8729517D01*
X1876009Y8786817D02*
G01*
X1876009Y8743917D01*
X1876009Y8786817D02*
G01*
X1849508Y8786817D01*
X1876009Y8766417D02*
G01*
X1859709Y8766417D01*
X1876009Y8743917D02*
G01*
X1849508Y8743917D01*
X2559061Y8786817D02*
G01*
X2559061Y8743917D01*
X2530460Y8786817D02*
G01*
X2530460Y8743917D01*
X2559061Y8766417D02*
G01*
X2530460Y8766417D01*
X2516961Y8729517D02*
G01*
X2480060Y8729517D01*
X2466561Y8786817D02*
G01*
X2466561Y8743917D01*
X2466561Y8786817D02*
G01*
X2440060Y8786817D01*
X2466561Y8766417D02*
G01*
X2450261Y8766417D01*
X1908416Y758814D02*
G01*
X1908416Y815996D01*
X1949417Y815996D01*
X2028593Y758814D02*
G01*
X2028593Y815996D01*
X1987592Y815996D01*
X1951568Y758814D02*
G01*
X1985441Y758814D01*
X2498967Y758816D02*
G01*
X2498967Y815997D01*
X2539967Y815997D01*
X2619143Y758816D02*
G01*
X2619143Y815997D01*
X2578141Y815997D01*
X2542119Y758816D02*
G01*
X2575991Y758816D01*
X1908415Y4695823D02*
G01*
X1908415Y4753006D01*
X1949417Y4753006D01*
X2028591Y4695823D02*
G01*
X2028591Y4753006D01*
X1987591Y4753006D01*
X1951567Y4695823D02*
G01*
X1985439Y4695823D01*
X2498967Y4695823D02*
G01*
X2498967Y4753006D01*
X2539967Y4753006D01*
X2619143Y4695823D02*
G01*
X2619143Y4753006D01*
X2578141Y4753006D01*
X2542119Y4695823D02*
G01*
X2575991Y4695823D01*
X1908415Y8632831D02*
G01*
X1908415Y8690012D01*
X1949417Y8690012D01*
X2028591Y8632831D02*
G01*
X2028591Y8690012D01*
X1987591Y8690012D01*
X1951567Y8632831D02*
G01*
X1985439Y8632831D01*
X2498968Y8632831D02*
G01*
X2498968Y8690012D01*
X2539969Y8690012D01*
X2619143Y8632831D02*
G01*
X2619143Y8690012D01*
X2578143Y8690012D01*
X2542120Y8632831D02*
G01*
X2575991Y8632831D01*
D11*
G75*
G01
X3070870Y4724410D02*
G03X3070870Y4724410I-1870080J0D01*
G75*
G01
X3070870Y8661420D02*
G03X3070870Y8661420I-1870080J0D01*
G75*
G01
X3070870Y787400D02*
G03X3070870Y787400I-1870080J0D01*
M02*
