G04 Layer: TopSolderMaskLayer*
G04 EasyEDA v6.5.22, 2022-11-17 17:56:15*
G04 bd1838edf7794fe9965007c2dd97f0f2,c41f2f61388c4f97afb2f396c9cd50e1,10*
G04 Gerber Generator version 0.2*
G04 Scale: 100 percent, Rotated: No, Reflected: No *
G04 Dimensions in inches *
G04 leading zeros omitted , absolute positions ,3 integer and 6 decimal *
%FSLAX36Y36*%
%MOIN*%

%AMMACRO1*1,1,$1,$2,$3*1,1,$1,$4,$5*1,1,$1,0-$2,0-$3*1,1,$1,0-$4,0-$5*20,1,$1,$2,$3,$4,$5,0*20,1,$1,$4,$5,0-$2,0-$3,0*20,1,$1,0-$2,0-$3,0-$4,0-$5,0*20,1,$1,0-$4,0-$5,$2,$3,0*4,1,4,$2,$3,$4,$5,0-$2,0-$3,0-$4,0-$5,$2,$3,0*%
%ADD10MACRO1,0.008X-0.0315X-0.0315X-0.0315X0.0315*%
%ADD11MACRO1,0.004X-0.0315X-0.0315X-0.0315X0.0315*%
%ADD12C,0.0670*%
%ADD13O,0.09067699999999998X0.059181*%
%ADD14O,0.072961X0.059181*%
%ADD15MACRO1,0.008X0.04X0.025X0.04X-0.025*%
%ADD16O,0.08800000000000001X0.057999999999999996*%
%ADD17MACRO1,0.008X-0.04X-0.025X-0.04X0.025*%
%ADD18C,0.0555*%
%ADD19C,0.0749*%
%ADD20MACRO1,0.008X0.0335X-0.0335X-0.0335X-0.0335*%
%ADD21MACRO1,0.008X-0.0335X0.0335X0.0335X0.0335*%
%ADD22O,0.064X0.124*%
%ADD23C,0.0710*%
%ADD24C,0.0710*%
%ADD25O,0.02762X0.07487*%
%ADD26MACRO1,0.004X-0.0118X-0.0355X-0.0118X0.0355*%
%ADD27MACRO1,0.004X-0.0118X-0.0354X-0.0118X0.0354*%
%ADD28C,0.0116*%

%LPD*%
D10*
G01*
X701182Y3035852D03*
D11*
G01*
X701182Y3067549D03*
D10*
G01*
X601182Y3035852D03*
D11*
G01*
X601182Y3067549D03*
D10*
G01*
X2501183Y3035856D03*
D11*
G01*
X2501183Y3067549D03*
D10*
G01*
X801183Y3035852D03*
D11*
G01*
X801183Y3067549D03*
D10*
G01*
X901183Y3035852D03*
D11*
G01*
X901183Y3067549D03*
D10*
G01*
X1001183Y3035852D03*
D11*
G01*
X1001183Y3067549D03*
D10*
G01*
X1101183Y3035852D03*
D11*
G01*
X1101183Y3067549D03*
D10*
G01*
X1201183Y3035852D03*
D11*
G01*
X1201183Y3067549D03*
D10*
G01*
X1301183Y3035852D03*
D11*
G01*
X1301183Y3067549D03*
D10*
G01*
X1401183Y3035852D03*
D11*
G01*
X1401183Y3067549D03*
D10*
G01*
X1501183Y3035852D03*
D11*
G01*
X1501183Y3067549D03*
D10*
G01*
X1601183Y3035852D03*
D11*
G01*
X1601183Y3067549D03*
D10*
G01*
X1701183Y3035852D03*
D11*
G01*
X1701183Y3067549D03*
D10*
G01*
X1801183Y3035852D03*
D11*
G01*
X1801183Y3067549D03*
D10*
G01*
X1901183Y3035852D03*
D11*
G01*
X1901183Y3067549D03*
D10*
G01*
X2001183Y3035852D03*
D11*
G01*
X2001183Y3067549D03*
D10*
G01*
X2101183Y3035852D03*
D11*
G01*
X2101183Y3067549D03*
D10*
G01*
X2201183Y3035852D03*
D11*
G01*
X2201183Y3067549D03*
D10*
G01*
X2301183Y3035852D03*
D11*
G01*
X2301183Y3067549D03*
D10*
G01*
X2401183Y3035852D03*
D11*
G01*
X2401183Y3067549D03*
D10*
G01*
X2401183Y3862632D03*
G01*
X2301183Y3862632D03*
G01*
X2201183Y3862632D03*
G01*
X2101183Y3862632D03*
G01*
X2001183Y3862632D03*
G01*
X1901183Y3862632D03*
G01*
X1801183Y3862632D03*
G01*
X1701183Y3862632D03*
G01*
X1601183Y3862632D03*
G01*
X1501183Y3862632D03*
G01*
X1401183Y3862632D03*
G01*
X1301183Y3862632D03*
G01*
X1201183Y3862632D03*
G01*
X1101183Y3862632D03*
G01*
X1001183Y3862632D03*
G01*
X901183Y3862632D03*
G01*
X801183Y3862632D03*
G01*
X2501183Y3862632D03*
G01*
X601182Y3862632D03*
G01*
X701182Y3862632D03*
D11*
G01*
X2401183Y3830935D03*
G01*
X2301183Y3830935D03*
G01*
X2201183Y3830935D03*
G01*
X2101183Y3830935D03*
G01*
X2001183Y3830935D03*
G01*
X1901183Y3830935D03*
G01*
X1801183Y3830935D03*
G01*
X1701183Y3830935D03*
G01*
X1601183Y3830935D03*
G01*
X1501183Y3830935D03*
G01*
X1401183Y3830935D03*
G01*
X1301183Y3830935D03*
G01*
X1201183Y3830935D03*
G01*
X1101183Y3830935D03*
G01*
X1001183Y3830935D03*
G01*
X901183Y3830935D03*
G01*
X801183Y3830935D03*
G01*
X2501183Y3830935D03*
G01*
X601182Y3830935D03*
G01*
X701182Y3830935D03*
D12*
G01*
X701179Y3099240D03*
G01*
X601179Y3099240D03*
G01*
X2501180Y3099240D03*
G01*
X801180Y3099240D03*
G01*
X901180Y3099240D03*
G01*
X1001180Y3099240D03*
G01*
X1101180Y3099240D03*
G01*
X1201180Y3099240D03*
G01*
X1301180Y3099240D03*
G01*
X1401180Y3099240D03*
G01*
X1501180Y3099240D03*
G01*
X1601180Y3099240D03*
G01*
X1701180Y3099240D03*
G01*
X1801180Y3099240D03*
G01*
X1901180Y3099240D03*
G01*
X2001180Y3099240D03*
G01*
X2101180Y3099240D03*
G01*
X2201180Y3099240D03*
G01*
X2301180Y3099240D03*
G01*
X2401180Y3099240D03*
G01*
X601179Y3799240D03*
G01*
X2401180Y3799240D03*
G01*
X2301180Y3799240D03*
G01*
X2201180Y3799240D03*
G01*
X2101180Y3799240D03*
G01*
X2001180Y3799240D03*
G01*
X1901180Y3799240D03*
G01*
X1801180Y3799240D03*
G01*
X1701180Y3799240D03*
G01*
X1601180Y3799240D03*
G01*
X1501180Y3799240D03*
G01*
X1401180Y3799240D03*
G01*
X1301180Y3799240D03*
G01*
X1201180Y3799240D03*
G01*
X1101180Y3799240D03*
G01*
X1001180Y3799240D03*
G01*
X901180Y3799240D03*
G01*
X801180Y3799240D03*
G01*
X2501180Y3799240D03*
G01*
X701179Y3799240D03*
D13*
G01*
X606300Y3341559D03*
G01*
X606300Y3556129D03*
D14*
G01*
X725590Y3353370D03*
G01*
X725590Y3544319D03*
D15*
G01*
X2539399Y6986599D03*
D16*
G01*
X2539399Y7186599D03*
D17*
G01*
X2519686Y6255909D03*
D16*
G01*
X2519690Y6155909D03*
D17*
G01*
X2519686Y6055909D03*
D16*
G01*
X2519690Y5955909D03*
G01*
X2248029Y6157480D03*
G01*
X2248029Y6057480D03*
D17*
G01*
X2248032Y5957483D03*
D18*
G01*
X792190Y337429D03*
G01*
X1097690Y337429D03*
G01*
X792190Y1237429D03*
G01*
X1097690Y1237429D03*
G01*
X2012590Y1237429D03*
G01*
X2318090Y1237429D03*
G01*
X2012590Y337429D03*
G01*
X2318090Y337429D03*
G01*
X792190Y4274440D03*
G01*
X1097690Y4274440D03*
G01*
X792190Y5174440D03*
G01*
X1097690Y5174440D03*
G01*
X2012590Y5174440D03*
G01*
X2318090Y5174440D03*
G01*
X2012590Y4274440D03*
G01*
X2318090Y4274440D03*
G01*
X792190Y8211450D03*
G01*
X1097690Y8211450D03*
G01*
X792190Y9111450D03*
G01*
X1097690Y9111450D03*
G01*
X2012590Y9111450D03*
G01*
X2318090Y9111450D03*
G01*
X2012590Y8211450D03*
G01*
X2318090Y8211450D03*
D19*
G01*
X616529Y7840949D03*
G01*
X616529Y7740949D03*
G01*
X616529Y7640949D03*
D20*
G01*
X616534Y7540943D03*
D21*
G01*
X2540945Y7540948D03*
D19*
G01*
X2540950Y7640949D03*
G01*
X2540950Y7740949D03*
G01*
X2540950Y7840949D03*
D22*
G01*
X1491729Y6473620D03*
G01*
X1391729Y6473620D03*
G01*
X1291729Y6473620D03*
G01*
X1191729Y6473620D03*
G01*
X1091729Y6473620D03*
G01*
X991729Y6473620D03*
G01*
X891729Y6473620D03*
G01*
X791729Y6473620D03*
G01*
X791729Y5573620D03*
G01*
X891729Y5573620D03*
G01*
X991729Y5573620D03*
G01*
X1091729Y5573620D03*
G01*
X1191729Y5573620D03*
G01*
X1291729Y5573620D03*
G01*
X1391729Y5573620D03*
G01*
X1491729Y5573620D03*
D23*
G01*
X2290950Y2475990D03*
D12*
G01*
X2290950Y2375990D03*
G01*
X2290950Y2275990D03*
G01*
X2290950Y2175990D03*
D24*
G01*
X2590950Y2175990D03*
G01*
X2590950Y2275990D03*
G01*
X2590950Y2375990D03*
G01*
X2590950Y2475990D03*
D25*
G01*
X1899799Y2350349D03*
G01*
X1849799Y2350349D03*
G01*
X1799799Y2350349D03*
G01*
X1749799Y2350349D03*
G01*
X1699799Y2350349D03*
G01*
X1649799Y2350349D03*
G01*
X1599799Y2350349D03*
G01*
X1549799Y2350349D03*
G01*
X1499799Y2350349D03*
G01*
X1449799Y2350349D03*
G01*
X1399799Y2350349D03*
G01*
X1349799Y2350349D03*
G01*
X1299799Y2350349D03*
G01*
X1249799Y2350349D03*
G01*
X1899799Y1980270D03*
G01*
X1849799Y1980270D03*
G01*
X1799799Y1980270D03*
G01*
X1749799Y1980270D03*
G01*
X1699799Y1980270D03*
G01*
X1649799Y1980270D03*
G01*
X1599799Y1980270D03*
G01*
X1549799Y1980270D03*
G01*
X1499799Y1980270D03*
G01*
X1449799Y1980270D03*
G01*
X1399799Y1980270D03*
G01*
X1349799Y1980270D03*
G01*
X1299799Y1980270D03*
D26*
G01*
X1249802Y1980304D03*
D25*
G01*
X1899799Y7468460D03*
G01*
X1849799Y7468460D03*
G01*
X1799799Y7468460D03*
G01*
X1749799Y7468460D03*
G01*
X1699799Y7468460D03*
G01*
X1649799Y7468460D03*
G01*
X1599799Y7468460D03*
G01*
X1549799Y7468460D03*
G01*
X1499799Y7468460D03*
G01*
X1449799Y7468460D03*
G01*
X1399799Y7468460D03*
G01*
X1349799Y7468460D03*
G01*
X1299799Y7468460D03*
G01*
X1249799Y7468460D03*
G01*
X1899799Y7098380D03*
G01*
X1849799Y7098380D03*
G01*
X1799799Y7098380D03*
G01*
X1749799Y7098380D03*
G01*
X1699799Y7098380D03*
G01*
X1649799Y7098380D03*
G01*
X1599799Y7098380D03*
G01*
X1549799Y7098380D03*
G01*
X1499799Y7098380D03*
G01*
X1449799Y7098380D03*
G01*
X1399799Y7098380D03*
G01*
X1349799Y7098380D03*
G01*
X1299799Y7098380D03*
D27*
G01*
X1249802Y7098414D03*
M02*
